<svg width="16" height="18" viewBox="0 0 16 18" fill="none" xmlns="http://www.w3.org/2000/svg">
<path fill-rule="evenodd" clip-rule="evenodd" d="M15.8326 11.9788C16.0558 12.2001 16.0558 12.5589 15.8326 12.7802L11.2612 17.3135C11.038 17.5348 10.6762 17.5348 10.4531 17.3135C10.2299 17.0922 10.2299 16.7334 10.4531 16.5121L14.049 12.9462H2.85714C1.27919 12.9462 0 11.6776 0 10.1128V1.04616C0 0.733197 0.255836 0.479492 0.571428 0.479492C0.887019 0.479492 1.14286 0.733197 1.14286 1.04616V10.1128C1.14286 11.0517 1.91037 11.8128 2.85714 11.8128H14.049L10.4531 8.24685C10.2299 8.02556 10.2299 7.66676 10.4531 7.44547C10.6762 7.22417 11.038 7.22417 11.2612 7.44547L15.8326 11.9788Z" fill="#B0B8C1"/>
</svg>
