<svg width="16" height="16" viewBox="0 0 16 16" fill="none" xmlns="http://www.w3.org/2000/svg">
<path d="M6.86 2.57347L1.21333 12.0001C1.09691 12.2018 1.03531 12.4303 1.03466 12.6631C1.03401 12.896 1.09433 13.1249 1.20962 13.3272C1.32491 13.5294 1.49115 13.698 1.6918 13.816C1.89246 13.9341 2.12053 13.9976 2.35333 14.0001H13.6467C13.8795 13.9976 14.1075 13.9341 14.3082 13.816C14.5088 13.698 14.6751 13.5294 14.7904 13.3272C14.9057 13.1249 14.966 12.896 14.9653 12.6631C14.9647 12.4303 14.9031 12.2018 14.7867 12.0001L9.14 2.57347C9.02115 2.37754 8.85381 2.21555 8.65413 2.10313C8.45444 1.9907 8.22916 1.93164 8 1.93164C7.77084 1.93164 7.54555 1.9907 7.34587 2.10313C7.14618 2.21555 6.97885 2.37754 6.86 2.57347V2.57347Z" stroke="#8D95A1" stroke-width="1.2" stroke-linecap="round" stroke-linejoin="round"/>
<path d="M8 6V8.66667" stroke="#8D95A1" stroke-width="1.2" stroke-linecap="round" stroke-linejoin="round"/>
<path d="M8 11.333H8.00667" stroke="#8D95A1" stroke-width="1.2" stroke-linecap="round" stroke-linejoin="round"/>
</svg>
