<svg width="16" height="17" viewBox="0 0 16 17" fill="none" xmlns="http://www.w3.org/2000/svg">
<path d="M11 6.5C11 8.15685 9.65685 9.5 8 9.5C6.34315 9.5 5 8.15685 5 6.5C5 4.84315 6.34315 3.5 8 3.5C9.65685 3.5 11 4.84315 11 6.5Z" fill="white"/>
<path fill-rule="evenodd" clip-rule="evenodd" d="M0 8.5C0 4.08172 3.58172 0.5 8 0.5C12.4183 0.5 16 4.08172 16 8.5C16 12.9183 12.4183 16.5 8 16.5C3.58172 16.5 0 12.9183 0 8.5ZM8 1.5C4.13401 1.5 1 4.63401 1 8.5C1 10.1534 1.57326 11.673 2.53186 12.8707C3.24293 11.7252 4.80464 10.5 8.00001 10.5C11.1954 10.5 12.7571 11.7252 13.4681 12.8707C14.4267 11.673 15 10.1534 15 8.5C15 4.63401 11.866 1.5 8 1.5Z" fill="white"/>
</svg>
