<svg width="40" height="40" viewBox="0 0 40 40" fill="none" xmlns="http://www.w3.org/2000/svg">
<g clip-path="url(#clip0_1324_43003)">
<path d="M31.8986 21.56C31.9586 21.06 31.9986 20.54 31.9986 20C31.9986 19.46 31.9585 18.94 31.8785 18.44L35.2585 15.8C35.5585 15.56 35.6385 15.12 35.4585 14.78L32.2585 9.24C32.0585 8.88 31.6386 8.76 31.2786 8.88L27.2985 10.48C26.4585 9.84 25.5786 9.32 24.5986 8.92L23.9986 4.68C23.9386 4.28 23.5986 4 23.1986 4H16.7985C16.3985 4 16.0786 4.28 16.0186 4.68L15.4186 8.92C14.4386 9.32 13.5386 9.86 12.7186 10.48L8.73855 8.88C8.37855 8.74 7.95855 8.88 7.75855 9.24L4.55855 14.78C4.35855 15.14 4.43855 15.56 4.75855 15.8L8.13855 18.44C8.05855 18.94 7.99855 19.48 7.99855 20C7.99855 20.52 8.03855 21.06 8.11855 21.56L4.73855 24.2C4.43855 24.44 4.35855 24.88 4.53855 25.22L7.73855 30.76C7.93855 31.12 8.35855 31.24 8.71855 31.12L12.6986 29.52C13.5386 30.16 14.4186 30.68 15.3986 31.08L15.9986 35.32C16.0786 35.72 16.3985 36 16.7985 36H23.1986C23.5986 36 23.9385 35.72 23.9785 35.32L24.5786 31.08C25.5586 30.68 26.4586 30.14 27.2786 29.52L31.2586 31.12C31.6186 31.26 32.0386 31.12 32.2386 30.76L35.4385 25.22C35.6385 24.86 35.5586 24.44 35.2386 24.2L31.8986 21.56V21.56ZM19.9986 26C16.6986 26 13.9986 23.3 13.9986 20C13.9986 16.7 16.6986 14 19.9986 14C23.2986 14 25.9986 16.7 25.9986 20C25.9986 23.3 23.2986 26 19.9986 26Z" fill="white"/>
</g>
<defs>

<rect width="40" height="40" fill="white"/>

</defs>
</svg>
