<svg width="16" height="16" viewBox="0 0 16 16" fill="none" xmlns="http://www.w3.org/2000/svg">
<path d="M16 7.53516C16 11.4011 12.4183 14.5352 8 14.5352C7.18324 14.5352 6.39508 14.4281 5.65284 14.229C5.06898 14.5249 3.72774 15.0936 1.47172 15.4629C1.27271 15.4955 1.12037 15.2873 1.19898 15.1016C1.55308 14.2651 1.87251 13.1513 1.96979 12.1352C0.743061 10.905 0 9.29603 0 7.53516C0 3.66916 3.58172 0.535156 8 0.535156C12.4183 0.535156 16 3.66916 16 7.53516ZM5 7.53516C5 6.98287 4.55228 6.53516 4 6.53516C3.44772 6.53516 3 6.98287 3 7.53516C3 8.08744 3.44772 8.53516 4 8.53516C4.55228 8.53516 5 8.08744 5 7.53516ZM9 7.53516C9 6.98287 8.55229 6.53516 8 6.53516C7.44772 6.53516 7 6.98287 7 7.53516C7 8.08744 7.44772 8.53516 8 8.53516C8.55229 8.53516 9 8.08744 9 7.53516ZM12 8.53516C12.5523 8.53516 13 8.08744 13 7.53516C13 6.98287 12.5523 6.53516 12 6.53516C11.4477 6.53516 11 6.98287 11 7.53516C11 8.08744 11.4477 8.53516 12 8.53516Z" fill="#B0B8C1"/>
</svg>
