<svg width="20" height="20" viewBox="0 0 20 20" fill="none" xmlns="http://www.w3.org/2000/svg">
<path d="M14.3252 0.183058C14.208 0.065848 14.049 0 13.8833 0H6.11675C5.95099 0 5.79202 0.065848 5.67481 0.183058L0.183058 5.67481C0.065848 5.79202 0 5.95099 0 6.11675V13.8833C0 14.049 0.065848 14.208 0.183058 14.3252L5.67481 19.8169C5.79202 19.9342 5.95099 20 6.11675 20H13.8833C14.049 20 14.208 19.9342 14.3252 19.8169L19.8169 14.3252C19.9342 14.208 20 14.049 20 13.8833V6.11675C20 5.95099 19.9342 5.79202 19.8169 5.67481L14.3252 0.183058ZM10 5C10.6693 5 11.1922 5.57786 11.1256 6.2438L10.6872 10.6281C10.6519 10.9811 10.3548 11.25 10 11.25C9.64519 11.25 9.34811 10.9811 9.31281 10.6281L8.87438 6.2438C8.80779 5.57786 9.33074 5 10 5ZM10.0019 12.5C10.6923 12.5 11.2519 13.0596 11.2519 13.75C11.2519 14.4404 10.6923 15 10.0019 15C9.31157 15 8.75193 14.4404 8.75193 13.75C8.75193 13.0596 9.31157 12.5 10.0019 12.5Z" fill="#9CA3AF"/>
</svg>
