<?xml version="1.0" encoding="UTF-8"?><svg id="_레이어_2" xmlns="http://www.w3.org/2000/svg" viewBox="0 0 817.31 538.28"><defs><style>.cls-1{fill:#1c0d46;}.cls-2{fill:#2d237a;}.cls-2,.cls-3{fill-rule:evenodd;}.cls-3{fill:#00adba;}</style></defs><g id="Layer_1"><g><g><path class="cls-1" d="M89.46,505.02H34.91l-14.19,30.95H0l63.05-135.42,60.82,135.42h-21.04l-13.37-30.95Zm-7.84-18.07l-18.9-43.32-19.81,43.32h38.7Z"/><path class="cls-1" d="M146.07,455.58v46.13c0,13.31,5.25,19.97,15.76,19.97s15.76-6.66,15.76-19.97v-46.13h18.57v46.54c0,6.44-.8,12-2.39,16.67-1.54,4.18-4.21,7.95-8,11.31-6.27,5.45-14.25,8.17-23.93,8.17s-17.58-2.72-23.85-8.17c-3.85-3.35-6.57-7.12-8.17-11.31-1.54-3.74-2.31-9.3-2.31-16.67v-46.54h18.57Z"/><path class="cls-1" d="M239.17,472.91v63.05h-18.57v-63.05h-11.63v-17.33h11.63v-29.46h18.57v29.46h12.06v17.33h-12.06Z"/><path class="cls-1" d="M593.81,472.91v63.05h-18.57v-63.05h-11.63v-17.33h11.63v-29.46h18.57v29.46h12.06v17.33h-12.06Z"/><path class="cls-1" d="M257.07,495.19c0-11.61,4.15-21.48,12.46-29.63,8.31-8.14,18.43-12.21,30.37-12.21s22.17,4.1,30.53,12.3c8.25,8.2,12.38,18.27,12.38,30.2s-4.16,22.15-12.46,30.29c-8.36,8.09-18.62,12.13-30.78,12.13s-22.15-4.13-30.29-12.38c-8.14-8.14-12.21-18.37-12.21-30.7Zm18.98,.33c0,8.03,2.15,14.39,6.44,19.06,4.4,4.73,10.2,7.1,17.41,7.1s13.06-2.34,17.41-7.01c4.35-4.68,6.52-10.92,6.52-18.73s-2.17-14.06-6.52-18.73c-4.4-4.73-10.21-7.1-17.41-7.1s-12.85,2.37-17.25,7.1c-4.4,4.73-6.6,10.84-6.6,18.32Z"/><path class="cls-1" d="M351.59,455.58h18.57v7.43c3.57-3.74,6.63-6.27,9.16-7.59,2.69-1.38,6.08-2.06,10.15-2.06,9.08,0,16.26,3.96,21.54,11.88,5.83-7.92,13.73-11.88,23.68-11.88,18.1,0,27.15,10.98,27.15,32.93v49.68h-18.65v-44.65c0-7.7-.94-13.15-2.81-16.34-1.92-3.25-5.09-4.87-9.49-4.87-5.12,0-8.84,1.93-11.18,5.78-2.34,3.85-3.51,10.04-3.51,18.57v41.51h-18.65v-44.4c0-14.3-4.13-21.46-12.38-21.46-5.23,0-9.04,1.95-11.43,5.86-2.39,3.91-3.59,10.07-3.59,18.49v41.51h-18.57v-80.38Z"/><path class="cls-1" d="M635.75,429.46c-2.37-2.36-5.23-3.55-8.58-3.55s-6.13,1.18-8.5,3.55c-2.37,2.37-3.55,5.17-3.55,8.42,0,3.41,1.18,6.3,3.55,8.66,2.37,2.36,5.23,3.55,8.58,3.55s6.19-1.18,8.5-3.55c2.37-2.36,3.55-5.23,3.55-8.58s-1.18-6.19-3.55-8.5Z"/><rect class="cls-1" x="617.92" y="455.58" width="18.57" height="80.38"/><path class="cls-1" d="M649.45,495.19c0-11.61,4.15-21.48,12.46-29.63,8.31-8.14,18.43-12.21,30.37-12.21s22.17,4.1,30.53,12.3c8.25,8.2,12.38,18.27,12.38,30.2s-4.16,22.15-12.46,30.29c-8.37,8.09-18.63,12.13-30.78,12.13s-22.15-4.13-30.29-12.38c-8.14-8.14-12.21-18.37-12.21-30.7Zm18.98,.33c0,8.03,2.15,14.39,6.44,19.06,4.4,4.73,10.2,7.1,17.41,7.1s13.07-2.34,17.41-7.01c4.35-4.68,6.52-10.92,6.52-18.73s-2.17-14.06-6.52-18.73c-4.4-4.73-10.21-7.1-17.41-7.1s-12.85,2.37-17.25,7.1c-4.4,4.73-6.6,10.84-6.6,18.32Z"/><path class="cls-1" d="M748.07,455.58h18.65v7.43c6.49-6.44,13.81-9.66,21.95-9.66,9.35,0,16.64,2.94,21.87,8.83,4.51,5.01,6.77,13.18,6.77,24.51v49.27h-18.65v-44.89c0-7.92-1.1-13.4-3.3-16.42-2.15-3.08-6.05-4.62-11.72-4.62-6.16,0-10.53,2.04-13.12,6.11-2.53,4.02-3.79,11.03-3.79,21.04v38.79h-18.65v-80.38Z"/><path class="cls-1" d="M534.01,455.59v9.32c-7.43-7.7-15.82-11.55-25.17-11.55-10.84,0-19.86,4.02-27.07,12.05-7.21,8.03-10.81,18.07-10.81,30.12s3.6,22.5,10.81,30.7c7.26,8.03,16.45,12.05,27.56,12.05,8.8,0,17.03-3.58,24.68-10.73v8.42h18.65v-80.38h-18.65Zm-7.12,58.92c-4.24,4.73-9.79,7.1-16.67,7.1-6.44,0-11.77-2.45-16.01-7.34-4.12-4.84-6.19-11.11-6.19-18.82,0-7.21,2.12-13.26,6.35-18.16,4.29-4.84,9.63-7.26,16.01-7.26,6.77,0,12.27,2.39,16.5,7.18,4.24,4.9,6.36,11.11,6.36,18.65s-2.12,13.76-6.36,18.65Z"/></g><g><path class="cls-2" d="M444.74,154.62c22-.58,86.83,13.89,83.12,40.11-5.73,40.58-157.35,82.92-189.72,83.99-1.5-6.92-3-13.85-4.5-20.77,43.47-7.15,152.44-38.93,162.74-66.27,4.68-17.15-27.29-27.73-51.64-37.05Z"/><path class="cls-2" d="M314.44,296.55c-.13,6.39-.25,12.77-.38,19.16,70.07-8.12,190.58-36.15,206.98-94.15-54.03,48.65-147.28,67.09-206.6,74.99Z"/><path class="cls-2" d="M288,332.43c-.03,5.62-.07,11.23-.1,16.85,63.28-9.42,121.87-27.02,176.31-60.05-61.32,24.88-119.57,38.03-176.21,43.2Z"/><path class="cls-3" d="M394.04,194.65c-22,.58-86.83-13.89-83.12-40.11,5.73-40.58,157.35-82.92,189.72-83.99,1.5,6.92,3,13.85,4.5,20.77-43.47,7.15-152.44,38.93-162.74,66.27-4.68,17.15,27.29,27.73,51.64,37.05Z"/><path class="cls-3" d="M524.34,52.73c.13-6.39,.25-12.77,.38-19.16-70.07,8.12-190.58,36.15-206.98,94.15,54.03-48.65,147.28-67.09,206.6-74.99Z"/><path class="cls-3" d="M550.78,16.85c.03-5.62,.07-11.23,.1-16.85-63.28,9.42-121.87,27.02-176.31,60.05,61.32-24.88,119.57-38.04,176.21-43.2Z"/></g></g></g></svg>