<svg width="172" height="172" viewBox="0 0 172 172" fill="#FED600" xmlns="http://www.w3.org/2000/svg">
<path d="M90.2949 75.7891C93.3259 73.2857 95.7702 70.2914 97.6768 66.8553C99.5834 63.4193 100.61 59.0996 100.757 53.9946C100.61 49.4786 99.6812 45.4044 97.9702 41.7229C96.2591 38.0414 93.8636 34.8017 90.8815 32.1019C87.8505 29.4021 84.2818 27.2914 80.2241 25.7697C76.1665 24.248 71.5222 23.5117 66.3891 23.5117C62.5759 23.5117 58.6649 24.1989 54.6561 25.5734C50.6474 26.9478 47.1275 29.0094 44.0965 31.7092C41.0655 34.409 38.4745 37.6487 36.3723 41.4284C34.2702 45.2081 33.1458 49.1841 32.9991 53.4056C32.8524 58.5597 33.928 62.9775 36.1768 66.5608C38.4256 70.1932 41.0655 73.2857 44.1943 75.7891C47.2742 78.2925 50.7452 80.256 54.5584 81.6304C58.3716 83.0049 62.3314 83.7903 66.3891 83.8884C71.3755 83.7412 75.8732 83.0049 79.833 81.6304C83.744 80.256 87.2639 78.3416 90.2949 75.7891Z" />
<path d="M124.124 137.933C127.155 135.429 129.6 132.435 131.506 128.999C133.413 125.563 134.439 121.243 134.586 116.138C134.439 111.622 133.511 107.548 131.8 103.866C130.088 100.185 127.693 96.9452 124.711 94.2455C121.68 91.5457 118.111 89.4349 114.053 87.9133C109.996 86.3916 105.352 85.6553 100.218 85.6553C96.4052 85.6553 92.4943 86.3425 88.4855 87.7169C84.4768 89.0913 80.9569 91.153 77.9259 93.8528C74.8949 96.5525 72.3527 99.7923 70.2506 103.572C68.1484 107.352 67.024 111.328 66.8774 115.549C66.7307 120.703 67.8062 125.121 70.055 128.704C72.3039 132.337 74.9438 135.429 78.0725 137.933C81.1524 140.436 84.6234 142.4 88.4366 143.774C92.2498 145.148 96.2097 145.934 100.267 146.032C105.254 145.885 109.751 145.148 113.711 143.774C117.622 142.4 121.093 140.436 124.124 137.933Z" />
<path d="M0 164C0 168.418 3.58172 172 8 172H164C168.418 172 172 168.418 172 164V8C172 3.58173 168.418 0 164 0H8C3.58173 0 0 3.58172 0 8V164ZM149.616 129C147.555 134.35 144.708 139.063 141.075 143.088C137.443 147.113 133.172 150.304 128.313 152.611C123.404 154.918 118.054 156.096 112.261 156.096H47.4178C30.9247 154.378 21.6473 145.935 19.6838 130.718V59.1495C19.9292 52.6701 21.5 46.8779 24.347 41.8219C27.1941 36.7169 30.8756 32.2991 35.3425 28.5685C39.8094 24.7888 44.7671 21.8927 50.1176 19.831C55.468 17.7694 60.8676 16.6404 66.2671 16.3459C78.5388 15.3151 91.0559 16.1986 103.72 19.1438C109.12 20.2237 114.274 22.2363 119.084 25.1815C123.895 28.1758 128.116 31.71 131.749 35.8824C135.381 40.0548 138.13 44.718 140.094 49.8721C142.008 55.0263 142.99 60.1804 142.99 65.3345C142.99 71.5448 141.668 77.3774 138.977 82.8323C138.873 83.0435 138.817 83.2757 138.817 83.5111C138.817 83.9104 138.977 84.2926 139.255 84.5788C146.023 91.5377 150.346 100.519 152.316 111.476C152.562 117.808 151.629 123.65 149.616 129Z" />
</svg>
