<svg width="394" height="75" viewBox="0 0 394 75" fill="none" xmlns="http://www.w3.org/2000/svg">
<path d="M38.8497 33.167C40.1537 32.0814 41.2053 30.7829 42.0256 29.2928C42.8459 27.8027 43.2876 25.9295 43.3507 23.7157C43.2876 21.7573 42.888 19.9905 42.1518 18.394C41.4157 16.7975 40.3851 15.3925 39.1021 14.2218C37.798 13.051 36.2626 12.1357 34.5169 11.4758C32.7712 10.8159 30.773 10.4966 28.5646 10.4966C26.924 10.4966 25.2414 10.7946 23.5167 11.3906C21.792 11.9867 20.2776 12.8807 18.9736 14.0515C17.6696 15.2222 16.5548 16.6272 15.6504 18.2663C14.746 19.9053 14.2622 21.6296 14.1991 23.4602C14.1361 25.6953 14.5988 27.6112 15.5663 29.1651C16.5338 30.7403 17.6696 32.0814 19.0157 33.167C20.3407 34.2526 21.8341 35.1041 23.4746 35.7001C25.1152 36.2962 26.8189 36.6367 28.5646 36.6793C30.7099 36.6155 32.645 36.2962 34.3486 35.7001C36.0313 35.1041 37.5456 34.2739 38.8497 33.167Z" fill="#FED600"/>
<path d="M53.4042 60.1155C54.7083 59.0299 55.7599 57.7314 56.5802 56.2413C57.4005 54.7512 57.8422 52.878 57.9053 50.6642C57.8422 48.7058 57.4425 46.939 56.7064 45.3425C55.9702 43.746 54.9396 42.341 53.6566 41.1703C52.3526 39.9995 50.8172 39.0841 49.0715 38.4243C47.3257 37.7644 45.3276 37.4451 43.1192 37.4451C41.4786 37.4451 39.796 37.7431 38.0713 38.3391C36.3466 38.9351 34.8322 39.8292 33.5282 41C32.2241 42.1707 31.1304 43.5757 30.226 45.2147C29.3216 46.8538 28.8379 48.5781 28.7748 50.4087C28.7117 52.6438 29.1744 54.5596 30.1419 56.1136C31.1094 57.6888 32.2452 59.0299 33.5913 60.1155C34.9164 61.2011 36.4097 62.0526 38.0502 62.6486C39.6908 63.2446 41.3945 63.5852 43.1402 63.6278C45.2855 63.5639 47.2206 63.2446 48.9242 62.6486C50.6069 62.0526 52.1002 61.2011 53.4042 60.1155Z" fill="#FED600"/>
<path d="M0 74.8877H73.6991V0.298828H0V74.8877ZM64.1081 56.2405C63.2248 58.5607 62.0049 60.6043 60.4484 62.3498C58.892 64.0953 57.0621 65.4789 54.9799 66.4794C52.8766 67.4799 50.584 67.9908 48.1021 67.9908H20.3177C13.2507 67.2457 9.27549 63.5844 8.43418 56.9855V25.9494C8.53934 23.1395 9.21239 20.6277 10.4323 18.4352C11.6522 16.2213 13.2297 14.3055 15.1437 12.6877C17.0576 11.0486 19.182 9.79273 21.4745 8.89868C23.7671 8.00464 26.0807 7.51504 28.3944 7.38732C33.6526 6.9403 39.0159 7.32346 44.4424 8.60067C46.756 9.06898 48.9645 9.94174 51.0257 11.2189C53.0869 12.5174 54.8958 14.0501 56.4522 15.8595C58.0086 17.6688 59.1865 19.6911 60.0278 21.9262C60.8481 24.1613 61.2687 26.3964 61.2687 28.6315C61.2687 31.3775 60.6798 33.9532 59.4809 36.3586V36.7844C62.4886 39.8284 64.4026 43.7877 65.265 48.6411C65.3701 51.3871 64.9705 53.9202 64.1081 56.2405Z" fill="#FED600"/>
<g clip-path="url(#clip0_1535_43529)">
<path d="M123.853 34.3578C125.34 32.7303 126.104 30.7812 126.104 28.5509C126.104 26.8028 125.722 25.2556 124.939 24.0098C124.175 22.7439 123.13 21.7192 121.824 20.9155C120.518 20.1318 119.031 19.5491 117.404 19.1673C115.776 18.8057 114.068 18.6047 112.34 18.6047H111.376C111.034 18.6047 110.712 18.6047 110.371 18.6248L104.202 18.7454C103.539 18.7655 102.956 19.0066 102.474 19.4888C101.992 19.9711 101.751 20.5538 101.751 21.237L101.791 50.131C101.791 50.8142 102.032 51.3969 102.535 51.8792C103.017 52.3614 103.62 52.6226 104.283 52.6226L116.198 52.6025C118.388 52.5623 120.337 52.1203 122.025 51.3165C123.713 50.5128 125.059 49.3273 126.024 47.7801C126.988 46.233 127.47 44.3241 127.47 42.0737C127.47 40.3456 127.109 38.7784 126.425 37.4723C125.762 36.2064 124.898 35.1616 123.853 34.3578ZM106.774 47.5993L106.754 37.412L115.736 37.2714H116.037C117.926 37.2714 119.493 37.6129 120.719 38.276C121.904 38.919 122.507 40.1648 122.507 41.9732C122.507 44.0026 121.945 45.4694 120.86 46.3133C119.754 47.1572 118.147 47.5993 116.097 47.6395L106.774 47.5993ZM120.357 30.8616C119.835 31.384 119.152 31.7457 118.328 31.9467C117.484 32.1677 116.58 32.2681 115.655 32.2882L106.754 32.4289L106.734 23.6883L110.471 23.628C110.692 23.628 110.913 23.628 111.155 23.608C111.396 23.608 111.617 23.608 111.838 23.608C113.284 23.608 114.751 23.7486 116.198 24.0299C117.625 24.3112 118.81 24.8135 119.754 25.557C120.679 26.2804 121.141 27.3453 121.141 28.7116C121.121 29.6359 120.86 30.3593 120.357 30.8616Z" fill="black"/>
<path d="M154.915 26.4609C154.232 26.4609 153.689 26.7021 153.287 27.2044C152.885 27.6866 152.685 28.2693 152.685 28.9324L152.464 30.781C152.042 30.1581 151.459 29.5352 150.715 28.9525C149.831 28.2492 148.827 27.6665 147.722 27.2044C146.616 26.7422 145.451 26.5011 144.265 26.5011C142.417 26.5011 140.689 26.8628 139.122 27.5862C137.554 28.3095 136.168 29.2941 134.982 30.56C133.817 31.8057 132.893 33.2525 132.23 34.8599C131.567 36.4473 131.245 38.1552 131.245 39.9033C131.245 41.6715 131.587 43.3594 132.25 44.9668C132.913 46.5542 133.857 47.9808 135.043 49.2065C136.228 50.4322 137.615 51.4168 139.182 52.12C140.749 52.8233 142.437 53.185 144.225 53.185C145.813 53.185 147.42 52.8434 149.008 52.1602C150.454 51.5172 151.62 50.5728 152.423 49.3271L152.624 50.7939C152.624 51.4569 152.825 52.0597 153.227 52.542C153.629 53.0443 154.171 53.2854 154.875 53.2854C155.558 53.2854 156.141 53.0443 156.623 52.542C157.105 52.0597 157.366 51.4569 157.366 50.7939L157.406 29.0128V28.9525C157.406 28.2693 157.165 27.6866 156.663 27.2044C156.181 26.7222 155.598 26.4609 154.915 26.4609ZM144.265 48.1617C142.799 48.1617 141.432 47.7799 140.227 47.0163C139.001 46.2528 138.016 45.228 137.313 43.9622C136.59 42.6963 136.228 41.3099 136.228 39.823C136.228 38.3561 136.59 36.9697 137.293 35.7038C137.996 34.438 138.961 33.4132 140.187 32.6497C141.392 31.8861 142.759 31.5043 144.265 31.5043C145.793 31.5043 147.179 31.8861 148.365 32.6497C149.55 33.4132 150.514 34.438 151.218 35.7038C151.921 36.9697 152.263 38.3561 152.263 39.8631C152.263 41.3299 151.901 42.7164 151.198 43.9823C150.474 45.2481 149.51 46.2729 148.304 47.0364C147.079 47.7799 145.732 48.1617 144.265 48.1617Z" fill="black"/>
<path d="M181.961 32.1472C181.318 30.7005 180.294 29.3944 178.907 28.3094C177.521 27.1842 175.773 26.6417 173.703 26.6417C172.116 26.6417 170.709 27.0636 169.504 27.8874C168.398 28.651 167.434 29.4145 166.61 30.1982L166.269 29.0127C166.068 28.3697 165.806 27.787 165.445 27.3047C165.083 26.8024 164.541 26.5613 163.857 26.5613C163.174 26.5613 162.632 26.8024 162.25 27.3047C161.888 27.787 161.687 28.3697 161.687 29.0528L161.727 50.633C161.727 51.3363 161.969 51.919 162.451 52.4213C162.933 52.9035 163.536 53.1647 164.219 53.1647C164.902 53.1647 165.485 52.9236 165.967 52.4414C166.449 51.9591 166.711 51.3563 166.711 50.6732L166.69 41.3097C166.67 38.356 167.293 35.9649 168.499 34.2369C169.704 32.5089 171.473 31.6449 173.723 31.6449C174.647 31.6449 175.431 31.9061 176.034 32.4285C176.637 32.9509 177.099 33.5537 177.38 34.2168C177.641 34.7995 177.822 35.4827 177.903 36.2462C177.983 37.0299 178.023 37.8939 178.023 38.7981V50.6531C178.023 51.3363 178.264 51.919 178.767 52.4213C179.249 52.9035 179.852 53.1446 180.535 53.1446C181.218 53.1446 181.801 52.9035 182.283 52.4213C182.765 51.9391 183.026 51.3363 183.026 50.6531V38.7981C183.026 37.8135 182.966 36.7486 182.866 35.6233C182.765 34.4579 182.464 33.2925 181.961 32.1472Z" fill="black"/>
<path d="M209.41 26.4609C208.727 26.4609 208.184 26.7021 207.783 27.2044C207.381 27.6866 207.18 28.2693 207.18 28.9324L206.959 30.781C206.537 30.1581 205.954 29.5352 205.211 28.9525C204.347 28.2492 203.322 27.6665 202.217 27.2044C201.112 26.7422 199.946 26.5011 198.781 26.5011C196.932 26.5011 195.204 26.8628 193.637 27.5862C192.07 28.3095 190.683 29.2941 189.498 30.56C188.332 31.8057 187.408 33.2525 186.745 34.8599C186.082 36.4473 185.76 38.1552 185.76 39.9033C185.76 41.6715 186.102 43.3594 186.765 44.9668C187.428 46.5542 188.372 47.9808 189.558 49.2065C190.743 50.4322 192.13 51.4168 193.697 52.12C195.264 52.8233 196.952 53.185 198.741 53.185C200.328 53.185 201.935 52.8434 203.523 52.1602C204.969 51.5172 206.135 50.5728 206.939 49.3271L207.14 50.7939C207.14 51.4569 207.34 52.0597 207.742 52.542C208.144 53.0443 208.687 53.2854 209.39 53.2854C210.073 53.2854 210.656 53.0443 211.138 52.542C211.62 52.0597 211.882 51.4569 211.882 50.7939L211.922 29.053V28.9525C211.922 28.2693 211.681 27.6866 211.178 27.2044C210.676 26.7222 210.093 26.4609 209.41 26.4609ZM198.761 48.1617C197.294 48.1617 195.927 47.7799 194.722 47.0163C193.496 46.2528 192.512 45.228 191.808 43.9622C191.085 42.6963 190.723 41.3099 190.723 39.823C190.723 38.3561 191.085 36.9697 191.788 35.7038C192.492 34.438 193.456 33.4132 194.682 32.6497C195.887 31.8861 197.254 31.5043 198.761 31.5043C200.288 31.5043 201.674 31.8861 202.86 32.6497C204.065 33.4132 205.01 34.438 205.713 35.7038C206.416 36.9697 206.758 38.3561 206.758 39.8631C206.758 41.3299 206.396 42.7164 205.693 43.9823C204.969 45.2481 204.005 46.2729 202.799 47.0364C201.574 47.7799 200.227 48.1617 198.761 48.1617Z" fill="black"/>
<path d="M236.437 32.1472C235.794 30.7005 234.769 29.3944 233.383 28.3094C232.016 27.1842 230.268 26.6417 228.199 26.6417C226.611 26.6417 225.205 27.0636 223.999 27.8874C222.894 28.651 221.93 29.4145 221.106 30.1982L220.764 29.0127C220.563 28.3697 220.302 27.787 219.94 27.3047C219.579 26.8024 219.036 26.5613 218.353 26.5613C217.67 26.5613 217.127 26.8024 216.746 27.3047C216.384 27.787 216.183 28.3697 216.183 29.0528L216.223 50.633C216.223 51.3363 216.464 51.919 216.946 52.4213C217.429 52.9035 218.031 53.1647 218.715 53.1647C219.398 53.1647 219.981 52.9236 220.463 52.4414C220.945 51.9591 221.206 51.3563 221.206 50.6732L221.186 41.3097C221.166 38.356 221.789 35.9649 222.995 34.2369C224.2 32.5089 225.968 31.6449 228.219 31.6449C229.143 31.6449 229.927 31.9061 230.529 32.4285C231.132 32.9509 231.594 33.5537 231.876 34.2168C232.137 34.7995 232.318 35.4827 232.398 36.2462C232.479 37.0299 232.519 37.8939 232.519 38.7981V50.6531C232.519 51.3363 232.76 51.919 233.262 52.4213C233.744 52.9035 234.347 53.1446 235.03 53.1446C235.714 53.1446 236.296 52.9035 236.778 52.4213C237.261 51.9391 237.522 51.3363 237.522 50.6531V38.7981C237.522 37.8135 237.462 36.7486 237.361 35.6233C237.261 34.4579 236.959 33.2925 236.437 32.1472Z" fill="black"/>
<path d="M264.871 26.4609C264.188 26.4609 263.645 26.7021 263.243 27.2044C262.841 27.6866 262.641 28.2693 262.641 28.9324L262.419 30.781C261.998 30.1581 261.415 29.5352 260.671 28.9525C259.787 28.2492 258.783 27.6665 257.677 27.2044C256.572 26.7422 255.407 26.5011 254.242 26.5011C252.393 26.5011 250.665 26.8628 249.098 27.5862C247.53 28.3095 246.144 29.2941 244.958 30.56C243.793 31.8057 242.869 33.2525 242.206 34.8599C241.543 36.4473 241.221 38.1552 241.221 39.9033C241.221 41.6715 241.563 43.3594 242.226 44.9668C242.889 46.5542 243.833 47.9808 245.019 49.2065C246.204 50.4322 247.591 51.4168 249.158 52.12C250.725 52.8233 252.413 53.185 254.201 53.185C255.789 53.185 257.396 52.8434 258.984 52.1602C260.43 51.5172 261.596 50.5728 262.399 49.3271L262.6 50.7939C262.6 51.4569 262.801 52.0597 263.203 52.542C263.605 53.0443 264.147 53.2854 264.851 53.2854C265.534 53.2854 266.117 53.0443 266.599 52.542C267.081 52.0597 267.342 51.4569 267.342 50.7939L267.383 29.053V28.9525C267.383 28.2693 267.141 27.6866 266.639 27.2044C266.137 26.7222 265.534 26.4609 264.871 26.4609ZM254.201 48.1617C252.735 48.1617 251.368 47.7799 250.163 47.0163C248.937 46.2528 247.952 45.228 247.249 43.9622C246.526 42.6963 246.164 41.3099 246.164 39.823C246.164 38.3561 246.526 36.9697 247.229 35.7038C247.932 34.438 248.897 33.4132 250.122 32.6497C251.328 31.8861 252.694 31.5043 254.201 31.5043C255.728 31.5043 257.115 31.8861 258.3 32.6497C259.506 33.4132 260.45 34.438 261.154 35.7038C261.857 36.9697 262.198 38.3561 262.198 39.8631C262.198 41.3299 261.837 42.7164 261.134 43.9823C260.41 45.2481 259.446 46.2729 258.24 47.0364C257.034 47.7799 255.668 48.1617 254.201 48.1617Z" fill="black"/>
<path d="M298.542 19.7495C296.654 19.006 294.544 18.6243 292.253 18.6243L284.859 18.6645C284.055 18.6845 283.452 18.9859 283.03 19.5486C282.609 20.1112 282.408 20.6336 282.408 21.0756L282.448 50.5123C282.448 51.1753 282.689 51.758 283.191 52.2202C283.673 52.6823 284.276 52.9234 284.939 52.9234C285.623 52.9234 286.205 52.7024 286.687 52.2403C287.17 51.7781 287.431 51.2155 287.431 50.5323L287.411 40.3652L291.249 40.2647C293.821 40.1843 296.151 39.7624 298.161 39.0189C300.19 38.2554 301.818 37.0498 302.983 35.4222C304.148 33.7947 304.751 31.6246 304.751 28.9522C304.751 26.6214 304.189 24.6522 303.063 23.1452C301.958 21.6583 300.431 20.513 298.542 19.7495ZM287.391 35.3619L287.371 23.6275H292.093C294.504 23.6275 296.393 24.0494 297.759 24.8934C299.085 25.7172 299.768 27.1036 299.768 28.9924C299.768 31.3835 299.025 33.0311 297.538 33.875C296.031 34.7391 293.881 35.2012 291.168 35.2615L287.391 35.3619Z" fill="black"/>
<path d="M348.758 27.144C347.713 26.7823 346.367 26.5814 344.759 26.5814C343.875 26.5814 343.011 26.8024 342.208 27.2445C341.404 27.6865 340.701 28.1888 340.118 28.7916C339.696 29.2136 339.354 29.6155 339.133 29.9771L338.953 28.6912C338.752 27.9276 338.39 27.365 337.888 27.0435C337.385 26.722 336.943 26.5613 336.561 26.5613C335.918 26.5613 335.376 26.8024 334.994 27.3047C334.632 27.787 334.432 28.3898 334.432 29.1332V50.7535C334.432 51.497 334.653 52.0998 335.115 52.5218C335.557 52.9437 336.18 53.1647 336.923 53.1647C337.687 53.1647 338.31 52.9437 338.752 52.5218C339.194 52.0797 339.415 51.497 339.415 50.7736V38.6574C339.415 37.2308 339.595 35.9046 339.917 34.7593C340.259 33.614 340.821 32.6897 341.585 32.0266C342.348 31.3636 343.413 31.022 344.739 31.022C345.402 31.022 346.066 31.1827 346.709 31.5042C347.412 31.8458 347.994 32.0065 348.457 31.9463C349.743 31.8056 350.386 31.0421 350.386 29.7159C350.406 28.3898 349.863 27.5258 348.758 27.144Z" fill="black"/>
<path d="M365.916 47.0974C365.654 47.0974 365.373 47.1577 365.092 47.2582C364.811 47.3587 364.589 47.4792 364.389 47.6199C363.906 47.9615 363.324 48.1423 362.681 48.1423C362.198 48.1423 361.897 48.0217 361.756 47.7806C361.596 47.5194 361.515 47.0171 361.515 46.2736L361.535 31.8467H364.569C365.212 31.8467 365.775 31.6055 366.237 31.1434C366.699 30.6813 366.94 30.1186 366.94 29.4757C366.94 28.8327 366.699 28.2701 366.237 27.8079C365.775 27.3458 365.212 27.1047 364.569 27.1047H361.575V22.5636C361.575 21.8804 361.334 21.2977 360.832 20.8155C360.35 20.3332 359.747 20.072 359.064 20.072C358.381 20.072 357.778 20.3131 357.296 20.8155C356.813 21.2977 356.572 21.9005 356.572 22.5636V27.1047H353.659C353.016 27.1047 352.453 27.3458 351.991 27.8079C351.529 28.2701 351.288 28.8327 351.288 29.4757C351.288 30.1186 351.529 30.6813 351.991 31.1434C352.453 31.6055 353.016 31.8467 353.659 31.8467H356.532L356.512 46.4143V46.6353C356.512 48.4839 357.055 50.0311 358.14 51.2768C359.225 52.5226 360.792 53.1455 362.801 53.1455C363.685 53.1455 364.529 52.9848 365.313 52.6834C366.096 52.382 366.78 52.0002 367.382 51.5381C368.046 51.0357 368.387 50.3726 368.387 49.5689C368.387 48.8857 368.146 48.303 367.644 47.8208C367.182 47.3386 366.599 47.0974 365.916 47.0974Z" fill="black"/>
<path d="M392.583 41.3319C392.021 40.4478 391.237 39.7446 390.293 39.2422C389.348 38.7399 388.303 38.3581 387.158 38.0969C386.033 37.8357 384.867 37.6549 383.722 37.5142C383.119 37.4539 382.356 37.3736 381.411 37.2932C380.487 37.2128 379.543 37.0722 378.618 36.8913C377.714 36.7105 376.931 36.4493 376.308 36.0876C375.725 35.7661 375.424 35.3241 375.424 34.7815C375.424 33.9979 375.785 33.3951 376.509 32.933C377.252 32.4507 378.156 32.1091 379.181 31.8881C380.206 31.6671 381.15 31.5666 381.974 31.5666C383.36 31.5666 384.586 31.8077 385.591 32.29C386.595 32.7521 387.359 33.4755 387.841 34.3998C388.022 34.7614 388.344 35.0829 388.766 35.3642C389.208 35.6255 389.63 35.7661 390.052 35.7661C390.735 35.7661 391.317 35.525 391.82 35.0227C392.302 34.5404 392.543 33.9376 392.543 33.2745C392.543 32.8325 392.443 32.4306 392.242 32.089C391.358 30.4213 389.971 29.055 388.123 28.0704C386.294 27.0858 384.224 26.5835 381.954 26.5835C380.628 26.5835 379.282 26.7442 377.935 27.0657C376.589 27.3872 375.323 27.8695 374.198 28.5325C373.053 29.1956 372.128 30.0395 371.445 31.0844C370.742 32.1292 370.4 33.375 370.4 34.8016C370.4 36.389 370.802 37.6951 371.606 38.6595C372.39 39.6039 373.454 40.3474 374.72 40.8698C375.986 41.3721 377.373 41.7338 378.839 41.9749C380.306 42.1959 381.753 42.3768 383.119 42.5375C383.843 42.6179 384.626 42.6983 385.45 42.7987C386.274 42.8992 386.977 43.0801 387.56 43.3815C388.123 43.6628 388.384 44.1048 388.384 44.7478C388.384 45.5917 388.062 46.2548 387.399 46.737C386.716 47.2394 385.872 47.601 384.888 47.802C383.903 48.0029 382.918 48.1235 381.994 48.1235C380.246 48.1235 378.739 47.8622 377.493 47.3398C376.268 46.8174 375.323 45.9735 374.74 44.8282C374.56 44.4464 374.238 44.1048 373.796 43.8436C373.354 43.5623 372.912 43.4417 372.49 43.4417C371.807 43.4417 371.224 43.6828 370.742 44.1651C370.26 44.6473 369.998 45.2501 369.998 45.9333C369.998 46.3151 370.099 46.7169 370.3 47.0987C371.304 49.0477 372.892 50.5748 375.002 51.5795C377.111 52.5842 379.462 53.1066 382.034 53.1066C383.903 53.1066 385.711 52.8052 387.439 52.2225C389.167 51.6398 390.594 50.7356 391.699 49.5099C392.804 48.2842 393.387 46.6767 393.387 44.7679C393.447 43.3413 393.166 42.216 392.583 41.3319Z" fill="black"/>
<path d="M332.22 28.6333C332.22 27.9501 331.979 27.3674 331.477 26.8852C330.994 26.4029 330.392 26.1417 329.729 26.1417C329.045 26.1417 328.483 26.3828 328.081 26.8852C328.021 26.9655 327.98 27.0459 327.92 27.1263V29.2964L327.036 28.4123C326.252 27.6286 325.007 27.6286 324.223 28.4123L322.214 30.4216V27.5683C322.214 26.4632 321.33 25.5791 320.224 25.5791H316.869C315.764 25.5791 314.88 26.4632 314.88 27.5683V30.4015L312.89 28.3922C312.107 27.6085 310.861 27.6085 310.077 28.3922L307.706 30.7632C306.923 31.5468 306.923 32.7926 307.706 33.5762L309.716 35.5855H306.882C305.777 35.5855 304.893 36.4696 304.893 37.5748V40.9303C304.893 42.0355 305.777 42.9196 306.882 42.9196H309.716L307.706 44.9289C306.923 45.7125 306.923 46.9583 307.706 47.742L310.077 50.113C310.861 50.8966 312.107 50.8966 312.89 50.113L314.88 48.1036V50.9368C314.88 52.0419 315.764 52.926 316.869 52.926H320.224C321.33 52.926 322.214 52.0419 322.214 50.9368V48.1036L324.223 50.113C325.007 50.8966 326.252 50.8966 327.036 50.113L327.92 49.2289V52.0218C327.96 52.0821 328.001 52.1424 328.041 52.1826C328.443 52.6849 329.005 52.926 329.688 52.926C330.372 52.926 330.954 52.6849 331.457 52.1826C331.939 51.7003 332.18 51.0975 332.18 50.4345L332.2 41.2117C332.22 41.1313 332.22 41.0308 332.22 40.9504V37.5748C332.22 37.5145 332.2 37.4542 332.2 37.3939L332.22 28.6936V28.6333ZM318.557 44.6476C315.563 44.6476 313.152 42.2364 313.152 39.2425C313.152 36.2486 315.583 33.8374 318.557 33.8374C321.551 33.8374 323.962 36.2687 323.962 39.2425C323.962 42.2163 321.551 44.6476 318.557 44.6476Z" fill="black"/>
</g>
<defs>
<rect width="291.694" height="34.6408" fill="white" transform="translate(101.75 18.604)"/>
</defs>
</svg>
