<svg width="910" height="910" viewBox="0 0 910 910" fill="none" xmlns="http://www.w3.org/2000/svg">
<path d="M0 454.667V909.333H454.667H909.333V454.667V0.000115335H454.667H0V454.667ZM437.333 85.3335C483.6 88.2668 547.067 98.8001 577.333 108.933C620.4 123.2 666.133 154.533 697.2 191.2C723.867 222.667 742.8 261.867 750.667 302C754.8 322.667 755.733 354.533 752.8 374.133C749.867 393.867 746.4 406.933 739.2 424.667C736 432.8 733.333 440.533 733.333 441.733C733.333 443.067 737.6 449.067 742.8 455.067C769.067 485.333 787.6 521.2 798.933 564.133C803.2 580 803.333 581.6 803.333 605.333C803.2 625.333 802.667 632.8 800.267 645.067C794.133 675.333 782.533 703.2 764.4 730.667C751.2 750.4 725.067 777.067 706.667 789.2C683.733 804.533 661.067 814.267 634.933 820.267L622 823.2L434.667 823.733C265.467 824.133 246 823.867 234 821.867C195.467 815.6 167.2 802.133 144.533 779.467C126.933 761.733 116.133 742.133 108.133 713.467L104.667 700.667V498C104.667 273.2 104.133 287.067 113.467 256.667C127.867 209.733 165.2 162.8 213.467 131.067C237.867 115.067 268.133 101.867 297.067 94.5335C331.333 85.8668 386.4 82.2668 437.333 85.3335Z" fill="black"/>
<path d="M330 124.8C299.6 129.2 268.133 141.333 246.267 157.067C232.667 166.8 212.133 188.267 202.4 202.8C181.733 233.6 173.333 261.6 175.067 294.533C176.133 313.867 179.6 327.867 187.2 343.333C203.2 375.467 238.533 409.2 272.4 424.667C304 438.933 337.333 445.333 367.733 442.667C419.067 438.133 459.6 420.667 490.8 389.467C503.067 377.067 517.733 356.133 523.067 343.2C541.467 299.2 536.667 245.6 510.533 203.2C501.733 188.8 478.533 164.8 464.4 155.6C444.533 142.4 422.133 133.2 397.067 127.733C387.733 125.733 378.4 125.067 359.333 124.667C345.467 124.4 332.267 124.533 330 124.8Z" fill="black"/>
<path d="M511.333 452.934C483.2 456.4 450.267 468.4 428.667 483.067C418.267 490.267 397.867 510 388.667 521.867C365.2 552.534 354.667 581.334 354.667 614.8C354.667 643.867 360.8 664.267 376.4 687.867C399.2 722 433.467 747.6 474.533 761.334C496.933 768.8 511.6 771.2 534.667 771.067C624.4 770.4 698.267 716 711.6 640.8C721.467 584.934 698.8 526.134 654.133 491.467C619.467 464.534 579.2 451.6 532 452.267C522.8 452.267 513.6 452.667 511.333 452.934Z" fill="black"/>
</svg>
