<svg width="16" height="16" viewBox="0 0 16 16" fill="none" xmlns="http://www.w3.org/2000/svg">
<path fill-rule="evenodd" clip-rule="evenodd" d="M2.31743 2.4847C3.0326 1.48346 4.49921 1.42329 5.294 2.36258L6.56509 3.86478C6.93379 4.30051 6.98424 4.92259 6.69057 5.41203L5.71138 7.04402C5.78987 7.17248 5.89624 7.32576 6.03231 7.50059C6.27495 7.81236 6.585 8.15848 6.93076 8.50424C7.51303 9.08651 8.1649 9.63631 8.72602 10.0078L10.3262 9.04771C10.8157 8.75405 11.4378 8.80449 11.8735 9.17319L13.4482 10.5056C14.3507 11.2693 14.2929 12.6785 13.3309 13.3657C11.8473 14.4254 9.85331 14.6774 8.21966 13.6803C7.09345 12.993 5.71345 12.0226 4.47885 10.788C3.33427 9.64344 2.49972 8.45693 1.91765 7.46994C0.95879 5.84404 1.29573 3.91508 2.31743 2.4847ZM4.27616 3.22384C4.04285 2.94812 3.61234 2.96578 3.40241 3.25969C2.60813 4.37168 2.4379 5.72734 3.06614 6.79263C3.60371 7.70418 4.37237 8.79592 5.42166 9.84522C6.55789 10.9814 7.84433 11.8892 8.91427 12.5422C10.0168 13.2151 11.431 13.0841 12.5559 12.2807C12.8106 12.0987 12.8259 11.7257 12.5869 11.5235L11.0122 10.191L9.06449 11.3597C8.85828 11.4834 8.60142 11.4865 8.3923 11.3677C7.62676 10.933 6.73197 10.1911 5.98795 9.44704C5.6123 9.0714 5.26369 8.6839 4.98009 8.31951C4.70439 7.96526 4.46038 7.59539 4.32918 7.25908C4.25419 7.06685 4.27243 6.85073 4.37859 6.67379L5.54725 4.72604L4.27616 3.22384Z" fill="#6D7684"/>
</svg>
