<svg width="16" height="16" viewBox="0 0 16 16" fill="none" xmlns="http://www.w3.org/2000/svg">
<path fill-rule="evenodd" clip-rule="evenodd" d="M0.666016 4C0.666016 2.89543 1.56145 2 2.66602 2H13.3327C14.4373 2 15.3327 2.89543 15.3327 4V12C15.3327 13.1046 14.4373 14 13.3327 14H2.66602C1.56145 14 0.666016 13.1046 0.666016 12V4ZM2.66602 3.33333C2.29783 3.33333 1.99935 3.63181 1.99935 4V4.95587L7.99935 8.55587L13.9993 4.95587V4C13.9993 3.63181 13.7009 3.33333 13.3327 3.33333H2.66602ZM13.9993 6.51079L8.68534 9.6992C8.2631 9.95254 7.7356 9.95254 7.31335 9.6992L1.99935 6.51079V12C1.99935 12.3682 2.29783 12.6667 2.66602 12.6667H13.3327C13.7009 12.6667 13.9993 12.3682 13.9993 12V6.51079Z" fill="#6D7684"/>
</svg>
