<svg width="17" height="16" viewBox="0 0 17 16" fill="none" xmlns="http://www.w3.org/2000/svg">
<path d="M4.5 5.9987V1.33203H12.5V5.9987" stroke="#6D7684" stroke-width="1.3" stroke-linecap="round" stroke-linejoin="round"/>
<path d="M4.50065 12H3.16732C2.8137 12 2.47456 11.8595 2.22451 11.6095C1.97446 11.3594 1.83398 11.0203 1.83398 10.6667V7.33333C1.83398 6.97971 1.97446 6.64057 2.22451 6.39052C2.47456 6.14048 2.8137 6 3.16732 6H13.834C14.1876 6 14.5267 6.14048 14.7768 6.39052C15.0268 6.64057 15.1673 6.97971 15.1673 7.33333V10.6667C15.1673 11.0203 15.0268 11.3594 14.7768 11.6095C14.5267 11.8595 14.1876 12 13.834 12H12.5007" stroke="#6D7684" stroke-width="1.3" stroke-linecap="round" stroke-linejoin="round"/>
<path d="M12.5 9.33203H4.5V14.6654H12.5V9.33203Z" stroke="#6D7684" stroke-width="1.3" stroke-linecap="round" stroke-linejoin="round"/>
</svg>
