<svg width="24" height="24" viewBox="0 0 24 24" fill="none" xmlns="http://www.w3.org/2000/svg">
<path d="M0 4C0 1.79086 1.79086 0 4 0H20C22.2091 0 24 1.79086 24 4V20C24 22.2091 22.2091 24 20 24H4C1.79086 24 0 22.2091 0 20V4Z" fill="#FED600" fill-opacity="0.2"/>
<path d="M18 12.157C18 15.0051 15.3137 17.314 12 17.314C11.3874 17.314 10.7963 17.2351 10.2396 17.0885C9.80174 17.3065 8.7958 17.7254 7.10379 17.9975C6.95453 18.0215 6.84027 17.8681 6.89923 17.7313C7.16481 17.115 7.40438 16.2945 7.47734 15.5459C6.5573 14.6397 6 13.4543 6 12.157C6 9.30887 8.68629 7 12 7C15.3137 7 18 9.30887 18 12.157ZM9.375 9.94686C9.16789 9.94686 9 10.1118 9 10.3152C9 10.5187 9.16789 10.6836 9.375 10.6836H14.625C14.8321 10.6836 15 10.5187 15 10.3152C15 10.1118 14.8321 9.94686 14.625 9.94686H9.375ZM9.375 11.7886C9.16789 11.7886 9 11.9536 9 12.157C9 12.3604 9.16789 12.5254 9.375 12.5254H14.625C14.8321 12.5254 15 12.3604 15 12.157C15 11.9536 14.8321 11.7886 14.625 11.7886H9.375ZM9.375 13.6304C9.16789 13.6304 9 13.7954 9 13.9988C9 14.2022 9.16789 14.3672 9.375 14.3672H12.375C12.5821 14.3672 12.75 14.2022 12.75 13.9988C12.75 13.7954 12.5821 13.6304 12.375 13.6304H9.375Z" fill="#FED600"/>
</svg>
