<svg width="259" height="31" viewBox="0 0 259 31" fill="none" xmlns="http://www.w3.org/2000/svg">

<path d="M19.6253 13.9875C20.9455 12.5423 21.6235 10.8117 21.6235 8.83137C21.6235 7.27919 21.2845 5.90542 20.5887 4.79927C19.9107 3.67528 18.983 2.76538 17.8233 2.05173C16.6636 1.35593 15.3434 0.838534 13.8983 0.499552C12.4531 0.178411 10.9366 0 9.40229 0H8.54591C8.24261 0 7.95715 0 7.65385 0.0178411L2.17662 0.124888C1.58786 0.142729 1.07047 0.356823 0.642281 0.785011C0.214094 1.2132 0 1.73059 0 2.33719L0.0356823 27.9928C0.0356823 28.5994 0.249776 29.1168 0.695805 29.5449C1.12399 29.9731 1.65923 30.2051 2.24798 30.2051L12.8278 30.1872C14.7725 30.1515 16.5031 29.759 18.0017 29.0454C19.5004 28.3317 20.6957 27.2791 21.5521 25.9053C22.4085 24.5316 22.8367 22.8367 22.8367 20.8385C22.8367 19.3041 22.5155 17.9125 21.9089 16.7528C21.3202 15.6288 20.553 14.7011 19.6253 13.9875ZM4.46029 25.7448L4.44245 16.6993L12.4174 16.5744H12.6851C14.3621 16.5744 15.7537 16.8777 16.842 17.4665C17.8947 18.0374 18.4299 19.1436 18.4299 20.7493C18.4299 22.5512 17.9304 23.8536 16.9669 24.6029C15.9857 25.3523 14.5584 25.7448 12.7386 25.7805L4.46029 25.7448ZM16.5209 10.8831C16.057 11.347 15.4504 11.6681 14.7189 11.8465C13.9696 12.0428 13.1668 12.132 12.3461 12.1498L4.44245 12.2747L4.42461 4.51381L7.74306 4.46029C7.93931 4.46029 8.13556 4.46029 8.34966 4.44245C8.56375 4.44245 8.76 4.44245 8.95626 4.44245C10.2408 4.44245 11.5432 4.56733 12.8278 4.81711C14.0945 5.06689 15.1471 5.51292 15.9857 6.17304C16.8064 6.81532 17.2167 7.7609 17.2167 8.9741C17.1989 9.79479 16.9669 10.4371 16.5209 10.8831Z" fill="black"/>
<path d="M47.2083 6.97656C46.6017 6.97656 46.12 7.19066 45.7631 7.63669C45.4063 8.06487 45.2279 8.58227 45.2279 9.17102L45.0317 10.8124C44.657 10.2593 44.1396 9.70626 43.4795 9.18887C42.6945 8.56443 41.8024 8.04703 40.8211 7.63669C39.8399 7.22634 38.8051 7.01224 37.7525 7.01224C36.1111 7.01224 34.5767 7.33339 33.1851 7.97567C31.7935 8.61795 30.5625 9.49217 29.5099 10.6162C28.4751 11.7223 27.6544 13.0069 27.0656 14.4342C26.4769 15.8436 26.1914 17.3601 26.1914 18.9123C26.1914 20.4823 26.4947 21.981 27.0835 23.4083C27.6722 24.8177 28.5108 26.0844 29.5634 27.1728C30.616 28.2611 31.847 29.1353 33.2387 29.7597C34.6303 30.3842 36.1289 30.7053 37.7168 30.7053C39.1262 30.7053 40.5535 30.402 41.963 29.7954C43.2475 29.2245 44.2823 28.386 44.996 27.2798L45.1744 28.5822C45.1744 29.171 45.3528 29.7062 45.7096 30.1344C46.0664 30.5804 46.5482 30.7945 47.1726 30.7945C47.7792 30.7945 48.2966 30.5804 48.7248 30.1344C49.153 29.7062 49.3849 29.171 49.3849 28.5822L49.4206 9.24239V9.18887C49.4206 8.58227 49.2065 8.06487 48.7605 7.63669C48.3323 7.2085 47.8149 6.97656 47.2083 6.97656ZM37.7525 26.245C36.4501 26.245 35.2369 25.906 34.1664 25.2281C33.0781 24.5501 32.2039 23.6402 31.5794 22.5162C30.9372 21.3922 30.616 20.1612 30.616 18.8409C30.616 17.5385 30.9372 16.3075 31.5616 15.1835C32.186 14.0595 33.0424 13.1496 34.1307 12.4716C35.2012 11.7937 36.4144 11.4547 37.7525 11.4547C39.1084 11.4547 40.3394 11.7937 41.3921 12.4716C42.4447 13.1496 43.3011 14.0595 43.9255 15.1835C44.5499 16.3075 44.8532 17.5385 44.8532 18.8766C44.8532 20.179 44.5321 21.4101 43.9077 22.5341C43.2654 23.658 42.409 24.5679 41.3385 25.2459C40.2502 25.906 39.0549 26.245 37.7525 26.245Z" fill="black"/>
<path d="M71.2224 12.0243C70.6515 10.7397 69.7416 9.58006 68.5106 8.61663C67.2795 7.61753 65.7274 7.13582 63.8897 7.13582C62.4803 7.13582 61.2314 7.51048 60.1609 8.24197C59.1797 8.91993 58.3233 9.5979 57.5918 10.2937L57.2885 9.24107C57.1101 8.67016 56.8781 8.15276 56.557 7.72458C56.2359 7.27855 55.7541 7.06445 55.1475 7.06445C54.5409 7.06445 54.0592 7.27855 53.7203 7.72458C53.3991 8.15276 53.2207 8.67016 53.2207 9.27676L53.2564 28.4382C53.2564 29.0626 53.4705 29.58 53.8987 30.026C54.3269 30.4542 54.8621 30.6861 55.4687 30.6861C56.0753 30.6861 56.5927 30.472 57.0209 30.0439C57.4491 29.6157 57.681 29.0804 57.681 28.4738L57.6632 20.1599C57.6453 17.5372 58.1984 15.4141 59.2689 13.8798C60.3393 12.3454 61.9093 11.5783 63.9076 11.5783C64.7282 11.5783 65.4241 11.8102 65.9593 12.2741C66.4945 12.7379 66.9049 13.2732 67.1546 13.8619C67.3866 14.3793 67.5472 14.9859 67.6185 15.6639C67.6899 16.3597 67.7256 17.1269 67.7256 17.9297V28.456C67.7256 29.0626 67.9397 29.58 68.3857 30.026C68.8139 30.4542 69.3491 30.6683 69.9557 30.6683C70.5623 30.6683 71.0797 30.4542 71.5079 30.026C71.9361 29.5978 72.168 29.0626 72.168 28.456V17.9297C72.168 17.0555 72.1145 16.1099 72.0253 15.1108C71.9361 14.076 71.6685 13.0412 71.2224 12.0243Z" fill="black"/>
<path d="M95.5928 6.97656C94.9862 6.97656 94.5045 7.19066 94.1477 7.63669C93.7908 8.06487 93.6124 8.58227 93.6124 9.17102L93.4162 10.8124C93.0415 10.2593 92.5241 9.70626 91.864 9.18887C91.0968 8.56443 90.1869 8.04703 89.2057 7.63669C88.2244 7.22634 87.1896 7.01224 86.1548 7.01224C84.5134 7.01224 82.9791 7.33339 81.5875 7.97567C80.1959 8.61795 78.9648 9.49217 77.9122 10.6162C76.8774 11.7223 76.0567 13.0069 75.468 14.4342C74.8792 15.8436 74.5938 17.3601 74.5938 18.9123C74.5938 20.4823 74.897 21.981 75.4858 23.4083C76.0746 24.8177 76.9131 26.0844 77.9657 27.1728C79.0184 28.2611 80.2494 29.1353 81.641 29.7597C83.0326 30.3842 84.5313 30.7053 86.1191 30.7053C87.5286 30.7053 88.9559 30.402 90.3653 29.7954C91.6499 29.2245 92.6847 28.386 93.3983 27.2798L93.5767 28.5822C93.5767 29.171 93.7551 29.7062 94.112 30.1344C94.4688 30.5804 94.9505 30.7945 95.5749 30.7945C96.1815 30.7945 96.6989 30.5804 97.1271 30.1344C97.5553 29.7062 97.7873 29.171 97.7873 28.5822L97.8229 9.27807V9.18887C97.8229 8.58227 97.6088 8.06487 97.1628 7.63669C96.7168 7.2085 96.1994 6.97656 95.5928 6.97656ZM86.137 26.245C84.8346 26.245 83.6214 25.906 82.5509 25.2281C81.4626 24.5501 80.5884 23.6402 79.9639 22.5162C79.3217 21.3922 79.0005 20.1612 79.0005 18.8409C79.0005 17.5385 79.3217 16.3075 79.9461 15.1835C80.5705 14.0595 81.4269 13.1496 82.5152 12.4716C83.5857 11.7937 84.7989 11.4547 86.137 11.4547C87.4929 11.4547 88.7239 11.7937 89.7766 12.4716C90.847 13.1496 91.6856 14.0595 92.31 15.1835C92.9345 16.3075 93.2378 17.5385 93.2378 18.8766C93.2378 20.179 92.9166 21.4101 92.2922 22.5341C91.6499 23.658 90.7935 24.5679 89.7231 25.2459C88.6347 25.906 87.4394 26.245 86.137 26.245Z" fill="black"/>
<path d="M119.589 12.0243C119.018 10.7397 118.109 9.58006 116.878 8.61663C115.664 7.61753 114.112 7.13582 112.274 7.13582C110.865 7.13582 109.616 7.51048 108.546 8.24197C107.564 8.91993 106.708 9.5979 105.977 10.2937L105.673 9.24107C105.495 8.67016 105.263 8.15276 104.942 7.72458C104.621 7.27855 104.139 7.06445 103.532 7.06445C102.926 7.06445 102.444 7.27855 102.105 7.72458C101.784 8.15276 101.605 8.67016 101.605 9.27676L101.641 28.4382C101.641 29.0626 101.855 29.58 102.283 30.026C102.712 30.4542 103.247 30.6861 103.853 30.6861C104.46 30.6861 104.977 30.472 105.406 30.0439C105.834 29.6157 106.066 29.0804 106.066 28.4738L106.048 20.1599C106.03 17.5372 106.583 15.4141 107.654 13.8798C108.724 12.3454 110.294 11.5783 112.292 11.5783C113.113 11.5783 113.809 11.8102 114.344 12.2741C114.879 12.7379 115.29 13.2732 115.539 13.8619C115.771 14.3793 115.932 14.9859 116.003 15.6639C116.075 16.3597 116.11 17.1269 116.11 17.9297V28.456C116.11 29.0626 116.324 29.58 116.77 30.026C117.199 30.4542 117.734 30.6683 118.34 30.6683C118.947 30.6683 119.464 30.4542 119.893 30.026C120.321 29.5978 120.553 29.0626 120.553 28.456V17.9297C120.553 17.0555 120.499 16.1099 120.41 15.1108C120.321 14.076 120.053 13.0412 119.589 12.0243Z" fill="black"/>
<path d="M144.835 6.97656C144.228 6.97656 143.747 7.19066 143.39 7.63669C143.033 8.06487 142.855 8.58227 142.855 9.17102L142.658 10.8124C142.284 10.2593 141.766 9.70626 141.106 9.18887C140.321 8.56443 139.429 8.04703 138.448 7.63669C137.467 7.22634 136.432 7.01224 135.397 7.01224C133.756 7.01224 132.221 7.33339 130.83 7.97567C129.438 8.61795 128.207 9.49217 127.154 10.6162C126.12 11.7223 125.299 13.0069 124.71 14.4342C124.121 15.8436 123.836 17.3601 123.836 18.9123C123.836 20.4823 124.139 21.981 124.728 23.4083C125.317 24.8177 126.155 26.0844 127.208 27.1728C128.261 28.2611 129.492 29.1353 130.883 29.7597C132.275 30.3842 133.773 30.7053 135.361 30.7053C136.771 30.7053 138.198 30.402 139.608 29.7954C140.892 29.2245 141.927 28.386 142.64 27.2798L142.819 28.5822C142.819 29.171 142.997 29.7062 143.354 30.1344C143.711 30.5804 144.193 30.7945 144.817 30.7945C145.424 30.7945 145.941 30.5804 146.369 30.1344C146.797 29.7062 147.029 29.171 147.029 28.5822L147.065 9.27807V9.18887C147.065 8.58227 146.851 8.06487 146.405 7.63669C145.959 7.2085 145.424 6.97656 144.835 6.97656ZM135.361 26.245C134.059 26.245 132.846 25.906 131.775 25.2281C130.687 24.5501 129.813 23.6402 129.188 22.5162C128.546 21.3922 128.225 20.1612 128.225 18.8409C128.225 17.5385 128.546 16.3075 129.17 15.1835C129.795 14.0595 130.651 13.1496 131.74 12.4716C132.81 11.7937 134.023 11.4547 135.361 11.4547C136.717 11.4547 137.948 11.7937 139.001 12.4716C140.071 13.1496 140.91 14.0595 141.534 15.1835C142.159 16.3075 142.462 17.5385 142.462 18.8766C142.462 20.179 142.141 21.4101 141.517 22.5341C140.874 23.658 140.018 24.5679 138.947 25.2459C137.877 25.906 136.664 26.245 135.361 26.245Z" fill="black"/>
<path d="M174.737 1.01668C173.06 0.35656 171.186 0.0175781 169.152 0.0175781L162.587 0.0532604C161.873 0.0711016 161.338 0.338719 160.963 0.838271C160.589 1.33782 160.41 1.80169 160.41 2.1942L160.446 28.3315C160.446 28.9202 160.66 29.4376 161.106 29.848C161.534 30.2583 162.069 30.4724 162.658 30.4724C163.265 30.4724 163.782 30.2762 164.21 29.8658C164.639 29.4555 164.87 28.9559 164.87 28.3493L164.853 19.3217L168.26 19.2325C170.544 19.1611 172.613 18.7865 174.398 18.1263C176.2 17.4484 177.645 16.3779 178.679 14.9328C179.714 13.4876 180.25 11.5608 180.25 9.18793C180.25 7.11836 179.75 5.36992 178.751 4.03184C177.77 2.71159 176.414 1.69465 174.737 1.01668ZM164.835 14.8793L164.817 4.46002H169.01C171.151 4.46002 172.828 4.83469 174.041 5.58402C175.218 6.3155 175.825 7.54654 175.825 9.22361C175.825 11.3467 175.165 12.8097 173.845 13.559C172.506 14.3262 170.597 14.7365 168.189 14.79L164.835 14.8793Z" fill="black"/>
<path d="M219.322 7.58185C218.395 7.26071 217.199 7.08229 215.772 7.08229C214.987 7.08229 214.22 7.27855 213.506 7.67105C212.792 8.06356 212.168 8.50959 211.651 9.04482C211.276 9.41949 210.973 9.77631 210.776 10.0974L210.616 8.95562C210.437 8.27765 210.116 7.7781 209.67 7.49264C209.224 7.20718 208.832 7.06445 208.493 7.06445C207.922 7.06445 207.44 7.27855 207.101 7.72458C206.78 8.15276 206.602 8.688 206.602 9.34812V28.5452C206.602 29.2053 206.798 29.7406 207.208 30.1152C207.601 30.4899 208.154 30.6861 208.814 30.6861C209.492 30.6861 210.045 30.4899 210.437 30.1152C210.83 29.7227 211.026 29.2053 211.026 28.563V17.8048C211.026 16.5381 211.187 15.3606 211.472 14.3436C211.775 13.3267 212.275 12.506 212.953 11.9172C213.631 11.3285 214.577 11.0252 215.754 11.0252C216.343 11.0252 216.932 11.1679 217.503 11.4534C218.127 11.7567 218.644 11.8994 219.055 11.8459C220.197 11.721 220.767 11.043 220.767 9.86551C220.785 8.688 220.304 7.92083 219.322 7.58185Z" fill="black"/>
<path d="M234.557 25.2991C234.325 25.2991 234.075 25.3526 233.825 25.4418C233.575 25.531 233.379 25.6381 233.201 25.763C232.773 26.0663 232.255 26.2268 231.684 26.2268C231.256 26.2268 230.988 26.1198 230.864 25.9057C230.721 25.6738 230.649 25.2277 230.649 24.5676L230.667 11.7577H233.361C233.932 11.7577 234.432 11.5436 234.842 11.1332C235.253 10.7229 235.467 10.2233 235.467 9.6524C235.467 9.08148 235.253 8.58193 234.842 8.17158C234.432 7.76123 233.932 7.54714 233.361 7.54714H230.703V3.51504C230.703 2.90844 230.489 2.39104 230.043 1.96286C229.615 1.53467 229.079 1.30273 228.473 1.30273C227.866 1.30273 227.331 1.51683 226.903 1.96286C226.475 2.39104 226.261 2.92628 226.261 3.51504V7.54714H223.674C223.103 7.54714 222.603 7.76123 222.193 8.17158C221.782 8.58193 221.568 9.08148 221.568 9.6524C221.568 10.2233 221.782 10.7229 222.193 11.1332C222.603 11.5436 223.103 11.7577 223.674 11.7577H226.225L226.207 24.6925V24.8887C226.207 26.5301 226.689 27.9039 227.652 29.01C228.616 30.1162 230.007 30.6693 231.791 30.6693C232.576 30.6693 233.326 30.5265 234.021 30.2589C234.717 29.9913 235.324 29.6523 235.859 29.242C236.448 28.796 236.751 28.2072 236.751 27.4936C236.751 26.887 236.537 26.3696 236.091 25.9414C235.681 25.5132 235.163 25.2991 234.557 25.2991Z" fill="black"/>
<path d="M258.233 20.1774C257.734 19.3924 257.038 18.768 256.199 18.322C255.361 17.8759 254.433 17.5369 253.416 17.305C252.417 17.0731 251.382 16.9125 250.365 16.7876C249.83 16.7341 249.152 16.6627 248.313 16.5914C247.493 16.52 246.654 16.3951 245.834 16.2345C245.031 16.074 244.335 15.842 243.782 15.5209C243.264 15.2354 242.997 14.8429 242.997 14.3612C242.997 13.6654 243.318 13.1302 243.96 12.7198C244.62 12.2916 245.423 11.9883 246.333 11.7921C247.243 11.5958 248.082 11.5066 248.813 11.5066C250.044 11.5066 251.132 11.7207 252.024 12.1489C252.916 12.5593 253.594 13.2015 254.023 14.0222C254.183 14.3434 254.469 14.6288 254.843 14.8786C255.236 15.1105 255.61 15.2354 255.985 15.2354C256.592 15.2354 257.109 15.0213 257.555 14.5753C257.983 14.1471 258.197 13.6119 258.197 13.0231C258.197 12.6306 258.108 12.2738 257.93 11.9705C257.145 10.4897 255.914 9.27649 254.272 8.40228C252.649 7.52806 250.811 7.08203 248.795 7.08203C247.618 7.08203 246.422 7.22476 245.227 7.51022C244.032 7.79568 242.908 8.22386 241.908 8.81262C240.892 9.40138 240.071 10.1507 239.464 11.0784C238.84 12.0062 238.537 13.1123 238.537 14.3791C238.537 15.7885 238.893 16.9482 239.607 17.8046C240.303 18.6431 241.248 19.3032 242.372 19.7671C243.496 20.2131 244.727 20.5343 246.03 20.7484C247.332 20.9446 248.617 21.1052 249.83 21.2479C250.472 21.3193 251.168 21.3906 251.9 21.4798C252.631 21.569 253.255 21.7296 253.773 21.9972C254.272 22.247 254.504 22.6395 254.504 23.2104C254.504 23.9598 254.219 24.5485 253.63 24.9767C253.024 25.4227 252.274 25.7439 251.4 25.9223C250.526 26.1007 249.652 26.2077 248.831 26.2077C247.279 26.2077 245.941 25.9758 244.834 25.5119C243.746 25.0481 242.908 24.2987 242.39 23.2818C242.23 22.9428 241.944 22.6395 241.552 22.4076C241.159 22.1578 240.767 22.0508 240.392 22.0508C239.785 22.0508 239.268 22.2648 238.84 22.693C238.412 23.1212 238.18 23.6565 238.18 24.2631C238.18 24.602 238.269 24.9589 238.447 25.2978C239.339 27.0284 240.749 28.3844 242.622 29.2764C244.495 30.1685 246.583 30.6323 248.867 30.6323C250.526 30.6323 252.131 30.3647 253.666 29.8473C255.2 29.3299 256.467 28.5271 257.448 27.4388C258.429 26.3505 258.947 24.9232 258.947 23.2283C259 21.9615 258.751 20.9624 258.233 20.1774Z" fill="black"/>
<path d="M204.637 8.90326C204.637 8.29666 204.423 7.77927 203.977 7.35108C203.549 6.92289 203.013 6.69096 202.425 6.69096C201.818 6.69096 201.319 6.90505 200.962 7.35108C200.908 7.42245 200.873 7.49381 200.819 7.56517V9.49202L200.034 8.70701C199.338 8.0112 198.232 8.0112 197.536 8.70701L195.752 10.4911V7.95768C195.752 6.97642 194.967 6.19141 193.986 6.19141H191.006C190.025 6.19141 189.24 6.97642 189.24 7.95768V10.4733L187.474 8.68917C186.778 7.99336 185.672 7.99336 184.976 8.68917L182.871 10.7944C182.175 11.4902 182.175 12.5964 182.871 13.2922L184.655 15.0763H182.139C181.158 15.0763 180.373 15.8613 180.373 16.8426V19.822C180.373 20.8033 181.158 21.5883 182.139 21.5883H184.655L182.871 23.3724C182.175 24.0682 182.175 25.1744 182.871 25.8702L184.976 27.9755C185.672 28.6713 186.778 28.6713 187.474 27.9755L189.24 26.1913V28.7069C189.24 29.6882 190.025 30.4732 191.006 30.4732H193.986C194.967 30.4732 195.752 29.6882 195.752 28.7069V26.1913L197.536 27.9755C198.232 28.6713 199.338 28.6713 200.034 27.9755L200.819 27.1904V29.6704C200.855 29.7239 200.89 29.7774 200.926 29.8131C201.283 30.2591 201.782 30.4732 202.389 30.4732C202.996 30.4732 203.513 30.2591 203.959 29.8131C204.387 29.3849 204.601 28.8497 204.601 28.2609L204.619 20.0718C204.637 20.0005 204.637 19.9113 204.637 19.8399V16.8426C204.637 16.7891 204.619 16.7355 204.619 16.682L204.637 8.95678V8.90326ZM192.505 23.1227C189.847 23.1227 187.706 20.9817 187.706 18.3234C187.706 15.6651 189.865 13.5241 192.505 13.5241C195.163 13.5241 197.304 15.6829 197.304 18.3234C197.304 20.9639 195.163 23.1227 192.505 23.1227Z" fill="black"/>

<defs>

</defs>
</svg>
