<svg width="119" height="15" viewBox="0 0 119 15" fill="none" xmlns="http://www.w3.org/2000/svg">
<g clip-path="url(#clip0_929_4073)">
<path d="M8.98838 6.63673C9.59305 5.97486 9.90356 5.18225 9.90356 4.27524C9.90356 3.56434 9.7483 2.93515 9.42962 2.42853C9.11912 1.91375 8.69421 1.49701 8.16308 1.17016C7.63195 0.851484 7.02728 0.614517 6.3654 0.459264C5.70353 0.312181 5.00898 0.230469 4.30625 0.230469H3.91403C3.77512 0.230469 3.64438 0.230469 3.50547 0.23864L0.996893 0.287667C0.727241 0.295839 0.490275 0.393894 0.294165 0.590004C0.098055 0.786114 0 1.02308 0 1.3009L0.0163425 13.0512C0.0163425 13.329 0.114398 13.5659 0.318679 13.7621C0.514789 13.9582 0.759926 14.0644 1.02958 14.0644L5.87513 14.0562C6.7658 14.0399 7.55841 13.8601 8.24479 13.5333C8.93118 13.2064 9.47865 12.7243 9.87087 12.0951C10.2631 11.4659 10.4592 10.6897 10.4592 9.77449C10.4592 9.07176 10.3121 8.4344 10.0343 7.90327C9.76464 7.38848 9.41328 6.96358 8.98838 6.63673ZM2.04281 12.0216L2.03464 7.87876L5.68719 7.82156H5.80976C6.57786 7.82156 7.21521 7.96047 7.71366 8.23012C8.19576 8.4916 8.4409 8.99822 8.4409 9.73363C8.4409 10.5589 8.21211 11.1554 7.77086 11.4986C7.32144 11.8418 6.66774 12.0216 5.83427 12.0379L2.04281 12.0216ZM7.56658 5.21493C7.35413 5.42738 7.0763 5.57447 6.74128 5.65618C6.39809 5.74606 6.03038 5.78692 5.65451 5.79509L2.03464 5.85229L2.02647 2.29779L3.54632 2.27328C3.63621 2.27328 3.72609 2.27328 3.82415 2.26511C3.9222 2.26511 4.01208 2.26511 4.10197 2.26511C4.6903 2.26511 5.2868 2.32231 5.87513 2.43671C6.45529 2.5511 6.93739 2.75538 7.32144 3.05772C7.69732 3.35189 7.88526 3.78496 7.88526 4.34061C7.87709 4.71648 7.77086 5.01065 7.56658 5.21493Z" fill="black"/>
<path d="M21.6218 3.42578C21.344 3.42578 21.1234 3.52384 20.96 3.72812C20.7965 3.92423 20.7148 4.16119 20.7148 4.43085L20.6249 5.1826C20.4533 4.92929 20.2164 4.67598 19.914 4.43902C19.5545 4.15302 19.1459 3.91606 18.6965 3.72812C18.2471 3.54018 17.7732 3.44212 17.2911 3.44212C16.5393 3.44212 15.8366 3.58921 15.1992 3.88337C14.5619 4.17754 13.9981 4.57793 13.5159 5.09272C13.042 5.59933 12.6661 6.18766 12.3965 6.84136C12.1268 7.48689 11.9961 8.18145 11.9961 8.89235C11.9961 9.61142 12.135 10.2978 12.4047 10.9515C12.6743 11.597 13.0584 12.1772 13.5405 12.6756C14.0226 13.1741 14.5864 13.5745 15.2237 13.8605C15.8611 14.1465 16.5475 14.2935 17.2747 14.2935C17.9202 14.2935 18.5739 14.1546 19.2195 13.8768C19.8078 13.6153 20.2817 13.2313 20.6086 12.7247L20.6903 13.3212C20.6903 13.5908 20.772 13.836 20.9354 14.0321C21.0989 14.2363 21.3195 14.3344 21.6055 14.3344C21.8833 14.3344 22.1203 14.2363 22.3164 14.0321C22.5125 13.836 22.6187 13.5908 22.6187 13.3212L22.6351 4.46353V4.43902C22.6351 4.16119 22.537 3.92423 22.3327 3.72812C22.1366 3.53201 21.8996 3.42578 21.6218 3.42578ZM17.2911 12.2507C16.6946 12.2507 16.1389 12.0955 15.6486 11.785C15.1502 11.4745 14.7498 11.0577 14.4638 10.5429C14.1696 10.0282 14.0226 9.46434 14.0226 8.85966C14.0226 8.26316 14.1696 7.69935 14.4556 7.18456C14.7416 6.66977 15.1339 6.25303 15.6323 5.94253C16.1226 5.63202 16.6782 5.47677 17.2911 5.47677C17.9121 5.47677 18.4759 5.63202 18.958 5.94253C19.4401 6.25303 19.8323 6.66977 20.1183 7.18456C20.4043 7.69935 20.5432 8.26316 20.5432 8.87601C20.5432 9.47251 20.3961 10.0363 20.1101 10.5511C19.816 11.0659 19.4238 11.4826 18.9335 11.7931C18.435 12.0955 17.8876 12.2507 17.2911 12.2507Z" fill="black"/>
<path d="M32.6198 5.7384C32.3583 5.15007 31.9416 4.61894 31.3778 4.1777C30.814 3.72011 30.1031 3.49948 29.2614 3.49948C28.6159 3.49948 28.0439 3.67108 27.5536 4.0061C27.1042 4.31661 26.712 4.62711 26.377 4.94579L26.238 4.46369C26.1563 4.20221 26.0501 3.96524 25.903 3.76913C25.7559 3.56485 25.5353 3.4668 25.2575 3.4668C24.9797 3.4668 24.759 3.56485 24.6038 3.76913C24.4567 3.96524 24.375 4.20221 24.375 4.48003L24.3913 13.256C24.3913 13.5419 24.4894 13.7789 24.6855 13.9832C24.8816 14.1793 25.1268 14.2855 25.4046 14.2855C25.6824 14.2855 25.9194 14.1875 26.1155 13.9914C26.3116 13.7953 26.4178 13.5501 26.4178 13.2723L26.4096 9.46449C26.4015 8.26332 26.6548 7.29094 27.1451 6.58821C27.6353 5.88549 28.3544 5.53412 29.2696 5.53412C29.6455 5.53412 29.9641 5.64035 30.2093 5.8528C30.4544 6.06525 30.6424 6.31039 30.7568 6.58004C30.863 6.81701 30.9365 7.09483 30.9692 7.40534C31.0019 7.72402 31.0182 8.07538 31.0182 8.44309V13.2641C31.0182 13.5419 31.1163 13.7789 31.3206 13.9832C31.5167 14.1793 31.7618 14.2774 32.0396 14.2774C32.3175 14.2774 32.5544 14.1793 32.7505 13.9832C32.9467 13.7871 33.0529 13.5419 33.0529 13.2641V8.44309C33.0529 8.0427 33.0284 7.60962 32.9875 7.15203C32.9466 6.6781 32.8241 6.20416 32.6198 5.7384Z" fill="black"/>
<path d="M43.7816 3.42578C43.5038 3.42578 43.2832 3.52384 43.1198 3.72812C42.9563 3.92423 42.8746 4.16119 42.8746 4.43085L42.7847 5.1826C42.6131 4.92929 42.3762 4.67598 42.0738 4.43902C41.7225 4.15302 41.3057 3.91606 40.8563 3.72812C40.4069 3.54018 39.933 3.44212 39.459 3.44212C38.7073 3.44212 38.0046 3.58921 37.3672 3.88337C36.7298 4.17754 36.166 4.57793 35.6839 5.09272C35.21 5.59933 34.8341 6.18766 34.5645 6.84136C34.2948 7.48689 34.1641 8.18145 34.1641 8.89235C34.1641 9.61142 34.303 10.2978 34.5726 10.9515C34.8423 11.597 35.2263 12.1772 35.7084 12.6756C36.1905 13.1741 36.7543 13.5745 37.3917 13.8605C38.0291 14.1465 38.7155 14.2935 39.4427 14.2935C40.0882 14.2935 40.7419 14.1546 41.3875 13.8768C41.9758 13.6153 42.4497 13.2313 42.7766 12.7247L42.8583 13.3212C42.8583 13.5908 42.94 13.836 43.1034 14.0321C43.2668 14.2363 43.4875 14.3344 43.7735 14.3344C44.0513 14.3344 44.2882 14.2363 44.4844 14.0321C44.6805 13.836 44.7867 13.5908 44.7867 13.3212L44.803 4.47987V4.43902C44.803 4.16119 44.705 3.92423 44.5007 3.72812C44.2964 3.53201 44.0595 3.42578 43.7816 3.42578ZM39.4509 12.2507C38.8544 12.2507 38.2987 12.0955 37.8084 11.785C37.31 11.4745 36.9096 11.0577 36.6236 10.5429C36.3294 10.0282 36.1824 9.46434 36.1824 8.85966C36.1824 8.26316 36.3294 7.69935 36.6154 7.18456C36.9014 6.66977 37.2937 6.25303 37.7921 5.94253C38.2824 5.63202 38.838 5.47677 39.4509 5.47677C40.0719 5.47677 40.6357 5.63202 41.1178 5.94253C41.6081 6.25303 41.9921 6.66977 42.2781 7.18456C42.5641 7.69935 42.703 8.26316 42.703 8.87601C42.703 9.47251 42.5559 10.0363 42.2699 10.5511C41.9758 11.0659 41.5836 11.4826 41.0933 11.7931C40.5948 12.0955 40.0474 12.2507 39.4509 12.2507Z" fill="black"/>
<path d="M54.7718 5.7384C54.5103 5.15007 54.0936 4.61894 53.5297 4.1777C52.9741 3.72011 52.2632 3.49948 51.4216 3.49948C50.776 3.49948 50.204 3.67108 49.7138 4.0061C49.2644 4.31661 48.8721 4.62711 48.5371 4.94579L48.3982 4.46369C48.3165 4.20221 48.2103 3.96524 48.0632 3.76913C47.9161 3.56485 47.6955 3.4668 47.4176 3.4668C47.1398 3.4668 46.9192 3.56485 46.764 3.76913C46.6169 3.96524 46.5352 4.20221 46.5352 4.48003L46.5515 13.256C46.5515 13.5419 46.6496 13.7789 46.8457 13.9832C47.0418 14.1793 47.2869 14.2855 47.5647 14.2855C47.8426 14.2855 48.0795 14.1875 48.2756 13.9914C48.4717 13.7953 48.578 13.5501 48.578 13.2723L48.5698 9.46449C48.5616 8.26332 48.8149 7.29094 49.3052 6.58821C49.7955 5.88549 50.5146 5.53412 51.4297 5.53412C51.8056 5.53412 52.1243 5.64035 52.3694 5.8528C52.6146 6.06525 52.8025 6.31039 52.9169 6.58004C53.0231 6.81701 53.0967 7.09483 53.1294 7.40534C53.162 7.72402 53.1784 8.07538 53.1784 8.44309V13.2641C53.1784 13.5419 53.2764 13.7789 53.4807 13.9832C53.6768 14.1793 53.922 14.2774 54.1998 14.2774C54.4776 14.2774 54.7146 14.1793 54.9107 13.9832C55.1068 13.7871 55.213 13.5419 55.213 13.2641V8.44309C55.213 8.0427 55.1885 7.60962 55.1477 7.15203C55.1068 6.6781 54.9842 6.20416 54.7718 5.7384Z" fill="black"/>
<path d="M66.3344 3.42578C66.0565 3.42578 65.8359 3.52384 65.6725 3.72812C65.5091 3.92423 65.4273 4.16119 65.4273 4.43085L65.3375 5.1826C65.1659 4.92929 64.9289 4.67598 64.6266 4.43902C64.267 4.15302 63.8585 3.91606 63.409 3.72812C62.9596 3.54018 62.4857 3.44212 62.0118 3.44212C61.26 3.44212 60.5573 3.58921 59.9199 3.88337C59.2826 4.17754 58.7187 4.57793 58.2366 5.09272C57.7627 5.59933 57.3868 6.18766 57.1172 6.84136C56.8475 7.48689 56.7168 8.18145 56.7168 8.89235C56.7168 9.61142 56.8557 10.2978 57.1254 10.9515C57.395 11.597 57.7791 12.1772 58.2612 12.6756C58.7433 13.1741 59.3071 13.5745 59.9444 13.8605C60.5818 14.1465 61.2682 14.2935 61.9954 14.2935C62.641 14.2935 63.2947 14.1546 63.9402 13.8768C64.5285 13.6153 65.0024 13.2313 65.3293 12.7247L65.411 13.3212C65.411 13.5908 65.4927 13.836 65.6561 14.0321C65.8196 14.2363 66.0402 14.3344 66.3262 14.3344C66.604 14.3344 66.841 14.2363 67.0371 14.0321C67.2332 13.836 67.3394 13.5908 67.3394 13.3212L67.3558 4.47987V4.43902C67.3558 4.16119 67.2577 3.92423 67.0534 3.72812C66.8491 3.53201 66.604 3.42578 66.3344 3.42578ZM61.9954 12.2507C61.3989 12.2507 60.8433 12.0955 60.353 11.785C59.8546 11.4745 59.4542 11.0577 59.1682 10.5429C58.874 10.0282 58.7269 9.46434 58.7269 8.85966C58.7269 8.26316 58.874 7.69935 59.16 7.18456C59.446 6.66977 59.8382 6.25303 60.3367 5.94253C60.8269 5.63202 61.3826 5.47677 61.9954 5.47677C62.6164 5.47677 63.1803 5.63202 63.6624 5.94253C64.1526 6.25303 64.5367 6.66977 64.8227 7.18456C65.1087 7.69935 65.2476 8.26316 65.2476 8.87601C65.2476 9.47251 65.1005 10.0363 64.8145 10.5511C64.5203 11.0659 64.1281 11.4826 63.6378 11.7931C63.1476 12.0955 62.5919 12.2507 61.9954 12.2507Z" fill="black"/>
<path d="M80.0283 0.695871C79.2602 0.393535 78.4022 0.238281 77.4707 0.238281L74.4637 0.254624C74.1368 0.262795 73.8917 0.385364 73.7201 0.614159C73.5485 0.842954 73.4668 1.05541 73.4668 1.23517L73.4831 13.2061C73.4831 13.4757 73.5812 13.7127 73.7855 13.9006C73.9816 14.0886 74.2267 14.1866 74.4964 14.1866C74.7742 14.1866 75.0112 14.0967 75.2073 13.9088C75.4034 13.7208 75.5096 13.4921 75.5096 13.2142L75.5014 9.07957L77.0621 9.03872C78.1081 9.00603 79.0559 8.83444 79.8731 8.5321C80.6983 8.22159 81.3602 7.73132 81.8342 7.06945C82.3081 6.40758 82.5532 5.52508 82.5532 4.4383C82.5532 3.49044 82.3244 2.68966 81.8668 2.07681C81.4174 1.47214 80.7964 1.00638 80.0283 0.695871ZM75.4933 7.04493L75.4851 2.27292H77.4053C78.3859 2.27292 79.154 2.44452 79.7096 2.78771C80.2489 3.12273 80.5268 3.68655 80.5268 4.45465C80.5268 5.42703 80.2244 6.09707 79.6197 6.44026C79.0069 6.79162 78.1326 6.97956 77.0295 7.00408L75.4933 7.04493Z" fill="black"/>
<path d="M100.449 3.70376C100.024 3.55668 99.4768 3.47497 98.8231 3.47497C98.4635 3.47497 98.1122 3.56485 97.7853 3.74462C97.4585 3.92439 97.1725 4.12867 96.9355 4.37381C96.7639 4.5454 96.625 4.70883 96.5351 4.85591L96.4616 4.33295C96.3799 4.02244 96.2328 3.79365 96.0285 3.66291C95.8242 3.53217 95.6445 3.4668 95.4892 3.4668C95.2277 3.4668 95.0071 3.56485 94.8518 3.76913C94.7048 3.96524 94.623 4.21038 94.623 4.51272V13.305C94.623 13.6073 94.7129 13.8525 94.9009 14.024C95.0806 14.1956 95.3339 14.2855 95.6363 14.2855C95.9468 14.2855 96.2001 14.1956 96.3799 14.024C96.5596 13.8443 96.6495 13.6073 96.6495 13.3132V8.38589C96.6495 7.80573 96.7231 7.26643 96.8538 6.80067C96.9927 6.33491 97.2215 5.95903 97.532 5.68938C97.8425 5.41973 98.2756 5.28081 98.8149 5.28081C99.0846 5.28081 99.3542 5.34618 99.6157 5.47692C99.9017 5.61584 100.139 5.68121 100.327 5.65669C100.85 5.59949 101.111 5.28899 101.111 4.74968C101.119 4.21038 100.899 3.85902 100.449 3.70376Z" fill="black"/>
<path d="M107.427 11.8165C107.321 11.8165 107.207 11.841 107.092 11.8819C106.978 11.9227 106.888 11.9718 106.806 12.029C106.61 12.1679 106.373 12.2414 106.112 12.2414C105.915 12.2414 105.793 12.1924 105.736 12.0943C105.67 11.9881 105.638 11.7838 105.638 11.4815L105.646 5.61453H106.88C107.141 5.61453 107.37 5.51647 107.558 5.32853C107.746 5.14059 107.844 4.9118 107.844 4.65032C107.844 4.38884 107.746 4.16004 107.558 3.9721C107.37 3.78416 107.141 3.68611 106.88 3.68611H105.662V1.83941C105.662 1.56158 105.564 1.32462 105.36 1.12851C105.164 0.932398 104.919 0.826172 104.641 0.826172C104.363 0.826172 104.118 0.924227 103.922 1.12851C103.726 1.32462 103.628 1.56976 103.628 1.83941V3.68611H102.443C102.181 3.68611 101.952 3.78416 101.765 3.9721C101.577 4.16004 101.479 4.38884 101.479 4.65032C101.479 4.9118 101.577 5.14059 101.765 5.32853C101.952 5.51647 102.181 5.61453 102.443 5.61453H103.611L103.603 11.5387V11.6286C103.603 12.3803 103.824 13.0095 104.265 13.5161C104.706 14.0227 105.344 14.2761 106.161 14.2761C106.52 14.2761 106.863 14.2107 107.182 14.0881C107.501 13.9655 107.779 13.8103 108.024 13.6224C108.293 13.4181 108.432 13.1484 108.432 12.8216C108.432 12.5437 108.334 12.3068 108.13 12.1107C107.942 11.9146 107.705 11.8165 107.427 11.8165Z" fill="black"/>
<path d="M118.27 9.47231C118.042 9.11277 117.723 8.82678 117.339 8.6225C116.955 8.41821 116.53 8.26296 116.064 8.15673C115.607 8.05051 115.133 7.97697 114.667 7.91977C114.422 7.89525 114.111 7.86257 113.727 7.82988C113.351 7.7972 112.967 7.74 112.591 7.66646C112.224 7.59292 111.905 7.48669 111.652 7.33961C111.415 7.20887 111.292 7.0291 111.292 6.80848C111.292 6.4898 111.439 6.24466 111.733 6.05672C112.036 5.86061 112.403 5.7217 112.82 5.63182C113.237 5.54194 113.621 5.50108 113.956 5.50108C114.52 5.50108 115.018 5.59913 115.427 5.79524C115.835 5.98318 116.146 6.27735 116.342 6.65323C116.416 6.80031 116.546 6.93105 116.718 7.04544C116.898 7.15167 117.069 7.20887 117.241 7.20887C117.519 7.20887 117.756 7.11081 117.96 6.90653C118.156 6.71042 118.254 6.46529 118.254 6.19564C118.254 6.01587 118.213 5.85244 118.132 5.71353C117.772 5.03532 117.208 4.47967 116.456 4.07928C115.713 3.67889 114.871 3.47461 113.948 3.47461C113.409 3.47461 112.861 3.53998 112.314 3.67072C111.766 3.80146 111.251 3.99757 110.794 4.26722C110.328 4.53687 109.952 4.88006 109.674 5.30497C109.388 5.72987 109.249 6.23649 109.249 6.81665C109.249 7.46218 109.413 7.99331 109.74 8.38553C110.058 8.76958 110.491 9.07191 111.006 9.28437C111.521 9.48865 112.085 9.63573 112.681 9.73379C113.278 9.82367 113.866 9.89721 114.422 9.96258C114.716 9.99527 115.035 10.028 115.37 10.0688C115.705 10.1097 115.991 10.1832 116.228 10.3058C116.456 10.4202 116.563 10.5999 116.563 10.8614C116.563 11.2046 116.432 11.4743 116.162 11.6704C115.884 11.8747 115.541 12.0217 115.141 12.1034C114.74 12.1852 114.34 12.2342 113.964 12.2342C113.253 12.2342 112.64 12.128 112.134 11.9155C111.635 11.7031 111.251 11.3599 111.014 10.8941C110.941 10.7388 110.81 10.5999 110.63 10.4937C110.451 10.3793 110.271 10.3303 110.099 10.3303C109.821 10.3303 109.584 10.4283 109.388 10.6245C109.192 10.8206 109.086 11.0657 109.086 11.3435C109.086 11.4988 109.127 11.6622 109.209 11.8175C109.617 12.6101 110.263 13.2311 111.121 13.6396C111.979 14.0482 112.935 14.2607 113.981 14.2607C114.74 14.2607 115.476 14.1381 116.179 13.9011C116.881 13.6642 117.461 13.2964 117.911 12.798C118.36 12.2996 118.597 11.6459 118.597 10.8696C118.622 10.2894 118.507 9.83184 118.27 9.47231Z" fill="black"/>
<path d="M93.7242 4.30844C93.7242 4.03061 93.6262 3.79365 93.4219 3.59754C93.2258 3.40143 92.9806 3.2952 92.711 3.2952C92.4332 3.2952 92.2044 3.39326 92.041 3.59754C92.0164 3.63022 92.0001 3.66291 91.9756 3.69559V4.57809L91.6161 4.21855C91.2974 3.89987 90.7908 3.89987 90.4721 4.21855L89.6549 5.03568V3.87536C89.6549 3.42594 89.2954 3.06641 88.846 3.06641H87.4814C87.032 3.06641 86.6724 3.42594 86.6724 3.87536V5.02751L85.8635 4.21038C85.5448 3.8917 85.0382 3.8917 84.7195 4.21038L83.7553 5.17459C83.4366 5.49327 83.4366 5.99989 83.7553 6.31856L84.5724 7.13569H83.4203C82.9709 7.13569 82.6113 7.49522 82.6113 7.94464V9.30924C82.6113 9.75866 82.9709 10.1182 83.4203 10.1182H84.5724L83.7553 10.9353C83.4366 11.254 83.4366 11.7606 83.7553 12.0793L84.7195 13.0435C85.0382 13.3622 85.5448 13.3622 85.8635 13.0435L86.6724 12.2264V13.3785C86.6724 13.8279 87.032 14.1875 87.4814 14.1875H88.846C89.2954 14.1875 89.6549 13.8279 89.6549 13.3785V12.2264L90.4721 13.0435C90.7908 13.3622 91.2974 13.3622 91.6161 13.0435L91.9756 12.684V13.8198C91.9919 13.8443 92.0083 13.8688 92.0246 13.8851C92.188 14.0894 92.4168 14.1875 92.6947 14.1875C92.9725 14.1875 93.2094 14.0894 93.4137 13.8851C93.6098 13.689 93.7079 13.4439 93.7079 13.1742L93.7161 9.42364C93.7242 9.39095 93.7242 9.3501 93.7242 9.31741V7.94464C93.7242 7.92013 93.7161 7.89562 93.7161 7.8711L93.7242 4.33295V4.30844ZM88.1678 10.8209C86.9503 10.8209 85.9697 9.84037 85.9697 8.62286C85.9697 7.40534 86.9584 6.42479 88.1678 6.42479C89.3853 6.42479 90.3658 7.41351 90.3658 8.62286C90.3658 9.8322 89.3853 10.8209 88.1678 10.8209Z" fill="black"/>
</g>
<defs>
<clipPath id="clip0_929_4073">
<rect width="118.622" height="14.0872" fill="white" transform="translate(0 0.230469)"/>
</clipPath>
</defs>
</svg>
