<svg width="24" height="24" viewBox="0 0 24 24" fill="none" xmlns="http://www.w3.org/2000/svg">
<path fill-rule="evenodd" clip-rule="evenodd" d="M13 14.917C15.8377 14.441 18 11.973 18 9C18 5.68629 15.3137 3 12 3C8.68629 3 6 5.68629 6 9C6 11.973 8.16229 14.441 11 14.917V20C11 20.5523 11.4477 21 12 21C12.5523 21 13 20.5523 13 20V14.917ZM16 9C16 11.2091 14.2091 13 12 13C9.79086 13 8 11.2091 8 9C8 6.79086 9.79086 5 12 5C14.2091 5 16 6.79086 16 9ZM14 9C14 10.1046 13.1046 11 12 11C10.8954 11 10 10.1046 10 9C10 7.89543 10.8954 7 12 7C13.1046 7 14 7.89543 14 9Z" fill="#8F92A1"/>
</svg>
