<svg width="350" height="240" viewBox="0 0 350 240" fill="none" xmlns="http://www.w3.org/2000/svg">
<mask id="mask0_4860_79425" style="mask-type:alpha" maskUnits="userSpaceOnUse" x="0" y="0" width="350" height="240">
<mask id="mask1_4860_79425" style="mask-type:alpha" maskUnits="userSpaceOnUse" x="0" y="0" width="350" height="240">
<rect width="350" height="240" rx="16" fill="#D9D9D9"/>
</mask>
<g mask="url(#mask1_4860_79425)">
<rect x="-746" y="-61" width="1096" height="301" rx="16" fill="#1F2937"/>
</g>
</mask>
<g mask="url(#mask0_4860_79425)">
<g opacity="0.1" filter="url(#filter0_f_4860_79425)">
<path d="M156.625 184.085L123.221 189.969L159.011 207.619L156.625 184.085Z" fill="#CAC9C9"/>
<path d="M232.836 158.191C216.996 187.397 228.876 208.3 236.796 215.101L225.481 216.712L202.287 211.88L186.447 181.814L211.904 116.313L257.161 75.5091L304.114 98.5955L306.943 140.473C303.926 133.851 295.176 120.286 284.315 118.997C270.738 117.387 252.635 121.682 232.836 158.191Z" fill="#BDBDBD"/>
<path d="M249.081 67.4857L213.887 49.3005L224.027 81.9268L249.081 67.4857Z" fill="#CAC9C9"/>
<path d="M342.139 32.7203L306.945 14.5352L295.611 53.045L334.385 70.1604L342.139 32.7203Z" fill="#CAC9C9"/>
<path d="M399.4 81.3926L363.609 64.812L336.17 90.4852L370.768 109.205L399.4 81.3926Z" fill="#CAC9C9"/>
<path d="M370.768 109.205L336.17 90.4846L337.363 129.529L371.961 133.273C373.87 125.999 371.961 114.197 370.768 109.205Z" fill="#BDBDBD"/>
<path d="M400.002 145.575L363.614 126.855L349.895 168.039L385.685 187.294L400.002 145.575Z" fill="#D5D5D5"/>
<path d="M349.895 168.04L321.859 172.319L357.054 189.969L385.686 187.295L349.895 168.04Z" fill="#CAC9C9"/>
<path d="M357.059 189.969L321.865 172.319L296.215 211.898L330.813 230.083C343.697 216.391 353.679 197.635 357.059 189.969Z" fill="#BDBDBD"/>
<path d="M342.146 253.082L308.145 235.432L296.215 211.898L330.813 230.083L342.146 253.082Z" fill="#CAC9C9"/>
<path d="M274.137 267.523L308.138 234.897L342.736 253.617L308.734 286.243L274.137 267.523Z" fill="#D5D5D5"/>
<path fill-rule="evenodd" clip-rule="evenodd" d="M179.072 80.3224L213.67 48.2309L225.004 70.1601C231.168 66.0595 247.075 56.8956 261.391 53.0447L272.128 16.6743L307.919 14L297.182 48.2309C303.346 49.4789 316.867 54.2213 321.639 63.207L350.271 35.3943L363.991 64.8115L337.148 89.9499C338.341 98.151 340.011 117.335 337.148 128.46L363.991 126.32L350.271 168.574L321.858 172.318C317.086 182.124 305.413 203.875 297.778 210.293L308.515 234.896L273.918 267.523L261.987 245.594C255.625 250.051 239.559 259.821 226.197 263.244L215.459 298.01L177.879 301.754L189.809 265.918C184.441 265.027 172.391 261.105 167.142 252.547L137.316 279.29L123 250.407L150.44 224.199C148.451 218.494 145.667 202.805 150.44 185.69L123 189.968L137.316 146.645L164.159 143.971C168.733 134.165 180.384 112.414 190.406 103.856L179.072 80.3224ZM214.989 203.846C232.918 210.81 257.147 192.94 271.477 166.732C288.662 135.3 283.934 112.514 263.038 104.398C245.11 97.4332 219.819 114.05 206.551 141.512C189.25 172.263 192.762 195.211 214.989 203.846Z" fill="#E2E2E2"/>
</g>
<g opacity="0.1" filter="url(#filter1_f_4860_79425)">
<path d="M37.8137 224.459L28.1112 228.14L39.874 232.224L37.8137 224.459Z" fill="#CAC9C9"/>
<path d="M59.2333 211.88C56.1403 222.48 60.9033 228.877 63.6715 230.751L60.3633 231.87L53.1175 231.437L46.6415 222.172L50.553 198.916L61.8241 182.925L77.2516 188.259L80.4918 202.15C79.2072 200.085 75.8036 195.986 72.4661 196.11C68.2942 196.265 63.0995 198.631 59.2333 211.88Z" fill="#BDBDBD"/>
<path d="M58.9441 180.649L47.3301 176.355L52.2396 186.771L58.9441 180.649Z" fill="#CAC9C9"/>
<path d="M84.9242 164.235L73.3102 159.942L72.1022 173.428L84.7308 177.18L84.9242 164.235Z" fill="#CAC9C9"/>
<path d="M99.2273 169.177L87.6133 164.883L93.2054 173.892L104.907 177.617L99.2273 169.177Z" fill="#D5D5D5"/>
<path d="M104.906 177.617L93.2048 173.892L86.4243 183.9L97.8896 188.404L104.906 177.617Z" fill="#CAC9C9"/>
<path d="M97.8911 188.403L86.4258 183.9L89.0128 196.924L99.6233 196.409C99.7818 193.873 98.5345 190.015 97.8911 188.403Z" fill="#BDBDBD"/>
<path d="M108.751 199.097L96.7479 194.685L94.9756 209.19L106.83 213.812L108.751 199.097Z" fill="#D5D5D5"/>
<path d="M94.9778 209.19L86.797 212.059L98.3805 216.173L106.832 213.812L94.9778 209.19Z" fill="#CAC9C9"/>
<path d="M98.3794 216.173L86.7959 212.059L81.3469 226.636L92.7817 230.961C95.8721 225.712 97.8012 218.915 98.3794 216.173Z" fill="#BDBDBD"/>
<path d="M97.499 238.088L86.274 233.913L81.3457 226.636L92.7805 230.96L97.499 238.088Z" fill="#CAC9C9"/>
<path d="M74.5581 251.771L62.7342 247.329L73.4051 238.502L81.4419 245.619C80.7799 247.797 76.5769 250.628 74.5581 251.771Z" fill="#BDBDBD"/>
<path d="M77.8875 246.409L86.243 233.734L97.7083 238.237L89.3528 250.912L77.8875 246.409Z" fill="#D5D5D5"/>
<path fill-rule="evenodd" clip-rule="evenodd" d="M38.6354 188.534L47.2007 176.008L51.8582 182.777C53.4764 181.088 57.7336 177.202 61.8159 175.179L62.9667 162.44L73.5694 159.712L72.2966 171.734C74.2201 171.837 78.5539 172.734 80.5008 175.502L87.5177 164.715L93.3196 173.872L86.6878 183.671C87.5144 186.358 89.1112 192.702 88.8858 196.577L96.8302 194.487L95.1189 209.35L86.7942 212.059C85.9198 215.589 83.6537 223.476 81.7255 226.018L86.3564 233.715L77.8216 246.42L72.9849 239.681C71.3272 241.5 67.0569 245.597 63.2369 247.428L61.9946 259.629L50.9151 262.807L52.4549 250.186C50.7907 250.162 46.9459 249.464 44.88 246.865L37.4435 257.354L31.4929 248.407L38.2429 238.219C37.3198 236.409 35.5878 231.293 36.045 225.313L28.0434 228.151L29.8728 212.899L37.7867 210.629C38.6014 207.108 40.8614 199.222 43.3845 195.841L38.6354 188.534ZM56.4805 228.094C62.2657 229.511 68.5267 222.282 71.3371 212.765C74.7076 201.351 71.9862 193.956 65.2436 192.305C59.4584 190.889 52.8069 197.752 50.387 207.635C46.9433 218.827 49.3083 226.338 56.4805 228.094Z" fill="#E2E2E2"/>
</g>
<g filter="url(#filter2_d_4860_79425)">
<path d="M194.533 87.9836C167.42 87.9836 71 176.775 71 176.775V280.035H312.719V176.775C312.719 176.775 221.645 87.9836 194.533 87.9836Z" fill="#FFCB12"/>
</g>
<g filter="url(#filter3_d_4860_79425)">
<rect x="80.9336" y="82.0395" width="225.991" height="210.263" rx="3" fill="white"/>
</g>
<g filter="url(#filter4_d_4860_79425)">
<rect x="86.7266" y="87.8342" width="214.402" height="199.501" rx="3" stroke="#1F2937" stroke-opacity="0.05" stroke-width="1.5" shape-rendering="crispEdges"/>
</g>
<g filter="url(#filter5_d_4860_79425)">
<path d="M71 257.684V177.387C129.967 177.387 176.143 207.734 191.86 222.908V257.684H71Z" fill="#FFD43D"/>
</g>
<g filter="url(#filter6_d_4860_79425)">
<path d="M313.547 257.684V177.387C254.984 177.387 209.124 207.734 193.515 222.908V257.684H313.547Z" fill="#FFD43D"/>
</g>
<g filter="url(#filter7_d_4860_79425)">
<path d="M192.576 195.599C225.068 195.599 313.547 252.452 313.547 252.452V299.902H71V252.452C71 252.452 160.084 195.599 192.576 195.599Z" fill="#FFD43D"/>
</g>
<g opacity="0.8">
<path d="M161.442 229.576C161.727 229.795 162.078 229.919 162.441 229.927C162.645 229.926 162.847 229.893 163.041 229.829C163.215 229.773 163.377 229.688 163.521 229.576C163.654 229.467 163.766 229.335 163.852 229.188C163.943 229.014 163.991 228.821 163.991 228.626C163.985 228.44 163.943 228.257 163.866 228.087C163.791 227.929 163.683 227.787 163.549 227.67C163.408 227.551 163.245 227.457 163.069 227.394C162.871 227.326 162.661 227.293 162.45 227.296C162.27 227.297 162.092 227.327 161.922 227.385C161.745 227.442 161.582 227.532 161.442 227.652C161.302 227.773 161.186 227.917 161.096 228.078C161.001 228.236 160.948 228.414 160.943 228.598C160.932 228.799 160.982 228.999 161.087 229.173C161.183 229.325 161.303 229.461 161.442 229.576Z" fill="white"/>
<path d="M163.639 230.43C163.457 230.489 163.289 230.582 163.145 230.705C163.004 230.832 162.884 230.981 162.79 231.145C162.694 231.308 162.642 231.492 162.637 231.681C162.622 231.888 162.672 232.096 162.78 232.275C162.974 232.588 163.272 232.827 163.624 232.951C163.799 233.013 163.984 233.047 164.171 233.052C164.382 233.051 164.592 233.016 164.793 232.951C164.971 232.892 165.138 232.804 165.286 232.69C165.425 232.58 165.541 232.444 165.626 232.289C165.722 232.111 165.771 231.911 165.769 231.71C165.766 231.518 165.722 231.329 165.641 231.154C165.563 230.991 165.452 230.845 165.315 230.725C165.17 230.601 165.003 230.505 164.822 230.44C164.618 230.369 164.403 230.335 164.186 230.338C164 230.338 163.814 230.369 163.639 230.43Z" fill="white"/>
<path d="M159.035 232.533C159.035 233.637 159.931 234.533 161.035 234.533L165.801 234.533C166.905 234.533 167.801 233.637 167.801 232.533L167.801 227.897C167.801 226.793 166.905 225.897 165.801 225.897L161.035 225.897C159.931 225.897 159.035 226.793 159.035 227.897L159.035 232.533ZM160.038 228.866C160.046 228.56 160.126 228.261 160.273 227.992C160.415 227.74 160.6 227.515 160.821 227.328C161.044 227.14 161.298 226.992 161.572 226.891C161.835 226.79 162.112 226.73 162.393 226.712C163.034 226.663 163.679 226.71 164.305 226.853C164.583 226.908 164.849 227.012 165.089 227.16C165.331 227.307 165.549 227.489 165.735 227.7C165.916 227.908 166.059 228.146 166.157 228.402C166.254 228.65 166.304 228.913 166.305 229.179C166.307 229.484 166.236 229.785 166.099 230.059C166.094 230.069 166.091 230.081 166.091 230.093V230.093C166.091 230.112 166.099 230.131 166.113 230.145C166.47 230.518 166.702 230.991 166.776 231.5C166.796 231.799 166.75 232.099 166.639 232.379C166.539 232.639 166.393 232.878 166.206 233.086C166.024 233.286 165.802 233.448 165.554 233.561C165.299 233.68 165.02 233.739 164.738 233.734L161.451 233.734C161.095 233.739 160.751 233.61 160.488 233.373C160.225 233.137 160.064 232.81 160.038 232.46L160.038 228.866Z" fill="white"/>
<path d="M174.279 230.089C174.56 229.798 174.713 229.41 174.707 229.009C174.715 228.711 174.639 228.416 174.487 228.157C174.341 227.921 174.138 227.725 173.896 227.585C173.637 227.43 173.354 227.319 173.058 227.255C172.743 227.184 172.422 227.147 172.099 227.147L171.726 227.147L170.559 227.147C170.436 227.152 170.319 227.203 170.231 227.288C170.144 227.374 170.095 227.49 170.094 227.612L170.094 233.009C170.093 233.07 170.105 233.13 170.128 233.187C170.152 233.244 170.186 233.295 170.23 233.338C170.274 233.382 170.326 233.416 170.384 233.439C170.441 233.462 170.503 233.473 170.565 233.473L172.822 233.473C173.2 233.473 173.574 233.392 173.918 233.235C174.231 233.093 174.496 232.865 174.679 232.577C174.872 232.25 174.967 231.875 174.953 231.497C174.959 231.2 174.892 230.905 174.756 230.639C174.639 230.425 174.476 230.237 174.279 230.089ZM171.042 228.097L171.743 228.097L172.006 228.097C172.281 228.098 172.556 228.123 172.827 228.173C173.071 228.217 173.301 228.315 173.501 228.459C173.59 228.53 173.66 228.621 173.705 228.725C173.751 228.828 173.771 228.94 173.764 229.053C173.768 229.126 173.757 229.199 173.732 229.267C173.707 229.336 173.667 229.399 173.616 229.452C173.511 229.555 173.378 229.626 173.233 229.657C173.068 229.696 172.899 229.717 172.729 229.722L171.042 229.722L171.042 228.097ZM173.715 232.318C173.449 232.495 173.132 232.582 172.811 232.566L171.047 232.566L171.047 230.666L172.751 230.639L172.811 230.639C173.117 230.628 173.42 230.693 173.693 230.828C173.81 230.899 173.904 231.001 173.964 231.122C174.024 231.244 174.048 231.379 174.033 231.514C174.048 231.663 174.027 231.813 173.971 231.953C173.916 232.093 173.828 232.218 173.715 232.318Z" fill="white"/>
<path d="M180.168 228.61C180.11 228.609 180.052 228.621 179.998 228.645C179.945 228.67 179.898 228.706 179.862 228.751C179.785 228.842 179.744 228.957 179.747 229.075L179.708 229.42C179.615 229.289 179.502 229.173 179.374 229.075C179.207 228.943 179.023 228.834 178.826 228.751C178.619 228.662 178.395 228.616 178.169 228.616C177.834 228.614 177.503 228.684 177.199 228.821C176.903 228.946 176.637 229.13 176.416 229.361C176.183 229.592 175.997 229.865 175.868 230.165C175.62 230.769 175.62 231.444 175.868 232.048C176.001 232.343 176.186 232.612 176.416 232.842C176.64 233.069 176.905 233.252 177.199 233.381C177.491 233.511 177.807 233.578 178.128 233.578C178.448 233.578 178.764 233.511 179.056 233.381C179.321 233.269 179.546 233.081 179.703 232.842L179.741 233.117C179.738 233.235 179.779 233.35 179.856 233.441C179.893 233.487 179.94 233.524 179.995 233.548C180.049 233.573 180.109 233.584 180.168 233.581C180.23 233.583 180.291 233.571 180.347 233.548C180.404 233.525 180.455 233.49 180.497 233.446C180.542 233.403 180.578 233.352 180.602 233.296C180.627 233.239 180.639 233.178 180.639 233.117L180.639 229.058C180.641 228.997 180.63 228.936 180.606 228.88C180.582 228.823 180.547 228.772 180.503 228.729C180.458 228.688 180.405 228.657 180.348 228.636C180.29 228.616 180.229 228.607 180.168 228.61ZM179.462 231.876C179.328 232.107 179.14 232.303 178.914 232.448C178.685 232.589 178.42 232.664 178.15 232.664C177.879 232.664 177.614 232.589 177.385 232.448C177.158 232.304 176.97 232.108 176.837 231.876C176.701 231.641 176.629 231.375 176.629 231.104C176.629 230.836 176.698 230.572 176.829 230.337C176.961 230.102 177.15 229.904 177.38 229.76C177.614 229.622 177.882 229.549 178.155 229.549C178.428 229.549 178.696 229.622 178.93 229.76C179.273 229.982 179.519 230.322 179.621 230.713C179.722 231.105 179.671 231.519 179.478 231.876L179.462 231.876Z" fill="white"/>
<path d="M185.29 229.676C185.161 229.394 184.963 229.147 184.715 228.958C184.433 228.743 184.084 228.632 183.729 228.645C183.444 228.642 183.166 228.722 182.929 228.877C182.734 229.005 182.551 229.15 182.381 229.309L182.315 229.087C182.281 228.976 182.23 228.87 182.162 228.774C182.125 228.73 182.078 228.695 182.026 228.67C181.973 228.646 181.916 228.633 181.858 228.633C181.8 228.633 181.742 228.646 181.69 228.67C181.637 228.695 181.591 228.73 181.554 228.774C181.482 228.867 181.445 228.982 181.45 229.098L181.45 233.124C181.448 233.186 181.459 233.248 181.483 233.306C181.506 233.363 181.541 233.416 181.586 233.46C181.63 233.504 181.683 233.538 181.742 233.561C181.8 233.584 181.863 233.595 181.926 233.594C182.051 233.592 182.17 233.543 182.258 233.456C182.346 233.37 182.396 233.252 182.397 233.13L182.397 231.381C182.369 230.916 182.49 230.453 182.742 230.059C182.852 229.903 183 229.776 183.172 229.691C183.345 229.606 183.536 229.566 183.729 229.573C183.888 229.566 184.044 229.618 184.167 229.719C184.277 229.81 184.365 229.924 184.424 230.053C184.477 230.173 184.508 230.301 184.517 230.431C184.535 230.589 184.545 230.747 184.545 230.906L184.545 233.119C184.543 233.18 184.555 233.241 184.578 233.298C184.602 233.354 184.637 233.406 184.682 233.448C184.771 233.535 184.891 233.583 185.016 233.583C185.141 233.583 185.261 233.535 185.35 233.448C185.395 233.406 185.43 233.354 185.454 233.298C185.477 233.241 185.489 233.18 185.487 233.119L185.487 230.906C185.487 230.723 185.487 230.523 185.46 230.318C185.44 230.096 185.382 229.879 185.29 229.676Z" fill="white"/>
<path d="M190.493 228.612C190.434 228.61 190.374 228.621 190.32 228.646C190.266 228.67 190.218 228.707 190.181 228.752C190.104 228.843 190.063 228.958 190.066 229.076L190.028 229.421C189.936 229.291 189.825 229.175 189.699 229.076C189.531 228.946 189.347 228.837 189.151 228.752C188.946 228.662 188.724 228.616 188.499 228.617C188.163 228.615 187.83 228.685 187.524 228.822C187.23 228.95 186.963 229.134 186.741 229.362C186.522 229.599 186.346 229.871 186.22 230.166C185.968 230.77 185.968 231.446 186.22 232.05C186.351 232.346 186.537 232.615 186.768 232.843C186.992 233.071 187.258 233.254 187.551 233.383C187.85 233.517 188.176 233.585 188.505 233.583C188.816 233.581 189.124 233.515 189.408 233.388C189.676 233.277 189.903 233.089 190.06 232.849L190.099 233.124C190.096 233.241 190.135 233.355 190.208 233.448C190.245 233.494 190.293 233.531 190.347 233.555C190.401 233.58 190.461 233.591 190.521 233.588C190.583 233.589 190.644 233.577 190.702 233.554C190.759 233.531 190.811 233.497 190.855 233.454C190.899 233.41 190.934 233.359 190.957 233.302C190.981 233.246 190.992 233.185 190.992 233.124L190.992 229.065C190.992 229.004 190.98 228.943 190.955 228.886C190.931 228.829 190.895 228.778 190.849 228.736C190.803 228.691 190.747 228.656 190.685 228.635C190.624 228.613 190.558 228.606 190.493 228.612ZM189.781 231.877C189.649 232.109 189.461 232.306 189.233 232.449C189.006 232.592 188.741 232.667 188.472 232.665C188.2 232.666 187.935 232.591 187.705 232.449C187.477 232.306 187.289 232.109 187.157 231.877C187.022 231.642 186.952 231.376 186.954 231.105C186.954 230.836 187.021 230.571 187.151 230.334C187.285 230.102 187.473 229.906 187.699 229.761C187.934 229.624 188.201 229.551 188.474 229.551C188.747 229.551 189.015 229.624 189.25 229.761C189.477 229.905 189.665 230.101 189.797 230.334C189.93 230.572 189.998 230.839 189.995 231.111C189.993 231.38 189.919 231.645 189.781 231.877Z" fill="white"/>
<path d="M195.618 229.675C195.486 229.393 195.287 229.147 195.037 228.958C194.757 228.741 194.407 228.63 194.051 228.645C193.768 228.64 193.491 228.721 193.257 228.877C193.062 229.006 192.879 229.15 192.709 229.308L192.649 229.087C192.613 228.975 192.56 228.869 192.49 228.774C192.453 228.73 192.407 228.695 192.355 228.67C192.303 228.646 192.246 228.633 192.188 228.633C192.131 228.633 192.074 228.646 192.022 228.67C191.969 228.695 191.924 228.73 191.887 228.774C191.814 228.866 191.775 228.981 191.777 229.098L191.777 233.124C191.776 233.186 191.787 233.247 191.81 233.304C191.833 233.362 191.868 233.414 191.912 233.457C191.956 233.501 192.008 233.536 192.066 233.559C192.124 233.583 192.186 233.594 192.249 233.594C192.374 233.593 192.493 233.545 192.583 233.459C192.627 233.416 192.662 233.365 192.685 233.308C192.709 233.251 192.721 233.191 192.72 233.13L192.72 231.381C192.694 230.916 192.815 230.454 193.065 230.059C193.176 229.902 193.325 229.776 193.498 229.691C193.671 229.606 193.863 229.566 194.056 229.573C194.214 229.566 194.369 229.618 194.489 229.719C194.6 229.809 194.688 229.924 194.747 230.053C194.799 230.174 194.832 230.301 194.845 230.431C194.854 230.589 194.854 230.748 194.845 230.906L194.845 233.119C194.845 233.18 194.857 233.241 194.882 233.298C194.906 233.355 194.942 233.406 194.988 233.448C195.076 233.534 195.195 233.582 195.319 233.582C195.443 233.582 195.562 233.534 195.651 233.448C195.696 233.406 195.732 233.355 195.757 233.298C195.781 233.241 195.794 233.18 195.793 233.119L195.793 230.906C195.793 230.709 195.782 230.513 195.76 230.318C195.749 230.097 195.701 229.88 195.618 229.675Z" fill="white"/>
<path d="M200.999 228.615C200.94 228.613 200.882 228.625 200.829 228.65C200.775 228.674 200.729 228.71 200.692 228.755C200.615 228.846 200.574 228.961 200.577 229.079L200.538 229.424C200.445 229.293 200.332 229.177 200.204 229.079C200.037 228.947 199.853 228.838 199.656 228.755C199.451 228.667 199.229 228.621 199.004 228.62C198.668 228.617 198.335 228.687 198.029 228.825C197.735 228.953 197.469 229.136 197.246 229.365C197.023 229.599 196.847 229.871 196.725 230.169C196.601 230.467 196.537 230.786 196.539 231.108C196.536 231.433 196.601 231.754 196.731 232.053C196.862 232.348 197.047 232.617 197.279 232.846C197.503 233.073 197.769 233.256 198.062 233.386C198.354 233.515 198.671 233.582 198.991 233.582C199.311 233.582 199.627 233.515 199.919 233.386C200.186 233.273 200.413 233.085 200.571 232.846L200.61 233.121C200.605 233.239 200.644 233.354 200.719 233.445C200.756 233.491 200.804 233.528 200.858 233.553C200.912 233.577 200.972 233.588 201.031 233.585C201.094 233.586 201.155 233.575 201.213 233.551C201.27 233.528 201.322 233.494 201.366 233.45C201.453 233.362 201.502 233.244 201.503 233.121L201.503 229.063C201.5 228.939 201.449 228.821 201.36 228.734C201.271 228.646 201.152 228.596 201.026 228.593L200.999 228.615ZM200.314 231.88C200.18 232.111 199.992 232.307 199.766 232.452C199.538 232.594 199.274 232.668 199.004 232.668C198.733 232.669 198.467 232.594 198.237 232.452C198.01 232.308 197.822 232.112 197.69 231.88C197.553 231.645 197.481 231.379 197.481 231.108C197.483 230.838 197.552 230.573 197.684 230.336C197.818 230.105 198.006 229.909 198.232 229.764C198.466 229.626 198.734 229.554 199.007 229.554C199.28 229.554 199.548 229.626 199.782 229.764C200.011 229.907 200.199 230.103 200.33 230.336C200.467 230.573 200.537 230.841 200.533 231.113C200.526 231.383 200.45 231.646 200.314 231.88Z" fill="white"/>
<path d="M207.379 227.388C207 227.244 206.597 227.173 206.191 227.178L204.788 227.178C204.721 227.176 204.654 227.19 204.594 227.219C204.534 227.248 204.482 227.291 204.443 227.345C204.371 227.425 204.329 227.525 204.322 227.631L204.322 233.126C204.321 233.185 204.333 233.244 204.356 233.299C204.38 233.354 204.415 233.403 204.459 233.444C204.504 233.486 204.556 233.519 204.613 233.542C204.671 233.564 204.732 233.575 204.794 233.573C204.854 233.576 204.914 233.566 204.971 233.544C205.027 233.523 205.079 233.491 205.122 233.449C205.167 233.409 205.203 233.36 205.228 233.305C205.252 233.25 205.265 233.191 205.265 233.131L205.265 231.231L205.993 231.231C206.44 231.224 206.882 231.146 207.303 230.999C207.668 230.868 207.987 230.633 208.217 230.324C208.455 229.966 208.571 229.543 208.552 229.116C208.563 228.732 208.452 228.354 208.234 228.036C208.017 227.745 207.721 227.52 207.379 227.388ZM207.193 230.028C206.819 230.21 206.405 230.299 205.988 230.287L205.27 230.287L205.27 228.096L206.163 228.096C206.544 228.073 206.923 228.155 207.259 228.333C207.386 228.415 207.489 228.53 207.557 228.665C207.624 228.799 207.654 228.95 207.642 229.099C207.659 229.276 207.626 229.453 207.547 229.612C207.467 229.771 207.345 229.906 207.193 230.001L207.193 230.028Z" fill="white"/>
<path d="M216.896 228.742C216.652 228.664 216.396 228.627 216.14 228.634C215.971 228.636 215.806 228.678 215.658 228.758C215.511 228.835 215.376 228.934 215.258 229.05C215.188 229.116 215.125 229.191 215.072 229.271L215.039 229.028C215.012 228.904 214.94 228.794 214.836 228.72C214.762 228.668 214.675 228.638 214.584 228.634C214.527 228.632 214.471 228.643 214.42 228.666C214.368 228.69 214.323 228.725 214.288 228.769C214.218 228.869 214.182 228.988 214.184 229.109L214.184 233.146C214.181 233.206 214.191 233.267 214.212 233.323C214.234 233.38 214.267 233.432 214.31 233.475C214.404 233.559 214.528 233.604 214.655 233.599C214.718 233.603 214.781 233.594 214.841 233.572C214.9 233.551 214.954 233.518 215 233.475C215.044 233.433 215.077 233.383 215.099 233.327C215.121 233.271 215.13 233.211 215.126 233.151L215.126 230.89C215.123 230.644 215.156 230.398 215.225 230.161C215.28 229.964 215.39 229.787 215.543 229.649C215.679 229.545 215.842 229.481 216.014 229.464C216.185 229.447 216.358 229.477 216.512 229.552C216.612 229.61 216.725 229.64 216.841 229.638C216.894 229.638 216.946 229.626 216.994 229.604C217.042 229.583 217.085 229.551 217.12 229.512C217.155 229.473 217.181 229.426 217.196 229.376C217.211 229.327 217.215 229.274 217.208 229.222C217.22 229.119 217.195 229.015 217.138 228.928C217.082 228.84 216.996 228.775 216.896 228.742Z" fill="white"/>
<path d="M220.153 232.466C220.098 232.466 220.044 232.477 219.994 232.498C219.947 232.513 219.903 232.535 219.862 232.563C219.768 232.628 219.654 232.662 219.539 232.66C219.446 232.66 219.391 232.66 219.364 232.59C219.322 232.502 219.305 232.405 219.314 232.309L219.314 229.61L219.89 229.61C220.009 229.61 220.123 229.564 220.207 229.481C220.292 229.398 220.339 229.285 220.339 229.168C220.34 229.11 220.329 229.052 220.306 228.998C220.284 228.944 220.25 228.895 220.207 228.855C220.166 228.813 220.117 228.78 220.062 228.758C220.007 228.736 219.949 228.725 219.89 228.725L219.342 228.725L219.342 227.878C219.343 227.817 219.332 227.756 219.308 227.699C219.285 227.643 219.25 227.591 219.205 227.549C219.161 227.505 219.109 227.471 219.052 227.448C218.994 227.425 218.933 227.413 218.871 227.414C218.808 227.412 218.747 227.423 218.689 227.446C218.631 227.47 218.579 227.505 218.536 227.549C218.492 227.591 218.457 227.643 218.433 227.699C218.409 227.756 218.398 227.817 218.4 227.878L218.4 228.725L217.852 228.725C217.733 228.728 217.621 228.776 217.537 228.858C217.453 228.94 217.405 229.051 217.402 229.168C217.401 229.226 217.412 229.284 217.435 229.338C217.457 229.392 217.491 229.441 217.534 229.481C217.575 229.523 217.624 229.557 217.679 229.58C217.733 229.603 217.792 229.616 217.852 229.616L218.4 229.616L218.4 232.374C218.389 232.689 218.499 232.997 218.706 233.237C218.819 233.356 218.957 233.45 219.11 233.51C219.264 233.571 219.429 233.598 219.594 233.588C219.757 233.59 219.919 233.561 220.07 233.502C220.212 233.451 220.345 233.38 220.465 233.291C220.523 233.248 220.57 233.191 220.603 233.127C220.635 233.062 220.652 232.991 220.651 232.919C220.652 232.859 220.64 232.799 220.617 232.743C220.593 232.687 220.558 232.637 220.514 232.595C220.467 232.549 220.41 232.514 220.348 232.491C220.285 232.469 220.219 232.46 220.153 232.466Z" fill="white"/>
<path d="M225.202 231.386C225.092 231.223 224.944 231.09 224.769 230.997C224.581 230.899 224.38 230.827 224.172 230.782C223.957 230.732 223.739 230.696 223.52 230.674L223.082 230.63C222.897 230.617 222.715 230.592 222.534 230.555C222.381 230.529 222.233 230.48 222.095 230.409C222.048 230.387 222.007 230.351 221.978 230.308C221.949 230.264 221.933 230.213 221.931 230.161C221.93 230.091 221.948 230.021 221.984 229.961C222.02 229.9 222.071 229.85 222.134 229.815C222.291 229.723 222.464 229.658 222.643 229.621C222.823 229.584 223.007 229.564 223.191 229.562C223.429 229.555 223.664 229.601 223.881 229.697C224.063 229.78 224.212 229.918 224.309 230.091C224.351 230.164 224.412 230.225 224.484 230.269C224.557 230.314 224.64 230.339 224.725 230.344C224.787 230.346 224.849 230.335 224.907 230.311C224.964 230.288 225.016 230.254 225.059 230.209C225.105 230.167 225.141 230.116 225.165 230.059C225.19 230.003 225.202 229.942 225.202 229.88C225.202 229.803 225.181 229.726 225.141 229.659C224.967 229.336 224.695 229.074 224.363 228.909C224.004 228.722 223.603 228.628 223.197 228.634C222.94 228.634 222.685 228.663 222.435 228.72C222.187 228.777 221.949 228.869 221.728 228.995C221.519 229.111 221.341 229.273 221.208 229.47C221.071 229.675 221 229.916 221.005 230.161C220.994 230.419 221.076 230.673 221.235 230.879C221.394 231.062 221.598 231.204 221.827 231.289C222.078 231.389 222.342 231.458 222.61 231.494C222.89 231.537 223.158 231.575 223.421 231.602L223.865 231.645C224.004 231.66 224.139 231.698 224.265 231.758C224.314 231.78 224.354 231.816 224.382 231.862C224.409 231.907 224.422 231.959 224.418 232.012C224.421 232.084 224.405 232.156 224.373 232.221C224.34 232.286 224.292 232.342 224.232 232.384C224.092 232.484 223.931 232.552 223.761 232.584C223.581 232.622 223.397 232.642 223.213 232.644C222.921 232.65 222.63 232.598 222.358 232.492C222.122 232.409 221.927 232.242 221.811 232.023C221.77 231.947 221.71 231.883 221.635 231.839C221.562 231.793 221.476 231.766 221.389 231.764C221.326 231.763 221.264 231.776 221.207 231.8C221.149 231.824 221.097 231.859 221.055 231.904C221.009 231.945 220.973 231.996 220.949 232.051C220.924 232.107 220.912 232.167 220.912 232.228C220.914 232.305 220.935 232.381 220.972 232.449C221.165 232.818 221.478 233.112 221.86 233.286C222.276 233.479 222.731 233.576 223.191 233.572C223.539 233.573 223.885 233.519 224.216 233.41C224.523 233.311 224.8 233.136 225.021 232.903C225.239 232.659 225.355 232.342 225.344 232.017C225.359 231.798 225.31 231.579 225.202 231.386Z" fill="white"/>
<path d="M213.288 228.555C213.228 228.553 213.169 228.564 213.115 228.589C213.06 228.613 213.013 228.649 212.975 228.695C212.965 228.709 212.956 228.723 212.948 228.738L212.948 229.143L212.778 228.976C212.743 228.939 212.7 228.91 212.653 228.89C212.606 228.87 212.555 228.86 212.504 228.86C212.453 228.86 212.402 228.87 212.355 228.89C212.308 228.91 212.266 228.939 212.23 228.976L211.852 229.348L211.852 228.808C211.853 228.76 211.844 228.712 211.825 228.667C211.807 228.622 211.78 228.582 211.745 228.547C211.71 228.513 211.669 228.486 211.623 228.468C211.578 228.45 211.529 228.441 211.48 228.441L210.844 228.441C210.795 228.441 210.746 228.45 210.7 228.468C210.654 228.486 210.612 228.513 210.577 228.547C210.542 228.581 210.514 228.622 210.495 228.667C210.476 228.712 210.466 228.76 210.466 228.808L210.466 229.348L210.088 228.976C210.053 228.939 210.01 228.91 209.963 228.89C209.916 228.87 209.866 228.86 209.814 228.86C209.763 228.86 209.712 228.87 209.665 228.89C209.618 228.91 209.576 228.939 209.54 228.976L209.091 229.418C209.055 229.453 209.026 229.495 209.006 229.542C208.986 229.588 208.976 229.638 208.976 229.688C208.976 229.738 208.986 229.788 209.006 229.835C209.026 229.881 209.055 229.923 209.091 229.958L209.475 230.33L208.927 230.33C208.827 230.33 208.73 230.37 208.66 230.439C208.589 230.509 208.549 230.604 208.549 230.703L208.549 231.329C208.549 231.428 208.589 231.522 208.66 231.592C208.73 231.662 208.827 231.701 208.927 231.701L209.475 231.701L209.091 232.074C209.055 232.109 209.026 232.151 209.006 232.197C208.986 232.243 208.976 232.293 208.976 232.343C208.976 232.394 208.986 232.443 209.006 232.49C209.026 232.536 209.055 232.578 209.091 232.613L209.54 233.056C209.576 233.092 209.618 233.122 209.665 233.141C209.712 233.161 209.763 233.172 209.814 233.172C209.866 233.172 209.916 233.161 209.963 233.141C210.01 233.122 210.053 233.092 210.088 233.056L210.466 232.683L210.466 233.223C210.466 233.322 210.506 233.417 210.577 233.487C210.648 233.556 210.744 233.596 210.844 233.596L211.48 233.596C211.529 233.596 211.578 233.586 211.624 233.567C211.669 233.548 211.71 233.521 211.745 233.486C211.78 233.452 211.807 233.41 211.826 233.365C211.844 233.32 211.853 233.272 211.852 233.223L211.852 232.683L212.23 233.056C212.266 233.092 212.308 233.122 212.355 233.141C212.402 233.161 212.453 233.172 212.504 233.172C212.555 233.172 212.606 233.161 212.653 233.141C212.7 233.122 212.743 233.092 212.778 233.056L212.948 232.889L212.948 233.428L212.948 233.461C212.985 233.506 213.032 233.542 213.085 233.566C213.138 233.59 213.196 233.602 213.255 233.601C213.379 233.598 213.498 233.549 213.587 233.462C213.675 233.376 213.727 233.26 213.731 233.137L213.731 231.41C213.734 231.394 213.734 231.377 213.731 231.361L213.731 229.008C213.732 228.947 213.72 228.886 213.697 228.83C213.674 228.773 213.639 228.722 213.595 228.678C213.551 228.635 213.499 228.601 213.441 228.578C213.384 228.555 213.322 228.543 213.26 228.544L213.288 228.555ZM211.173 232.009C210.97 232.009 210.772 231.95 210.604 231.839C210.435 231.728 210.304 231.57 210.227 231.386C210.149 231.201 210.129 230.999 210.168 230.803C210.208 230.607 210.305 230.427 210.449 230.286C210.592 230.145 210.774 230.049 210.973 230.01C211.172 229.971 211.378 229.991 211.565 230.067C211.752 230.144 211.912 230.273 212.025 230.439C212.137 230.605 212.197 230.8 212.197 231C212.197 231.267 212.089 231.524 211.897 231.713C211.705 231.903 211.445 232.009 211.173 232.009Z" fill="white"/>
</g>
<path d="M141.476 121.355C142.58 121.355 143.476 122.25 143.476 123.355V158.827C143.476 159.932 142.58 160.827 141.476 160.827H136.618C135.962 160.827 135.347 160.505 134.974 159.965L119.594 137.733C119.561 137.685 119.506 137.656 119.447 137.656V137.656C119.349 137.656 119.268 137.736 119.268 137.835V158.827C119.268 159.932 118.373 160.827 117.268 160.827H112C110.895 160.827 110 159.932 110 158.827V123.355C110 122.25 110.895 121.355 112 121.355H116.96C117.62 121.355 118.237 121.68 118.61 122.225L133.816 144.433C133.856 144.491 133.922 144.526 133.993 144.526V144.526C134.111 144.526 134.207 144.43 134.207 144.312V123.355C134.207 122.25 135.103 121.355 136.207 121.355H141.476Z" fill="#E0BB39"/>
<path d="M153.427 160.827C152.322 160.827 151.427 159.932 151.427 158.827V123.355C151.427 122.25 152.322 121.355 153.427 121.355H176.742C177.846 121.355 178.742 122.25 178.742 123.355V126.933C178.742 128.038 177.846 128.933 176.742 128.933H162.695C161.591 128.933 160.695 129.828 160.695 130.933V135.275C160.695 136.379 161.591 137.275 162.695 137.275H175.324C176.429 137.275 177.324 138.17 177.324 139.275V142.853C177.324 143.957 176.429 144.853 175.324 144.853H162.695C161.591 144.853 160.695 145.748 160.695 146.853V151.249C160.695 152.354 161.591 153.249 162.695 153.249H176.796C177.901 153.249 178.796 154.144 178.796 155.249V158.827C178.796 159.932 177.901 160.827 176.796 160.827H153.427Z" fill="#E0BB39"/>
<path d="M197.466 160.827C196.575 160.827 195.791 160.238 195.544 159.382L185.304 123.909C184.935 122.63 185.895 121.355 187.226 121.355H193.226C194.157 121.355 194.965 121.997 195.175 122.904L200.831 147.363C200.853 147.457 200.937 147.524 201.034 147.524V147.524C201.129 147.524 201.212 147.46 201.236 147.369L207.673 122.847C207.904 121.968 208.699 121.355 209.608 121.355H214.975C215.883 121.355 216.677 121.966 216.909 122.844L223.405 147.449C223.426 147.526 223.495 147.579 223.574 147.579V147.579C223.655 147.579 223.725 147.523 223.744 147.444L229.458 122.901C229.669 121.995 230.477 121.355 231.406 121.355H237.406C238.738 121.355 239.698 122.632 239.327 123.912L229.038 159.385C228.79 160.239 228.007 160.827 227.117 160.827H221.172C220.286 160.827 219.505 160.245 219.254 159.395L212.527 136.668C212.5 136.575 212.414 136.511 212.317 136.511V136.511C212.22 136.511 212.135 136.575 212.107 136.668L205.381 159.395C205.13 160.245 204.349 160.827 203.463 160.827H197.466Z" fill="#E0BB39"/>
<path d="M268.611 133.076C267.572 133.076 266.761 132.247 266.318 131.308C265.476 129.522 263.541 128.497 260.614 128.497C256.852 128.497 254.916 130.132 254.889 132.368C254.835 134.821 257.234 136.021 260.777 136.784L264.212 137.602C271.818 139.265 276.234 143.054 276.261 149.378C276.234 156.847 270.428 161.345 260.614 161.373C251.538 161.347 245.43 157.589 244.407 149.884C244.26 148.775 245.175 147.852 246.294 147.852H251.31C252.37 147.852 253.203 148.701 253.556 149.701C254.472 152.301 257.026 153.631 260.505 153.631C264.43 153.631 266.775 151.913 266.829 149.378C266.775 147.088 264.757 145.889 260.396 144.907L256.252 143.926C249.464 142.345 245.294 138.965 245.294 133.022C245.266 125.689 251.727 120.809 260.668 120.809C268.91 120.809 274.493 124.874 275.539 131.063C275.724 132.161 274.807 133.076 273.694 133.076H268.611Z" fill="#E0BB39"/>
<path d="M141.476 118.563C142.58 118.563 143.476 119.459 143.476 120.563V156.036C143.476 157.141 142.58 158.036 141.476 158.036H136.618C135.962 158.036 135.347 157.714 134.974 157.174L119.594 134.942C119.561 134.894 119.506 134.865 119.447 134.865V134.865C119.349 134.865 119.268 134.945 119.268 135.044V156.036C119.268 157.141 118.373 158.036 117.268 158.036H112C110.895 158.036 110 157.141 110 156.036V120.563C110 119.459 110.895 118.563 112 118.563H116.96C117.62 118.563 118.237 118.889 118.61 119.433L133.816 141.641C133.856 141.699 133.922 141.734 133.993 141.734V141.734C134.111 141.734 134.207 141.638 134.207 141.52V120.563C134.207 119.459 135.103 118.563 136.207 118.563H141.476Z" fill="#FFD43D"/>
<path d="M153.427 158.036C152.322 158.036 151.427 157.141 151.427 156.036V120.563C151.427 119.459 152.322 118.563 153.427 118.563H176.742C177.846 118.563 178.742 119.459 178.742 120.563V124.141C178.742 125.246 177.846 126.141 176.742 126.141H162.695C161.591 126.141 160.695 127.037 160.695 128.141V132.483C160.695 133.588 161.591 134.483 162.695 134.483H175.324C176.429 134.483 177.324 135.379 177.324 136.483V140.061C177.324 141.166 176.429 142.061 175.324 142.061H162.695C161.591 142.061 160.695 142.957 160.695 144.061V148.458C160.695 149.562 161.591 150.458 162.695 150.458H176.796C177.901 150.458 178.796 151.353 178.796 152.458V156.036C178.796 157.141 177.901 158.036 176.796 158.036H153.427Z" fill="#FFD43D"/>
<path d="M197.466 158.036C196.575 158.036 195.791 157.447 195.544 156.591L185.304 121.118C184.935 119.839 185.895 118.563 187.226 118.563H193.226C194.157 118.563 194.965 119.206 195.175 120.113L200.831 144.571C200.853 144.666 200.937 144.733 201.034 144.733V144.733C201.129 144.733 201.212 144.669 201.236 144.577L207.673 120.055C207.904 119.176 208.699 118.563 209.608 118.563H214.975C215.883 118.563 216.677 119.175 216.909 120.053L223.405 144.658C223.426 144.734 223.495 144.787 223.574 144.787V144.787C223.655 144.787 223.725 144.732 223.744 144.653L229.458 120.11C229.669 119.204 230.477 118.563 231.406 118.563H237.406C238.738 118.563 239.698 119.841 239.327 121.12L229.038 156.593C228.79 157.448 228.007 158.036 227.117 158.036H221.172C220.286 158.036 219.505 157.453 219.254 156.604L212.527 133.877C212.5 133.784 212.414 133.72 212.317 133.72V133.72C212.22 133.72 212.135 133.784 212.107 133.877L205.381 156.604C205.13 157.453 204.349 158.036 203.463 158.036H197.466Z" fill="#FFD43D"/>
<path d="M268.611 130.285C267.572 130.285 266.761 129.456 266.318 128.516C265.476 126.73 263.541 125.705 260.614 125.705C256.852 125.705 254.916 127.341 254.889 129.576C254.835 132.03 257.234 133.229 260.777 133.992L264.212 134.81C271.818 136.473 276.234 140.262 276.261 146.587C276.234 154.056 270.428 158.554 260.614 158.581C251.538 158.556 245.43 154.798 244.407 147.093C244.26 145.984 245.175 145.06 246.294 145.06H251.31C252.37 145.06 253.203 145.91 253.556 146.91C254.472 149.509 257.026 150.839 260.505 150.839C264.43 150.839 266.775 149.122 266.829 146.587C266.775 144.297 264.757 143.097 260.396 142.116L256.252 141.135C249.464 139.554 245.294 136.173 245.294 130.231C245.266 122.898 251.727 118.018 260.668 118.018C268.91 118.018 274.493 122.083 275.539 128.272C275.724 129.37 274.807 130.285 273.694 130.285H268.611Z" fill="#FFD43D"/>
</g>
<defs>
<filter id="filter0_f_4860_79425" x="121" y="12" width="281.002" height="309.404" filterUnits="userSpaceOnUse" color-interpolation-filters="sRGB">
<feFlood flood-opacity="0" result="BackgroundImageFix"/>
<feBlend mode="normal" in="SourceGraphic" in2="BackgroundImageFix" result="shape"/>
<feGaussianBlur stdDeviation="1" result="effect1_foregroundBlur_4860_79425"/>
</filter>
<filter id="filter1_f_4860_79425" x="25.043" y="156.712" width="86.707" height="113.198" filterUnits="userSpaceOnUse" color-interpolation-filters="sRGB">
<feFlood flood-opacity="0" result="BackgroundImageFix"/>
<feBlend mode="normal" in="SourceGraphic" in2="BackgroundImageFix" result="shape"/>
<feGaussianBlur stdDeviation="1.5" result="effect1_foregroundBlur_4860_79425"/>
</filter>
<filter id="filter2_d_4860_79425" x="61" y="72.9836" width="261.719" height="212.051" filterUnits="userSpaceOnUse" color-interpolation-filters="sRGB">
<feFlood flood-opacity="0" result="BackgroundImageFix"/>
<feColorMatrix in="SourceAlpha" type="matrix" values="0 0 0 0 0 0 0 0 0 0 0 0 0 0 0 0 0 0 127 0" result="hardAlpha"/>
<feOffset dy="-5"/>
<feGaussianBlur stdDeviation="5"/>
<feComposite in2="hardAlpha" operator="out"/>
<feColorMatrix type="matrix" values="0 0 0 0 0 0 0 0 0 0 0 0 0 0 0 0 0 0 0.05 0"/>
<feBlend mode="normal" in2="BackgroundImageFix" result="effect1_dropShadow_4860_79425"/>
<feBlend mode="normal" in="SourceGraphic" in2="effect1_dropShadow_4860_79425" result="shape"/>
</filter>
<filter id="filter3_d_4860_79425" x="60.9336" y="67.0395" width="265.99" height="250.263" filterUnits="userSpaceOnUse" color-interpolation-filters="sRGB">
<feFlood flood-opacity="0" result="BackgroundImageFix"/>
<feColorMatrix in="SourceAlpha" type="matrix" values="0 0 0 0 0 0 0 0 0 0 0 0 0 0 0 0 0 0 127 0" result="hardAlpha"/>
<feOffset dy="5"/>
<feGaussianBlur stdDeviation="10"/>
<feComposite in2="hardAlpha" operator="out"/>
<feColorMatrix type="matrix" values="0 0 0 0 0 0 0 0 0 0 0 0 0 0 0 0 0 0 0.1 0"/>
<feBlend mode="normal" in2="BackgroundImageFix" result="effect1_dropShadow_4860_79425"/>
<feBlend mode="normal" in="SourceGraphic" in2="effect1_dropShadow_4860_79425" result="shape"/>
</filter>
<filter id="filter4_d_4860_79425" x="65.9766" y="72.0842" width="255.902" height="241.001" filterUnits="userSpaceOnUse" color-interpolation-filters="sRGB">
<feFlood flood-opacity="0" result="BackgroundImageFix"/>
<feColorMatrix in="SourceAlpha" type="matrix" values="0 0 0 0 0 0 0 0 0 0 0 0 0 0 0 0 0 0 127 0" result="hardAlpha"/>
<feOffset dy="5"/>
<feGaussianBlur stdDeviation="10"/>
<feComposite in2="hardAlpha" operator="out"/>
<feColorMatrix type="matrix" values="0 0 0 0 0 0 0 0 0 0 0 0 0 0 0 0 0 0 0.1 0"/>
<feBlend mode="normal" in2="BackgroundImageFix" result="effect1_dropShadow_4860_79425"/>
<feBlend mode="normal" in="SourceGraphic" in2="effect1_dropShadow_4860_79425" result="shape"/>
</filter>
<filter id="filter5_d_4860_79425" x="61" y="162.387" width="140.859" height="100.297" filterUnits="userSpaceOnUse" color-interpolation-filters="sRGB">
<feFlood flood-opacity="0" result="BackgroundImageFix"/>
<feColorMatrix in="SourceAlpha" type="matrix" values="0 0 0 0 0 0 0 0 0 0 0 0 0 0 0 0 0 0 127 0" result="hardAlpha"/>
<feOffset dy="-5"/>
<feGaussianBlur stdDeviation="5"/>
<feComposite in2="hardAlpha" operator="out"/>
<feColorMatrix type="matrix" values="0 0 0 0 0 0 0 0 0 0 0 0 0 0 0 0 0 0 0.05 0"/>
<feBlend mode="normal" in2="BackgroundImageFix" result="effect1_dropShadow_4860_79425"/>
<feBlend mode="normal" in="SourceGraphic" in2="effect1_dropShadow_4860_79425" result="shape"/>
</filter>
<filter id="filter6_d_4860_79425" x="183.516" y="162.387" width="140.031" height="100.297" filterUnits="userSpaceOnUse" color-interpolation-filters="sRGB">
<feFlood flood-opacity="0" result="BackgroundImageFix"/>
<feColorMatrix in="SourceAlpha" type="matrix" values="0 0 0 0 0 0 0 0 0 0 0 0 0 0 0 0 0 0 127 0" result="hardAlpha"/>
<feOffset dy="-5"/>
<feGaussianBlur stdDeviation="5"/>
<feComposite in2="hardAlpha" operator="out"/>
<feColorMatrix type="matrix" values="0 0 0 0 0 0 0 0 0 0 0 0 0 0 0 0 0 0 0.05 0"/>
<feBlend mode="normal" in2="BackgroundImageFix" result="effect1_dropShadow_4860_79425"/>
<feBlend mode="normal" in="SourceGraphic" in2="effect1_dropShadow_4860_79425" result="shape"/>
</filter>
<filter id="filter7_d_4860_79425" x="61" y="180.599" width="262.547" height="124.304" filterUnits="userSpaceOnUse" color-interpolation-filters="sRGB">
<feFlood flood-opacity="0" result="BackgroundImageFix"/>
<feColorMatrix in="SourceAlpha" type="matrix" values="0 0 0 0 0 0 0 0 0 0 0 0 0 0 0 0 0 0 127 0" result="hardAlpha"/>
<feOffset dy="-5"/>
<feGaussianBlur stdDeviation="5"/>
<feComposite in2="hardAlpha" operator="out"/>
<feColorMatrix type="matrix" values="0 0 0 0 0 0 0 0 0 0 0 0 0 0 0 0 0 0 0.05 0"/>
<feBlend mode="normal" in2="BackgroundImageFix" result="effect1_dropShadow_4860_79425"/>
<feBlend mode="normal" in="SourceGraphic" in2="effect1_dropShadow_4860_79425" result="shape"/>
</filter>
</defs>
</svg>
