<svg width="24" height="24" viewBox="0 0 24 24" fill="none" xmlns="http://www.w3.org/2000/svg">
<path d="M19.3721 15.0485L19.3721 15.0485L19.3785 15.0493C20.0852 15.1409 20.5 15.6406 20.5 16.1274V17.1237C20.5 17.5384 20.0878 17.9884 19.4344 17.9884H15.014H14.6315L14.5314 18.3574C14.2606 19.3555 13.5345 20.5 12.0753 20.5C10.6128 20.5 9.81416 19.3319 9.48624 18.3325L9.37333 17.9884H9.01116H4.56558C3.89706 17.9884 3.5 17.5481 3.5 17.1237V16.1274C3.5 15.6415 3.91405 15.1403 4.62346 15.0407C4.88158 15.0077 5.12327 14.952 5.3306 14.8736C5.52793 14.799 5.74222 14.6859 5.8926 14.5089L5.92953 14.4655L5.95574 14.4148C5.99966 14.3299 6.02623 14.2353 6.04339 14.1657C6.06274 14.0872 6.08002 13.9978 6.09573 13.9036C6.12723 13.7147 6.15643 13.4821 6.18351 13.2309C6.23779 12.7275 6.28645 12.1219 6.32825 11.5869L6.32879 11.5803C6.43374 10.2957 6.54299 8.95844 6.75593 7.79288C6.97345 6.60226 7.2826 5.69828 7.71882 5.20753L7.71919 5.20711C8.44593 4.38767 9.46861 3.95401 10.363 3.72869C11.2517 3.50477 11.9606 3.5 12 3.5C12.0393 3.5 12.748 3.50476 13.6365 3.7296C14.5305 3.95584 15.5532 4.39132 16.2801 5.21464L16.2801 5.21465L16.2823 5.21719C16.7173 5.70311 17.0264 6.60573 17.2441 7.79804C17.4567 8.963 17.5659 10.3001 17.6708 11.5831L17.6719 11.597L17.6721 11.5991C17.6798 11.6891 17.6876 11.7813 17.6956 11.8749C17.7345 12.3332 17.7761 12.8238 17.8229 13.2451C17.8511 13.4987 17.8821 13.7361 17.917 13.9317C17.9474 14.1021 17.9922 14.3155 18.0745 14.4664L18.1009 14.5148L18.1372 14.5562C18.2835 14.7234 18.5008 14.8232 18.6789 14.8865C18.8768 14.9568 19.1137 15.0116 19.3721 15.0485Z" fill="black" stroke="black"/>
</svg>
