<svg width="330" height="217" viewBox="0 0 330 217" fill="none" xmlns="http://www.w3.org/2000/svg">
<ellipse opacity="0.15" cx="116.956" cy="116.954" rx="116.956" ry="116.954" transform="matrix(-0.80772 -0.589567 0.550052 -0.835131 200.44 216.838)" fill="url(#paint0_linear_6064_6088)"/>
<path opacity="0.15" d="M27.3303 -58.6531C62.8593 -112.596 133.767 -125.591 185.707 -87.6795C237.648 -49.7675 250.952 24.6956 215.423 78.6384C179.894 132.581 108.986 145.577 57.0456 107.665C5.10531 69.7528 -8.19868 -4.71024 27.3303 -58.6531ZM165.29 42.0455C181.879 16.8579 175.667 -17.9112 151.415 -35.6134C127.162 -53.3157 94.053 -47.2477 77.4635 -22.0601C60.8739 3.12743 67.0859 37.8965 91.3384 55.5988C115.591 73.301 148.7 67.233 165.29 42.0455Z" fill="url(#paint1_linear_6064_6088)"/>
<g opacity="0.5">
<ellipse cx="212.562" cy="46.4594" rx="2.5625" ry="2.5844" fill="white" fill-opacity="0.29"/>
<ellipse cx="289.438" cy="46.4594" rx="2.5625" ry="2.5844" fill="white" fill-opacity="0.29"/>
<ellipse cx="212.562" cy="5.10882" rx="2.5625" ry="2.5844" fill="white" fill-opacity="0.29"/>
<ellipse cx="212.562" cy="67.1323" rx="2.5625" ry="2.5844" fill="white" fill-opacity="0.29"/>
<ellipse cx="289.438" cy="5.10882" rx="2.5625" ry="2.5844" fill="white" fill-opacity="0.29"/>
<ellipse cx="289.438" cy="67.1323" rx="2.5625" ry="2.5844" fill="white" fill-opacity="0.29"/>
<ellipse cx="212.562" cy="25.7817" rx="2.5625" ry="2.5844" fill="white" fill-opacity="0.29"/>
<ellipse cx="289.438" cy="25.7817" rx="2.5625" ry="2.5844" fill="white" fill-opacity="0.29"/>
<ellipse cx="238.188" cy="46.4594" rx="2.5625" ry="2.5844" fill="white" fill-opacity="0.29"/>
<ellipse cx="238.188" cy="5.10882" rx="2.5625" ry="2.5844" fill="white" fill-opacity="0.29"/>
<ellipse cx="238.188" cy="67.1323" rx="2.5625" ry="2.5844" fill="white" fill-opacity="0.29"/>
<ellipse cx="238.188" cy="25.7817" rx="2.5625" ry="2.5844" fill="white" fill-opacity="0.29"/>
<ellipse cx="263.812" cy="46.4594" rx="2.5625" ry="2.5844" fill="white" fill-opacity="0.29"/>
<ellipse cx="263.812" cy="5.10882" rx="2.5625" ry="2.5844" fill="white" fill-opacity="0.29"/>
<ellipse cx="263.812" cy="67.1323" rx="2.5625" ry="2.5844" fill="white" fill-opacity="0.29"/>
<ellipse cx="263.812" cy="25.7817" rx="2.5625" ry="2.5844" fill="white" fill-opacity="0.29"/>
</g>
<defs>
<linearGradient id="paint0_linear_6064_6088" x1="-224.084" y1="-304.18" x2="122.846" y2="126.788" gradientUnits="userSpaceOnUse">
<stop stop-color="white"/>
<stop offset="1" stop-color="white" stop-opacity="0.07"/>
</linearGradient>
<linearGradient id="paint1_linear_6064_6088" x1="163.967" y1="561.863" x2="125.378" y2="-1.90465" gradientUnits="userSpaceOnUse">
<stop stop-color="white"/>
<stop offset="1" stop-color="white" stop-opacity="0"/>
</linearGradient>
</defs>
</svg>
