<svg width="199" height="78" viewBox="0 0 199 78" fill="none" xmlns="http://www.w3.org/2000/svg">
<path d="M40.1056 33.9306C41.4518 32.8099 42.5374 31.4694 43.3842 29.9312C44.231 28.3929 44.687 26.4591 44.7521 24.1737C44.687 22.1521 44.2744 20.3281 43.5145 18.68C42.7545 17.0319 41.6906 15.5816 40.3661 14.3729C39.0199 13.1643 37.4349 12.2194 35.6327 11.5382C33.8306 10.857 31.7679 10.5273 29.488 10.5273C27.7944 10.5273 26.0574 10.835 24.277 11.4503C22.4965 12.0656 20.9332 12.9885 19.587 14.1971C18.2408 15.4058 17.09 16.8561 16.1564 18.5482C15.2227 20.2402 14.7233 22.0202 14.6582 23.91C14.5931 26.2174 15.0708 28.1952 16.0695 29.7993C17.0683 31.4255 18.2408 32.8099 19.6304 33.9306C20.9983 35.0513 22.5399 35.9303 24.2335 36.5456C25.9271 37.1609 27.6859 37.5125 29.488 37.5565C31.7027 37.4905 33.7003 37.1609 35.459 36.5456C37.1961 35.9303 38.7594 35.0733 40.1056 33.9306Z" fill="white"/>
<path d="M55.1307 61.7509C56.4769 60.6302 57.5626 59.2897 58.4094 57.7515C59.2561 56.2132 59.7121 54.2794 59.7773 51.9941C59.7121 49.9724 59.2996 48.1485 58.5396 46.5003C57.7797 44.8522 56.7158 43.4019 55.3913 42.1933C54.0451 40.9846 52.4601 40.0397 50.6579 39.3585C48.8557 38.6773 46.793 38.3477 44.5132 38.3477C42.8196 38.3477 41.0826 38.6553 39.3021 39.2706C37.5217 39.8859 35.9584 40.8088 34.6122 42.0175C33.266 43.2261 32.1369 44.6764 31.2033 46.3685C30.2696 48.0606 29.7702 49.8405 29.7051 51.7304C29.6399 54.0377 30.1176 56.0155 31.1164 57.6196C32.1152 59.2458 33.2877 60.6302 34.6773 61.7509C36.0452 62.8716 37.5868 63.7506 39.2804 64.3659C40.974 64.9812 42.7327 65.3328 44.5349 65.3768C46.7496 65.3108 48.7472 64.9812 50.5059 64.3659C52.2429 63.7506 53.7845 62.8716 55.1307 61.7509Z" fill="white"/>
<path d="M0 77H76.0815V0H0V77ZM66.1805 57.75C65.2686 60.1453 64.0092 62.2548 62.4025 64.0568C60.7957 65.8587 58.9067 67.2871 56.7571 68.3199C54.5859 69.3527 52.2192 69.8801 49.6571 69.8801H20.9745C13.679 69.111 9.57533 65.3313 8.70682 58.5191V26.4797C8.81538 23.5791 9.51019 20.986 10.7695 18.7226C12.0289 16.4372 13.6573 14.4595 15.6332 12.7894C17.609 11.0973 19.802 9.8008 22.1687 8.87785C24.5354 7.95491 26.9238 7.44949 29.3122 7.31764C34.7404 6.85616 40.2772 7.25171 45.8791 8.57021C48.2675 9.05365 50.5473 9.95462 52.6752 11.2731C54.803 12.6136 56.6703 14.1958 58.277 16.0636C59.8838 17.9315 61.0997 20.0191 61.9682 22.3265C62.815 24.6338 63.2493 26.9412 63.2493 29.2486C63.2493 32.0833 62.6413 34.7423 61.4037 37.2255V37.665C64.5086 40.8074 66.4845 44.8947 67.3747 49.905C67.4833 52.7397 67.0707 55.3547 66.1805 57.75Z" fill="white"/>
<path d="M101.946 11.6522C102.951 10.5516 103.467 9.23369 103.467 7.72554C103.467 6.54347 103.209 5.49728 102.679 4.65489C102.163 3.79891 101.457 3.10598 100.573 2.5625C99.6902 2.03261 98.6848 1.63859 97.5842 1.38043C96.4837 1.13587 95.3288 1 94.1603 1H93.5081C93.2772 1 93.0598 1 92.8288 1.01359L88.6576 1.09511C88.2092 1.1087 87.8152 1.27174 87.4891 1.59783C87.163 1.92391 87 2.31793 87 2.77989L87.0272 22.3179C87.0272 22.7799 87.1902 23.1739 87.5299 23.5C87.856 23.8261 88.2636 24.0027 88.712 24.0027L96.769 23.9891C98.25 23.9619 99.5679 23.663 100.709 23.1195C101.851 22.5761 102.761 21.7744 103.413 20.7282C104.065 19.682 104.391 18.3913 104.391 16.8696C104.391 15.7011 104.147 14.6413 103.685 13.7581C103.236 12.9022 102.652 12.1956 101.946 11.6522ZM90.3967 20.606L90.3831 13.7174L96.4565 13.6223H96.6603C97.9375 13.6223 98.9973 13.8532 99.8261 14.3016C100.628 14.7364 101.035 15.5788 101.035 16.8016C101.035 18.1739 100.655 19.1657 99.9212 19.7364C99.1739 20.307 98.0869 20.606 96.7011 20.6331L90.3967 20.606ZM99.5815 9.28804C99.2283 9.6413 98.7663 9.88586 98.2092 10.0217C97.6386 10.1712 97.0272 10.2391 96.4022 10.2527L90.3831 10.3478L90.3696 4.4375L92.8967 4.39674C93.0462 4.39674 93.1956 4.39674 93.3587 4.38315C93.5217 4.38315 93.6712 4.38315 93.8206 4.38315C94.7989 4.38315 95.7908 4.47826 96.769 4.66847C97.7337 4.85869 98.5353 5.19837 99.1739 5.70108C99.7989 6.19021 100.111 6.91032 100.111 7.83423C100.098 8.45923 99.9212 8.94836 99.5815 9.28804Z" fill="white"/>
<path d="M122.949 6.3125C122.487 6.3125 122.12 6.47554 121.848 6.81522C121.576 7.1413 121.441 7.53532 121.441 7.98369L121.291 9.23369C121.006 8.8125 120.612 8.3913 120.109 7.99728C119.511 7.52174 118.832 7.12772 118.085 6.81522C117.337 6.50272 116.549 6.33967 115.748 6.33967C114.498 6.33967 113.329 6.58424 112.269 7.07337C111.21 7.5625 110.272 8.22826 109.471 9.08424C108.682 9.92663 108.057 10.9049 107.609 11.9918C107.161 13.0652 106.943 14.2201 106.943 15.4022C106.943 16.5978 107.174 17.7391 107.623 18.8261C108.071 19.8994 108.71 20.8641 109.511 21.6929C110.313 22.5217 111.25 23.1875 112.31 23.663C113.37 24.1386 114.511 24.3831 115.721 24.3831C116.794 24.3831 117.881 24.1522 118.954 23.6902C119.932 23.2554 120.721 22.6168 121.264 21.7744L121.4 22.7663C121.4 23.2147 121.536 23.6223 121.807 23.9484C122.079 24.288 122.446 24.4511 122.922 24.4511C123.384 24.4511 123.778 24.288 124.104 23.9484C124.43 23.6223 124.606 23.2147 124.606 22.7663L124.634 8.03804V7.99728C124.634 7.53533 124.471 7.1413 124.131 6.81522C123.805 6.48913 123.411 6.3125 122.949 6.3125ZM115.748 20.9864C114.756 20.9864 113.832 20.7283 113.017 20.2119C112.188 19.6956 111.522 19.0027 111.047 18.1467C110.557 17.2908 110.313 16.3533 110.313 15.3478C110.313 14.356 110.557 13.4185 111.033 12.5625C111.509 11.7065 112.161 11.0136 112.99 10.4973C113.805 9.98098 114.729 9.72282 115.748 9.72282C116.78 9.72282 117.718 9.98098 118.519 10.4973C119.321 11.0136 119.973 11.7065 120.449 12.5625C120.924 13.4185 121.155 14.356 121.155 15.375C121.155 16.3668 120.911 17.3043 120.435 18.1603C119.946 19.0163 119.294 19.7092 118.479 20.2255C117.65 20.7283 116.74 20.9864 115.748 20.9864Z" fill="white"/>
<path d="M141.239 10.158C140.804 9.17977 140.111 8.29662 139.173 7.56292C138.236 6.80205 137.054 6.43521 135.654 6.43521C134.581 6.43521 133.63 6.72053 132.815 7.2776C132.067 7.7939 131.415 8.31021 130.858 8.8401L130.627 8.03847C130.491 7.60368 130.315 7.20966 130.07 6.88358C129.825 6.5439 129.459 6.38086 128.997 6.38086C128.535 6.38086 128.168 6.5439 127.91 6.88358C127.665 7.20966 127.529 7.60368 127.529 8.06564L127.556 22.658C127.556 23.1336 127.72 23.5276 128.046 23.8673C128.372 24.1933 128.779 24.37 129.241 24.37C129.703 24.37 130.097 24.2069 130.423 23.8808C130.749 23.5548 130.926 23.1471 130.926 22.6852L130.912 16.3537C130.899 14.3564 131.32 12.7395 132.135 11.5711C132.95 10.4026 134.146 9.81836 135.668 9.81836C136.293 9.81836 136.823 9.99499 137.23 10.3482C137.638 10.7015 137.95 11.1091 138.141 11.5575C138.317 11.9515 138.44 12.4135 138.494 12.9298C138.548 13.4597 138.575 14.0439 138.575 14.6553V22.6716C138.575 23.1336 138.739 23.5276 139.078 23.8673C139.404 24.1933 139.812 24.3564 140.274 24.3564C140.736 24.3564 141.13 24.1933 141.456 23.8673C141.782 23.5412 141.959 23.1336 141.959 22.6716V14.6553C141.959 13.9895 141.918 13.2694 141.85 12.5086C141.782 11.7205 141.578 10.9325 141.239 10.158Z" fill="white"/>
<path d="M159.798 6.3125C159.337 6.3125 158.97 6.47554 158.698 6.81522C158.426 7.1413 158.29 7.53532 158.29 7.98369L158.141 9.23369C157.856 8.8125 157.462 8.3913 156.959 7.99728C156.375 7.52174 155.682 7.12772 154.934 6.81522C154.187 6.50272 153.399 6.33967 152.611 6.33967C151.361 6.33967 150.193 6.58424 149.133 7.07337C148.073 7.5625 147.135 8.22826 146.334 9.08424C145.546 9.92663 144.921 10.9049 144.472 11.9918C144.024 13.0652 143.807 14.2201 143.807 15.4022C143.807 16.5978 144.038 17.7391 144.486 18.8261C144.934 19.8994 145.573 20.8641 146.375 21.6929C147.176 22.5217 148.114 23.1875 149.173 23.663C150.233 24.1386 151.375 24.3831 152.584 24.3831C153.657 24.3831 154.744 24.1522 155.818 23.6902C156.796 23.2554 157.584 22.6168 158.127 21.7744L158.263 22.7663C158.263 23.2147 158.399 23.6223 158.671 23.9484C158.943 24.288 159.309 24.4511 159.785 24.4511C160.247 24.4511 160.641 24.288 160.967 23.9484C161.293 23.6223 161.47 23.2147 161.47 22.7663L161.497 8.06522V7.99728C161.497 7.53533 161.334 7.1413 160.994 6.81522C160.654 6.48913 160.26 6.3125 159.798 6.3125ZM152.597 20.9864C151.606 20.9864 150.682 20.7283 149.866 20.2119C149.038 19.6956 148.372 19.0027 147.896 18.1467C147.407 17.2908 147.163 16.3533 147.163 15.3478C147.163 14.356 147.407 13.4185 147.883 12.5625C148.358 11.7065 149.01 11.0136 149.839 10.4973C150.654 9.98098 151.578 9.72282 152.597 9.72282C153.63 9.72282 154.568 9.98098 155.369 10.4973C156.184 11.0136 156.823 11.7065 157.298 12.5625C157.774 13.4185 158.005 14.356 158.005 15.375C158.005 16.3668 157.76 17.3043 157.285 18.1603C156.796 19.0163 156.144 19.7092 155.328 20.2255C154.5 20.7283 153.589 20.9864 152.597 20.9864Z" fill="white"/>
<path d="M178.075 10.158C177.64 9.17977 176.947 8.29662 176.009 7.56292C175.085 6.80205 173.903 6.43521 172.504 6.43521C171.431 6.43521 170.479 6.72053 169.664 7.2776C168.917 7.7939 168.265 8.31021 167.708 8.8401L167.477 8.03847C167.341 7.60368 167.164 7.20966 166.92 6.88358C166.675 6.5439 166.308 6.38086 165.846 6.38086C165.384 6.38086 165.017 6.5439 164.759 6.88358C164.515 7.20966 164.379 7.60368 164.379 8.06564L164.406 22.658C164.406 23.1336 164.569 23.5276 164.895 23.8673C165.221 24.1933 165.629 24.37 166.091 24.37C166.553 24.37 166.947 24.2069 167.273 23.8808C167.599 23.5548 167.776 23.1471 167.776 22.6852L167.762 16.3537C167.748 14.3564 168.17 12.7395 168.985 11.5711C169.8 10.4026 170.996 9.81836 172.517 9.81836C173.142 9.81836 173.672 9.99499 174.08 10.3482C174.488 10.7015 174.8 11.1091 174.99 11.5575C175.167 11.9515 175.289 12.4135 175.344 12.9298C175.398 13.4597 175.425 14.0439 175.425 14.6553V22.6716C175.425 23.1336 175.588 23.5276 175.928 23.8673C176.254 24.1933 176.662 24.3564 177.123 24.3564C177.585 24.3564 177.979 24.1933 178.306 23.8673C178.632 23.5412 178.808 23.1336 178.808 22.6716V14.6553C178.808 13.9895 178.767 13.2694 178.7 12.5086C178.632 11.7205 178.428 10.9325 178.075 10.158Z" fill="white"/>
<path d="M197.3 6.3125C196.838 6.3125 196.472 6.47554 196.2 6.81522C195.928 7.1413 195.792 7.53532 195.792 7.98369L195.643 9.23369C195.357 8.8125 194.963 8.3913 194.461 7.99728C193.863 7.52174 193.184 7.12772 192.436 6.81522C191.689 6.50272 190.901 6.33967 190.113 6.33967C188.863 6.33967 187.694 6.58424 186.635 7.07337C185.575 7.5625 184.637 8.22826 183.836 9.08424C183.048 9.92663 182.423 10.9049 181.974 11.9918C181.526 13.0652 181.309 14.2201 181.309 15.4022C181.309 16.5978 181.54 17.7391 181.988 18.8261C182.436 19.8994 183.075 20.8641 183.877 21.6929C184.678 22.5217 185.616 23.1875 186.675 23.663C187.735 24.1386 188.877 24.3831 190.086 24.3831C191.159 24.3831 192.246 24.1522 193.319 23.6902C194.298 23.2554 195.086 22.6168 195.629 21.7744L195.765 22.7663C195.765 23.2147 195.901 23.6223 196.173 23.9484C196.444 24.288 196.811 24.4511 197.287 24.4511C197.749 24.4511 198.143 24.288 198.469 23.9484C198.795 23.6223 198.972 23.2147 198.972 22.7663L198.999 8.06522V7.99728C198.999 7.53533 198.836 7.1413 198.496 6.81522C198.156 6.48913 197.749 6.3125 197.3 6.3125ZM190.086 20.9864C189.094 20.9864 188.17 20.7283 187.355 20.2119C186.526 19.6956 185.86 19.0027 185.385 18.1467C184.896 17.2908 184.651 16.3533 184.651 15.3478C184.651 14.356 184.896 13.4185 185.371 12.5625C185.847 11.7065 186.499 11.0136 187.328 10.4973C188.143 9.98098 189.067 9.72282 190.086 9.72282C191.118 9.72282 192.056 9.98098 192.858 10.4973C193.673 11.0136 194.311 11.7065 194.787 12.5625C195.262 13.4185 195.493 14.356 195.493 15.375C195.493 16.3668 195.249 17.3043 194.773 18.1603C194.284 19.0163 193.632 19.7092 192.817 20.2255C192.002 20.7283 191.078 20.9864 190.086 20.9864Z" fill="white"/>
<path d="M97.9103 34.7609C96.6331 34.2582 95.2065 34 93.6576 34L88.6576 34.0272C88.1141 34.0408 87.7065 34.2446 87.4212 34.625C87.1359 35.0054 87 35.3587 87 35.6576L87.0272 55.5625C87.0272 56.0109 87.1902 56.4049 87.5299 56.7174C87.856 57.0299 88.2636 57.1929 88.7119 57.1929C89.1739 57.1929 89.5679 57.0435 89.894 56.731C90.2201 56.4185 90.3967 56.038 90.3967 55.5761L90.3831 48.7011L92.9782 48.6331C94.7174 48.5788 96.2935 48.2935 97.6522 47.7908C99.0244 47.2744 100.125 46.4592 100.913 45.3587C101.701 44.2581 102.109 42.7908 102.109 40.9837C102.109 39.4076 101.728 38.0761 100.967 37.0571C100.22 36.0516 99.1875 35.2772 97.9103 34.7609ZM90.3696 45.3179L90.356 37.3831H93.5489C95.1793 37.3831 96.4565 37.6685 97.3804 38.2391C98.2772 38.7962 98.7391 39.7337 98.7391 41.0109C98.7391 42.6277 98.2364 43.7418 97.231 44.3125C96.2119 44.8967 94.7581 45.2092 92.9239 45.25L90.3696 45.3179Z" fill="white"/>
<path d="M131.865 39.7612C131.159 39.5166 130.248 39.3808 129.161 39.3808C128.564 39.3808 127.979 39.5302 127.436 39.8291C126.892 40.1281 126.417 40.4677 126.023 40.8753C125.738 41.1607 125.507 41.4324 125.357 41.677L125.235 40.8074C125.099 40.2911 124.854 39.9107 124.515 39.6933C124.175 39.4759 123.876 39.3672 123.618 39.3672C123.183 39.3672 122.816 39.5302 122.558 39.8699C122.314 40.196 122.178 40.6036 122.178 41.1063V55.7259C122.178 56.2286 122.327 56.6362 122.64 56.9215C122.939 57.2068 123.36 57.3563 123.863 57.3563C124.379 57.3563 124.8 57.2068 125.099 56.9215C125.398 56.6226 125.547 56.2286 125.547 55.7395V47.5465C125.547 46.5819 125.67 45.6851 125.887 44.9107C126.118 44.1362 126.498 43.5112 127.015 43.0628C127.531 42.6145 128.251 42.3835 129.148 42.3835C129.596 42.3835 130.045 42.4922 130.479 42.7096C130.955 42.9406 131.349 43.0492 131.661 43.0085C132.531 42.9134 132.966 42.3971 132.966 41.5003C132.979 40.6036 132.613 40.0194 131.865 39.7612Z" fill="white"/>
<path d="M143.467 53.2549C143.291 53.2549 143.101 53.2957 142.91 53.3636C142.72 53.4315 142.571 53.5131 142.435 53.6082C142.109 53.8392 141.715 53.9614 141.28 53.9614C140.954 53.9614 140.75 53.8799 140.655 53.7169C140.546 53.5402 140.492 53.2006 140.492 52.6979L140.505 42.9424H142.557C142.992 42.9424 143.372 42.7794 143.685 42.4669C143.997 42.1544 144.16 41.7739 144.16 41.3392C144.16 40.9044 143.997 40.5239 143.685 40.2114C143.372 39.8989 142.992 39.7359 142.557 39.7359H140.533V36.6653C140.533 36.2033 140.37 35.8093 140.03 35.4832C139.704 35.1571 139.296 34.9805 138.834 34.9805C138.372 34.9805 137.965 35.1435 137.639 35.4832C137.313 35.8093 137.15 36.2169 137.15 36.6653V39.7359H135.179C134.745 39.7359 134.364 39.8989 134.052 40.2114C133.739 40.5239 133.576 40.9044 133.576 41.3392C133.576 41.7739 133.739 42.1544 134.052 42.4669C134.364 42.7794 134.745 42.9424 135.179 42.9424H137.122L137.109 52.793V52.9424C137.109 54.1924 137.476 55.2386 138.209 56.081C138.943 56.9234 140.003 57.3446 141.361 57.3446C141.959 57.3446 142.53 57.2359 143.06 57.0321C143.59 56.8283 144.052 56.5701 144.459 56.2576C144.908 55.918 145.139 55.4696 145.139 54.9261C145.139 54.4642 144.976 54.0701 144.636 53.744C144.323 53.418 143.929 53.2549 143.467 53.2549Z" fill="white"/>
<path d="M161.5 49.3537C161.12 48.7559 160.59 48.2803 159.951 47.9406C159.313 47.601 158.606 47.3428 157.832 47.1662C157.071 46.9895 156.283 46.8673 155.508 46.7722C155.101 46.7314 154.584 46.677 153.946 46.6227C153.321 46.5684 152.682 46.4732 152.057 46.351C151.446 46.2287 150.916 46.052 150.495 45.8075C150.101 45.5901 149.897 45.2912 149.897 44.9243C149.897 44.3944 150.142 43.9868 150.631 43.6743C151.133 43.3482 151.745 43.1173 152.438 42.9678C153.131 42.8184 153.769 42.7504 154.326 42.7504C155.264 42.7504 156.093 42.9135 156.772 43.2396C157.451 43.5521 157.968 44.0412 158.294 44.6662C158.416 44.9107 158.633 45.1281 158.919 45.3184C159.218 45.495 159.503 45.5901 159.788 45.5901C160.25 45.5901 160.644 45.427 160.984 45.0874C161.31 44.7613 161.473 44.3537 161.473 43.9053C161.473 43.6064 161.405 43.3347 161.269 43.1037C160.671 41.976 159.734 41.0521 158.484 40.3863C157.248 39.7205 155.848 39.3809 154.313 39.3809C153.416 39.3809 152.506 39.4896 151.595 39.7069C150.685 39.9243 149.829 40.2504 149.068 40.6988C148.294 41.1472 147.669 41.7178 147.207 42.4243C146.731 43.1309 146.5 43.9732 146.5 44.9379C146.5 46.0113 146.772 46.8944 147.315 47.5466C147.845 48.1852 148.565 48.6879 149.421 49.0412C150.277 49.3808 151.215 49.6254 152.207 49.7885C153.199 49.9379 154.177 50.0602 155.101 50.1689C155.59 50.2232 156.12 50.2776 156.677 50.3455C157.234 50.4135 157.709 50.5357 158.104 50.7395C158.484 50.9298 158.661 51.2287 158.661 51.6635C158.661 52.2341 158.443 52.6825 157.995 53.0086C157.533 53.3482 156.962 53.5928 156.296 53.7287C155.631 53.8645 154.965 53.9461 154.34 53.9461C153.158 53.9461 152.139 53.7694 151.296 53.4162C150.468 53.0629 149.829 52.4923 149.435 51.7178C149.313 51.4597 149.095 51.2287 148.796 51.052C148.498 50.8618 148.199 50.7803 147.913 50.7803C147.451 50.7803 147.057 50.9433 146.731 51.2694C146.405 51.5955 146.229 52.0031 146.229 52.4651C146.229 52.7232 146.296 52.995 146.432 53.2531C147.112 54.5711 148.185 55.6037 149.612 56.283C151.038 56.9624 152.628 57.3156 154.367 57.3156C155.631 57.3156 156.854 57.1118 158.022 56.7178C159.19 56.3238 160.155 55.7124 160.902 54.8836C161.65 54.0548 162.044 52.9678 162.044 51.677C162.084 50.7124 161.894 49.9515 161.5 49.3537Z" fill="white"/>
<path d="M120.681 40.7683C120.681 40.3064 120.518 39.9124 120.179 39.5863C119.853 39.2602 119.445 39.0836 118.997 39.0836C118.535 39.0836 118.154 39.2466 117.882 39.5863C117.842 39.6406 117.815 39.695 117.774 39.7493V41.2167L117.176 40.6189C116.646 40.089 115.804 40.089 115.274 40.6189L113.915 41.9776V40.0482C113.915 39.301 113.317 38.7031 112.57 38.7031H110.301C109.554 38.7031 108.956 39.301 108.956 40.0482V41.964L107.611 40.6053C107.081 40.0754 106.238 40.0754 105.709 40.6053L104.105 42.2086C103.575 42.7384 103.575 43.5808 104.105 44.1107L105.464 45.4694H103.548C102.801 45.4694 102.203 46.0673 102.203 46.8145V49.0836C102.203 49.8308 102.801 50.4287 103.548 50.4287H105.464L104.105 51.7874C103.575 52.3172 103.575 53.1596 104.105 53.6895L105.709 55.2928C106.238 55.8227 107.081 55.8227 107.611 55.2928L108.956 53.9341V55.8499C108.956 56.5971 109.554 57.195 110.301 57.195H112.57C113.317 57.195 113.915 56.5971 113.915 55.8499V53.9341L115.274 55.2928C115.804 55.8227 116.646 55.8227 117.176 55.2928L117.774 54.695V56.5835C117.801 56.6243 117.828 56.6651 117.855 56.6922C118.127 57.0319 118.507 57.195 118.969 57.195C119.431 57.195 119.825 57.0319 120.165 56.6922C120.491 56.3662 120.654 55.9586 120.654 55.5102L120.668 49.2738C120.681 49.2194 120.681 49.1515 120.681 49.0971V46.8145C120.681 46.7738 120.668 46.733 120.668 46.6923L120.681 40.8091V40.7683ZM111.442 51.5971C109.418 51.5971 107.787 49.9667 107.787 47.9423C107.787 45.9178 109.431 44.2874 111.442 44.2874C113.467 44.2874 115.097 45.9314 115.097 47.9423C115.097 49.9531 113.467 51.5971 111.442 51.5971Z" fill="white"/>
<path d="M87.4277 67.5629H90.1364V75H91.7026V67.5629H94.407V66.2363H87.4277V67.5629Z" fill="white"/>
<path d="M94.8846 75H96.4251V71.1274C96.4251 70.2972 97.0584 69.7024 97.9099 69.7024C98.1667 69.7024 98.4919 69.7495 98.6288 69.7923V68.3759C98.4833 68.3502 98.2394 68.3331 98.0682 68.3331C97.3194 68.3331 96.6861 68.761 96.4464 69.5227H96.378V68.4273H94.8846V75Z" fill="white"/>
<path d="M103.733 72.2357C103.737 73.2456 103.014 73.7377 102.33 73.7377C101.581 73.7377 101.084 73.2113 101.084 72.3769V68.4273H99.5438V72.6123C99.5438 74.1913 100.442 75.0856 101.735 75.0856C102.723 75.0856 103.412 74.5678 103.712 73.8361H103.78V75H105.269V68.4273H103.733V72.2357Z" fill="white"/>
<path d="M110.475 70.3015H111.939C111.827 69.1076 110.86 68.3417 109.294 68.3417C107.685 68.3417 106.637 69.1376 106.641 70.3529C106.637 71.2943 107.27 71.9319 108.485 72.1844L109.547 72.4069C110.201 72.5481 110.497 72.792 110.501 73.1728C110.497 73.6607 110.013 73.9645 109.268 73.9645C108.55 73.9645 108.113 73.6863 108.015 73.13H106.453C106.607 74.3838 107.595 75.1284 109.273 75.1284C110.989 75.1284 112.067 74.2726 112.071 73.0359C112.067 72.0988 111.464 71.5211 110.227 71.2558L109.11 71.0161C108.443 70.8621 108.173 70.6096 108.173 70.263C108.173 69.818 108.657 69.4885 109.316 69.4885C109.97 69.4885 110.381 69.8094 110.475 70.3015Z" fill="white"/>
<path d="M116.525 68.4273H115.232V66.8525H113.692V68.4273H112.759V69.6169H113.692V73.2798C113.688 74.5165 114.582 75.0899 115.742 75.0899C116.135 75.0899 116.43 75.0557 116.614 75.0257V73.7634C116.422 73.7762 116.118 73.7976 115.938 73.7933C115.545 73.7848 115.232 73.6564 115.232 73.0231V69.6169H116.525V68.4273Z" fill="white"/>
<path d="M120.354 73.1557C120.354 74.448 121.304 75.1327 122.557 75.1327C123.589 75.1327 124.205 74.6449 124.487 74.0971H124.539V75H126.015V70.6053C126.015 68.8552 124.577 68.3417 123.332 68.3417C121.684 68.3417 120.683 69.1889 120.572 70.3015H122.065C122.181 69.8308 122.6 69.5184 123.289 69.5184C124.064 69.5184 124.479 69.895 124.479 70.5412L124.483 71.0718C124.196 71.0846 123.259 71.1274 122.801 71.1574C121.582 71.2387 120.354 71.6709 120.354 73.1557ZM121.843 73.1343C121.843 72.5609 122.305 72.2528 123.041 72.1972C123.349 72.1672 124.205 72.1116 124.483 72.0988L124.487 72.6422C124.487 73.3782 123.888 73.9987 122.951 73.9987C122.305 73.9987 121.843 73.7034 121.843 73.1343Z" fill="white"/>
<path d="M129.016 71.1488C129.016 70.1945 129.593 69.6468 130.411 69.6468C131.215 69.6468 131.694 70.1731 131.694 71.0504V75H133.235V70.815C133.235 69.2403 132.341 68.3417 130.984 68.3417C130 68.3417 129.328 68.8081 129.029 69.5441H128.947V68.4273H127.475V75H129.016V71.1488Z" fill="white"/>
<path d="M137.156 75.1156C138.285 75.1156 138.79 74.4437 139.038 73.9645H139.128V75H140.639V66.2363H139.098V69.5099H139.038C138.803 69.0392 138.319 68.3417 137.16 68.3417C135.636 68.3417 134.443 69.5313 134.443 71.7222C134.443 73.8832 135.607 75.1156 137.156 75.1156ZM136.013 71.7136C136.013 70.4855 136.544 69.6083 137.579 69.6083C138.581 69.6083 139.137 70.4342 139.137 71.7136C139.137 72.9931 138.572 73.8532 137.579 73.8532C136.556 73.8532 136.013 72.9503 136.013 71.7136Z" fill="white"/>
<path d="M145.217 75H148.756C150.763 75 151.743 73.9773 151.743 72.6123C151.743 71.2857 150.805 70.5112 149.873 70.4599V70.3743C150.728 70.1731 151.4 69.5741 151.4 68.5128C151.4 67.2034 150.463 66.2363 148.567 66.2363H145.217V75ZM146.787 73.6821V71.106H148.555C149.53 71.106 150.146 71.7051 150.146 72.4924C150.146 73.19 149.663 73.6821 148.507 73.6821H146.787ZM146.787 69.9677V67.5415H148.405C149.342 67.5415 149.83 68.0336 149.83 68.7097C149.83 69.4842 149.201 69.9677 148.371 69.9677H146.787Z" fill="white"/>
<path d="M157.151 72.2357C157.156 73.2456 156.432 73.7377 155.748 73.7377C154.999 73.7377 154.502 73.2113 154.502 72.3769V68.4273H152.962V72.6123C152.962 74.1913 153.861 75.0856 155.153 75.0856C156.141 75.0856 156.83 74.5678 157.13 73.8361H157.198V75H158.687V68.4273H157.151V72.2357Z" fill="white"/>
<path d="M161.099 77.4648C162.336 77.4648 163.029 76.8486 163.405 75.8002L166.041 68.4273H164.403L162.875 73.3954H162.806L161.287 68.4273H159.653L162.04 75.137L161.904 75.4879C161.642 76.1896 161.33 76.2196 160.954 76.2196C160.752 76.2196 160.491 76.2153 160.303 76.1982L160.299 77.4349C160.5 77.4563 160.791 77.4648 161.099 77.4648Z" fill="white"/>
</svg>
