<svg width="410" height="340" viewBox="0 0 410 340" fill="none" xmlns="http://www.w3.org/2000/svg">
<ellipse cx="225" cy="150" rx="153" ry="150" fill="url(#paint0_linear_1237_42976)"/>
<path d="M410 190C410 272.843 341.5 340 257 340C172.5 340 104 272.843 104 190C104 107.157 172.5 40 257 40C341.5 40 410 107.157 410 190ZM185.56 190C185.56 228.682 217.545 260.04 257 260.04C296.455 260.04 328.44 228.682 328.44 190C328.44 151.318 296.455 119.96 257 119.96C217.545 119.96 185.56 151.318 185.56 190Z" fill="url(#paint1_linear_1237_42976)"/>
<path opacity="0.4" d="M47.4986 231.07L42.1919 224.457L49.4973 219.653C50.4166 219.048 50.6232 217.868 49.9554 217.035C49.2875 216.203 47.9838 216.016 47.0645 216.621L39.7591 221.425L34.4523 214.811C33.7845 213.979 32.4807 213.792 31.5614 214.397C30.6421 215.001 30.4355 216.182 31.1033 217.014L36.4101 223.627L29.1047 228.432C28.1854 229.036 27.9788 230.217 28.6466 231.049C29.3144 231.881 30.6181 232.068 31.5375 231.464L38.8429 226.659L44.1497 233.273C44.8175 234.105 46.1212 234.292 47.0405 233.688C47.974 233.085 48.1784 231.918 47.4986 231.07Z" fill="white"/>
<path opacity="0.4" d="M10.0572 204.902L7.32619 201.499L11.0858 199.026C11.5589 198.715 11.6652 198.108 11.3215 197.679C10.9779 197.251 10.3069 197.155 9.8338 197.466L6.0742 199.938L3.34316 196.535C2.99947 196.106 2.32854 196.01 1.85542 196.321C1.3823 196.632 1.27598 197.24 1.61966 197.668L4.35071 201.072L0.59111 203.544C0.117993 203.855 0.0116696 204.463 0.355352 204.891C0.699034 205.319 1.36997 205.416 1.84309 205.104L5.60269 202.632L8.33374 206.036C8.67742 206.464 9.34836 206.56 9.82148 206.249C10.3019 205.939 10.4071 205.338 10.0572 204.902Z" fill="white"/>
<defs>
<linearGradient id="paint0_linear_1237_42976" x1="-221.143" y1="-390.126" x2="221.855" y2="171.176" gradientUnits="userSpaceOnUse">
<stop stop-color="white"/>
<stop offset="1" stop-color="white" stop-opacity="0.07"/>
</linearGradient>
<linearGradient id="paint1_linear_1237_42976" x1="-189.143" y1="-350.126" x2="253.855" y2="211.176" gradientUnits="userSpaceOnUse">
<stop stop-color="white"/>
<stop offset="1" stop-color="white" stop-opacity="0"/>
</linearGradient>
</defs>
</svg>
