<svg width="339" height="260" viewBox="0 0 339 260" fill="none" xmlns="http://www.w3.org/2000/svg">
<path d="M72.1082 26.7836C70.5148 26.7836 69.2164 25.4852 69.2164 23.8918C69.2164 22.2984 70.5148 21 72.1082 21C73.7016 21 75 22.2984 75 23.8918C75 25.4951 73.7016 26.7836 72.1082 26.7836ZM75 41.1934C75 39.6 73.7016 38.3016 72.1082 38.3016C70.5148 38.3016 69.2164 39.6 69.2164 41.1934C69.2164 42.7869 70.5148 44.0852 72.1082 44.0852C73.7016 44.0852 75 42.7967 75 41.1934ZM75 58.4951C75 56.9016 73.7016 55.6033 72.1082 55.6033C70.5148 55.6033 69.2164 56.9016 69.2164 58.4951C69.2164 60.0885 70.5148 61.3869 72.1082 61.3869C73.7016 61.3967 75 60.0984 75 58.4951ZM75 75.8066C75 74.2131 73.7016 72.9148 72.1082 72.9148C70.5148 72.9148 69.2164 74.2131 69.2164 75.8066C69.2164 77.4 70.5148 78.6984 72.1082 78.6984C73.7016 78.6984 75 77.4 75 75.8066ZM75 93.1082C75 91.5148 73.7016 90.2164 72.1082 90.2164C70.5148 90.2164 69.2164 91.5148 69.2164 93.1082C69.2164 94.7016 70.5148 96 72.1082 96C73.7016 96 75 94.7016 75 93.1082ZM57.6983 23.8918C57.6983 22.2984 56.4 21 54.8065 21C53.2131 21 51.9147 22.2984 51.9147 23.8918C51.9147 25.4852 53.2131 26.7836 54.8065 26.7836C56.4 26.7836 57.6983 25.4951 57.6983 23.8918ZM57.6983 41.1934C57.6983 39.6 56.4 38.3016 54.8065 38.3016C53.2131 38.3016 51.9147 39.6 51.9147 41.1934C51.9147 42.7869 53.2131 44.0852 54.8065 44.0852C56.4 44.0852 57.6983 42.7967 57.6983 41.1934ZM57.6983 58.4951C57.6983 56.9016 56.4 55.6033 54.8065 55.6033C53.2131 55.6033 51.9147 56.9016 51.9147 58.4951C51.9147 60.0885 53.2131 61.3869 54.8065 61.3869C56.4 61.3967 57.6983 60.0984 57.6983 58.4951ZM57.6983 75.8066C57.6983 74.2131 56.4 72.9148 54.8065 72.9148C53.2131 72.9148 51.9147 74.2131 51.9147 75.8066C51.9147 77.4 53.2131 78.6984 54.8065 78.6984C56.4 78.6984 57.6983 77.4 57.6983 75.8066ZM57.6983 93.1082C57.6983 91.5148 56.4 90.2164 54.8065 90.2164C53.2131 90.2164 51.9147 91.5148 51.9147 93.1082C51.9147 94.7016 53.2131 96 54.8065 96C56.4 96 57.6983 94.7016 57.6983 93.1082ZM40.3869 23.8918C40.3869 22.2984 39.0885 21 37.4951 21C35.9016 21 34.6033 22.2984 34.6033 23.8918C34.6033 25.4852 35.9016 26.7836 37.4951 26.7836C39.0984 26.7836 40.3869 25.4951 40.3869 23.8918ZM40.3869 41.1934C40.3869 39.6 39.0885 38.3016 37.4951 38.3016C35.9016 38.3016 34.6033 39.6 34.6033 41.1934C34.6033 42.7869 35.9016 44.0852 37.4951 44.0852C39.0984 44.0852 40.3869 42.7967 40.3869 41.1934ZM40.3869 58.4951C40.3869 56.9016 39.0885 55.6033 37.4951 55.6033C35.9016 55.6033 34.6033 56.9016 34.6033 58.4951C34.6033 60.0885 35.9016 61.3869 37.4951 61.3869C39.0984 61.3967 40.3869 60.0984 40.3869 58.4951ZM40.3869 75.8066C40.3869 74.2131 39.0885 72.9148 37.4951 72.9148C35.9016 72.9148 34.6033 74.2131 34.6033 75.8066C34.6033 77.4 35.9016 78.6984 37.4951 78.6984C39.0984 78.6984 40.3869 77.4 40.3869 75.8066ZM40.3869 93.1082C40.3869 91.5148 39.0885 90.2164 37.4951 90.2164C35.9016 90.2164 34.6033 91.5148 34.6033 93.1082C34.6033 94.7016 35.9016 96 37.4951 96C39.0984 96 40.3869 94.7016 40.3869 93.1082ZM23.0852 23.8918C23.0852 22.2984 21.7869 21 20.1934 21C18.6 21 17.3017 22.2984 17.3017 23.8918C17.3017 25.4852 18.6 26.7836 20.1934 26.7836C21.7967 26.7836 23.0852 25.4951 23.0852 23.8918ZM23.0852 41.1934C23.0852 39.6 21.7869 38.3016 20.1934 38.3016C18.6 38.3016 17.3017 39.6 17.3017 41.1934C17.3017 42.7869 18.6 44.0852 20.1934 44.0852C21.7967 44.0852 23.0852 42.7967 23.0852 41.1934ZM23.0852 58.4951C23.0852 56.9016 21.7869 55.6033 20.1934 55.6033C18.6 55.6033 17.3017 56.9016 17.3017 58.4951C17.3017 60.0885 18.6 61.3869 20.1934 61.3869C21.7967 61.3967 23.0852 60.0984 23.0852 58.4951ZM23.0852 75.8066C23.0852 74.2131 21.7869 72.9148 20.1934 72.9148C18.6 72.9148 17.3017 74.2131 17.3017 75.8066C17.3017 77.4 18.6 78.6984 20.1934 78.6984C21.7967 78.6984 23.0852 77.4 23.0852 75.8066ZM23.0852 93.1082C23.0852 91.5148 21.7869 90.2164 20.1934 90.2164C18.6 90.2164 17.3017 91.5148 17.3017 93.1082C17.3017 94.7016 18.6 96 20.1934 96C21.7967 96 23.0852 94.7016 23.0852 93.1082ZM5.78361 23.8918C5.78361 22.2984 4.48525 21 2.89181 21C1.29836 21 0 22.2984 0 23.8918C0 25.4852 1.29836 26.7836 2.89181 26.7836C4.48525 26.7836 5.78361 25.4951 5.78361 23.8918ZM5.78361 41.1934C5.78361 39.6 4.48525 38.3016 2.89181 38.3016C1.29836 38.3016 0 39.6 0 41.1934C0 42.7869 1.29836 44.0852 2.89181 44.0852C4.48525 44.0852 5.78361 42.7967 5.78361 41.1934ZM5.78361 58.4951C5.78361 56.9016 4.48525 55.6033 2.89181 55.6033C1.29836 55.6033 0 56.9016 0 58.4951C0 60.0885 1.29836 61.3869 2.89181 61.3869C4.48525 61.3869 5.78361 60.0984 5.78361 58.4951ZM5.78361 75.8066C5.78361 74.2131 4.48525 72.9148 2.89181 72.9148C1.29836 72.9148 0 74.2131 0 75.8066C0 77.4 1.29836 78.6984 2.89181 78.6984C4.48525 78.6984 5.78361 77.4 5.78361 75.8066ZM5.78361 93.1082C5.78361 91.5148 4.48525 90.2164 2.89181 90.2164C1.29836 90.2164 0 91.5148 0 93.1082C0 94.7016 1.29836 96 2.89181 96C4.48525 96 5.78361 94.7016 5.78361 93.1082Z" fill="white" fill-opacity="0.3"/>
<path d="M194.725 205.55C193.472 205.55 192.45 204.528 192.45 203.275C192.45 202.021 193.472 201 194.725 201C195.979 201 197 202.021 197 203.275C197 204.536 195.979 205.55 194.725 205.55ZM197 216.886C197 215.632 195.979 214.611 194.725 214.611C193.472 214.611 192.45 215.632 192.45 216.886C192.45 218.139 193.472 219.16 194.725 219.16C195.979 219.16 197 218.147 197 216.886ZM197 230.496C197 229.243 195.979 228.221 194.725 228.221C193.472 228.221 192.45 229.243 192.45 230.496C192.45 231.75 193.472 232.771 194.725 232.771C195.979 232.779 197 231.757 197 230.496ZM197 244.114C197 242.861 195.979 241.84 194.725 241.84C193.472 241.84 192.45 242.861 192.45 244.114C192.45 245.368 193.472 246.389 194.725 246.389C195.979 246.389 197 245.368 197 244.114ZM197 257.725C197 256.472 195.979 255.45 194.725 255.45C193.472 255.45 192.45 256.472 192.45 257.725C192.45 258.979 193.472 260 194.725 260C195.979 260 197 258.979 197 257.725ZM183.389 203.275C183.389 202.021 182.368 201 181.114 201C179.861 201 178.84 202.021 178.84 203.275C178.84 204.528 179.861 205.55 181.114 205.55C182.368 205.55 183.389 204.536 183.389 203.275ZM183.389 216.886C183.389 215.632 182.368 214.611 181.114 214.611C179.861 214.611 178.84 215.632 178.84 216.886C178.84 218.139 179.861 219.16 181.114 219.16C182.368 219.16 183.389 218.147 183.389 216.886ZM183.389 230.496C183.389 229.243 182.368 228.221 181.114 228.221C179.861 228.221 178.84 229.243 178.84 230.496C178.84 231.75 179.861 232.771 181.114 232.771C182.368 232.779 183.389 231.757 183.389 230.496ZM183.389 244.114C183.389 242.861 182.368 241.84 181.114 241.84C179.861 241.84 178.84 242.861 178.84 244.114C178.84 245.368 179.861 246.389 181.114 246.389C182.368 246.389 183.389 245.368 183.389 244.114ZM183.389 257.725C183.389 256.472 182.368 255.45 181.114 255.45C179.861 255.45 178.84 256.472 178.84 257.725C178.84 258.979 179.861 260 181.114 260C182.368 260 183.389 258.979 183.389 257.725ZM169.771 203.275C169.771 202.021 168.75 201 167.496 201C166.243 201 165.221 202.021 165.221 203.275C165.221 204.528 166.243 205.55 167.496 205.55C168.757 205.55 169.771 204.536 169.771 203.275ZM169.771 216.886C169.771 215.632 168.75 214.611 167.496 214.611C166.243 214.611 165.221 215.632 165.221 216.886C165.221 218.139 166.243 219.16 167.496 219.16C168.757 219.16 169.771 218.147 169.771 216.886ZM169.771 230.496C169.771 229.243 168.75 228.221 167.496 228.221C166.243 228.221 165.221 229.243 165.221 230.496C165.221 231.75 166.243 232.771 167.496 232.771C168.757 232.779 169.771 231.757 169.771 230.496ZM169.771 244.114C169.771 242.861 168.75 241.84 167.496 241.84C166.243 241.84 165.221 242.861 165.221 244.114C165.221 245.368 166.243 246.389 167.496 246.389C168.757 246.389 169.771 245.368 169.771 244.114ZM169.771 257.725C169.771 256.472 168.75 255.45 167.496 255.45C166.243 255.45 165.221 256.472 165.221 257.725C165.221 258.979 166.243 260 167.496 260C168.757 260 169.771 258.979 169.771 257.725ZM156.16 203.275C156.16 202.021 155.139 201 153.885 201C152.632 201 151.611 202.021 151.611 203.275C151.611 204.528 152.632 205.55 153.885 205.55C155.147 205.55 156.16 204.536 156.16 203.275ZM156.16 216.886C156.16 215.632 155.139 214.611 153.885 214.611C152.632 214.611 151.611 215.632 151.611 216.886C151.611 218.139 152.632 219.16 153.885 219.16C155.147 219.16 156.16 218.147 156.16 216.886ZM156.16 230.496C156.16 229.243 155.139 228.221 153.885 228.221C152.632 228.221 151.611 229.243 151.611 230.496C151.611 231.75 152.632 232.771 153.885 232.771C155.147 232.779 156.16 231.757 156.16 230.496ZM156.16 244.114C156.16 242.861 155.139 241.84 153.885 241.84C152.632 241.84 151.611 242.861 151.611 244.114C151.611 245.368 152.632 246.389 153.885 246.389C155.147 246.389 156.16 245.368 156.16 244.114ZM156.16 257.725C156.16 256.472 155.139 255.45 153.885 255.45C152.632 255.45 151.611 256.472 151.611 257.725C151.611 258.979 152.632 260 153.885 260C155.147 260 156.16 258.979 156.16 257.725ZM142.55 203.275C142.55 202.021 141.528 201 140.275 201C139.021 201 138 202.021 138 203.275C138 204.528 139.021 205.55 140.275 205.55C141.528 205.55 142.55 204.536 142.55 203.275ZM142.55 216.886C142.55 215.632 141.528 214.611 140.275 214.611C139.021 214.611 138 215.632 138 216.886C138 218.139 139.021 219.16 140.275 219.16C141.528 219.16 142.55 218.147 142.55 216.886ZM142.55 230.496C142.55 229.243 141.528 228.221 140.275 228.221C139.021 228.221 138 229.243 138 230.496C138 231.75 139.021 232.771 140.275 232.771C141.528 232.771 142.55 231.757 142.55 230.496ZM142.55 244.114C142.55 242.861 141.528 241.84 140.275 241.84C139.021 241.84 138 242.861 138 244.114C138 245.368 139.021 246.389 140.275 246.389C141.528 246.389 142.55 245.368 142.55 244.114ZM142.55 257.725C142.55 256.472 141.528 255.45 140.275 255.45C139.021 255.45 138 256.472 138 257.725C138 258.979 139.021 260 140.275 260C141.528 260 142.55 258.979 142.55 257.725Z" fill="white" fill-opacity="0.3"/>
<path opacity="0.2" d="M273.508 21.5H316.508V64.5001H273.508V21.5Z" fill="white"/>
</svg>
