<svg width="16" height="16" viewBox="0 0 16 16" fill="none" xmlns="http://www.w3.org/2000/svg">
<path fill-rule="evenodd" clip-rule="evenodd" d="M6.00065 4.00016C4.89608 4.00016 4.00065 4.89559 4.00065 6.00016C4.00065 7.10473 4.89608 8.00016 6.00065 8.00016C7.10522 8.00016 8.00065 7.10473 8.00065 6.00016C8.00065 4.89559 7.10522 4.00016 6.00065 4.00016ZM5.33398 6.00016C5.33398 5.63197 5.63246 5.3335 6.00065 5.3335C6.36884 5.3335 6.66732 5.63197 6.66732 6.00016C6.66732 6.36835 6.36884 6.66683 6.00065 6.66683C5.63246 6.66683 5.33398 6.36835 5.33398 6.00016Z" fill="white"/>
<path fill-rule="evenodd" clip-rule="evenodd" d="M2.00065 1.3335C1.63246 1.3335 1.33398 1.63197 1.33398 2.00016V8.00018C1.33398 8.17699 1.40422 8.34656 1.52925 8.47158L7.91977 14.8621C8.70082 15.6431 9.96715 15.6431 10.7482 14.8621L14.8626 10.7477C15.6436 9.96666 15.6436 8.70033 14.8626 7.91928L8.47206 1.52876C8.34703 1.40373 8.17746 1.3335 8.00065 1.3335H2.00065ZM2.66732 7.72403V2.66683H7.72451L13.9198 8.86209C14.1801 9.12244 14.1801 9.54455 13.9198 9.8049L9.80539 13.9193C9.54504 14.1796 9.12293 14.1796 8.86258 13.9193L2.66732 7.72403Z" fill="white"/>
</svg>
