<svg width="17" height="15" viewBox="0 0 17 15" fill="none" xmlns="http://www.w3.org/2000/svg">
<path d="M4.76574 3.76562H0.498047V4.83254C0.498047 5.42176 0.975508 5.89946 1.56496 5.89946C2.21578 5.89946 3.04801 5.89946 3.69883 5.89946C4.28828 5.89946 4.76574 5.42173 4.76574 4.83254C4.76574 4.2991 4.76574 3.76562 4.76574 3.76562Z" stroke="#6D7684" stroke-miterlimit="10" stroke-linecap="round" stroke-linejoin="round"/>
<path d="M16.5021 3.76562H12.2344V4.83254C12.2344 5.42176 12.7118 5.89946 13.3013 5.89946C13.9521 5.89946 14.7843 5.89946 15.4352 5.89946C16.0246 5.89946 16.5021 5.42173 16.5021 4.83254C16.5021 4.2991 16.5021 3.76562 16.5021 3.76562Z" stroke="#6D7684" stroke-miterlimit="10" stroke-linecap="round" stroke-linejoin="round"/>
<path d="M16.502 3.76572C16.502 1.99809 15.0696 0.564941 13.3012 0.564941C10.5112 0.564941 6.48882 0.564941 3.69883 0.564941C1.9304 0.564941 0.498047 1.99809 0.498047 3.76572H4.76574C4.76574 3.48273 4.87777 3.21146 5.07782 3.01141C5.27787 2.81137 5.5499 2.69881 5.83266 2.69881C7.25166 2.69881 9.7483 2.69881 11.1673 2.69881C11.4501 2.69881 11.7221 2.81137 11.9221 3.01141C12.1222 3.21146 12.2342 3.48273 12.2342 3.76572H16.502Z" stroke="#6D7684" stroke-miterlimit="10" stroke-linecap="round" stroke-linejoin="round"/>
<path d="M8.49934 11.234C9.97245 11.234 11.1666 10.0398 11.1666 8.56672C11.1666 7.09361 9.97245 5.89941 8.49934 5.89941C7.02622 5.89941 5.83203 7.09361 5.83203 8.56672C5.83203 10.0398 7.02622 11.234 8.49934 11.234Z" stroke="#6D7684" stroke-miterlimit="10" stroke-linecap="round" stroke-linejoin="round"/>
<path d="M4.76496 4.83255V4.83282C4.76496 5.5266 4.54891 6.20301 4.14616 6.7677C3.54863 7.60256 2.68177 8.81487 2.29771 9.35552C2.16702 9.53664 2.09766 9.75322 2.09766 9.97568C2.09766 10.9882 2.09766 13.9014 2.09766 13.9014H14.9008V9.97565C14.9008 9.75319 14.8314 9.53661 14.7007 9.35548C14.3166 8.81484 13.4498 7.60252 12.8523 6.76766C12.4496 6.20298 12.2335 5.52656 12.2335 4.83279C12.2335 4.83252 12.2335 4.83252 12.2335 4.83252" stroke="#6D7684" stroke-miterlimit="10" stroke-linecap="round" stroke-linejoin="round"/>
</svg>
