<svg width="16" height="16" viewBox="0 0 16 16" fill="none" xmlns="http://www.w3.org/2000/svg">
<path fill-rule="evenodd" clip-rule="evenodd" d="M11.9997 4.66699C11.9997 6.87613 10.2088 8.66699 7.99967 8.66699C5.79054 8.66699 3.99967 6.87613 3.99967 4.66699C3.99967 2.45785 5.79054 0.666992 7.99967 0.666992C10.2088 0.666992 11.9997 2.45785 11.9997 4.66699ZM10.6663 4.66699C10.6663 6.13975 9.47243 7.33366 7.99967 7.33366C6.52692 7.33366 5.33301 6.13975 5.33301 4.66699C5.33301 3.19423 6.52692 2.00033 7.99967 2.00033C9.47243 2.00033 10.6663 3.19423 10.6663 4.66699Z" fill="white"/>
<path fill-rule="evenodd" clip-rule="evenodd" d="M7.99972 9.33366C6.04297 9.33366 4.63214 9.73955 3.6201 10.3481C2.60403 10.9592 2.03332 11.7486 1.71816 12.4391C1.45251 13.0211 1.57342 13.6142 1.92637 14.0367C2.26282 14.4395 2.78594 14.667 3.33304 14.667H12.6663C13.2134 14.667 13.7366 14.4395 14.073 14.0367C14.426 13.6142 14.5469 13.0211 14.2812 12.4391C13.9661 11.7487 13.3954 10.9592 12.3793 10.3482C11.3673 9.73955 9.95648 9.33366 7.99972 9.33366ZM2.93111 12.9927C3.14988 12.5135 3.55174 11.9451 4.30724 11.4908C5.06678 11.034 6.22653 10.667 7.99972 10.667C9.77293 10.667 10.9327 11.034 11.6922 11.4908C12.4477 11.9451 12.8495 12.5135 13.0683 12.9927C13.0941 13.0493 13.093 13.0834 13.0904 13.1007C13.0874 13.1206 13.0777 13.1484 13.0497 13.1819C12.9896 13.2539 12.8556 13.3337 12.6663 13.3337H3.33304C3.14375 13.3337 3.00978 13.2539 2.94968 13.1819C2.92169 13.1484 2.91196 13.1206 2.90899 13.1007C2.9064 13.0834 2.90527 13.0493 2.93111 12.9927Z" fill="white"/>
</svg>
