  <svg
          width="15"
          height="12"
          viewBox="0 0 14 15"
          fill="none"
          xmlns="http://www.w3.org/2000/svg"
        >
          <path
            d="M10.5 14.5C12.433 14.5 14 12.933 14 11C14 9.067 12.433 7.5 10.5 7.5C8.567 7.5 7 9.067 7 11C7 12.933 8.567 14.5 10.5 14.5ZM12.1787 10.0072L10.8435 12.2327C10.5924 12.6511 10.0151 12.7222 9.67004 12.3771L8.89645 11.6036C8.70118 11.4083 8.70118 11.0917 8.89645 10.8964C9.09171 10.7012 9.40829 10.7012 9.60355 10.8964L10.1507 11.4436L11.3213 9.49275C11.4633 9.25596 11.7705 9.17918 12.0072 9.32125C12.244 9.46333 12.3208 9.77046 12.1787 10.0072Z"
            fill="white"
          />
          <path
            d="M9 3.5C9 5.15685 7.65685 6.5 6 6.5C4.34315 6.5 3 5.15685 3 3.5C3 1.84315 4.34315 0.5 6 0.5C7.65685 0.5 9 1.84315 9 3.5Z"
            fill="white"
          />
          <path
            d="M0 11.5C0 12.5 1 12.5 1 12.5H6.25606C6.09023 12.0308 6 11.526 6 11C6 9.64634 6.5977 8.43228 7.54358 7.60733C7.07708 7.53817 6.56399 7.5 6 7.5C1 7.5 0 10.5 0 11.5Z"
            fill="white"
          />
        </svg>